<svg width="71" height="63" viewBox="0 0 71 63" fill="none" xmlns="http://www.w3.org/2000/svg">
<path d="M70.5 31.5C70.5 48.5663 54.8878 62.5 35.5 62.5C16.1122 62.5 0.5 48.5663 0.5 31.5C0.5 14.4337 16.1122 0.5 35.5 0.5C54.8878 0.5 70.5 14.4337 70.5 31.5Z" fill="#B3B3B3" fill-opacity="0.43" stroke="black"/>
<path d="M44.8332 32V40.75C44.8332 42.6356 44.8332 43.5784 44.2474 44.1642C43.6616 44.75 42.7188 44.75 40.8332 44.75H27.7082C27.205 44.75 26.9534 44.75 26.7425 44.7199C25.4224 44.5314 24.3851 43.4941 24.1966 42.174C24.1665 41.9631 24.1665 41.7115 24.1665 41.2083V41.2083C24.1665 40.7052 24.1665 40.4536 24.1966 40.2427C24.3851 38.9225 25.4224 37.8853 26.7425 37.6968C26.9534 37.6667 27.205 37.6667 27.7082 37.6667H40.8332C42.7188 37.6667 43.6616 37.6667 44.2474 37.0809C44.8332 36.4951 44.8332 35.5523 44.8332 33.6667V23.25C44.8332 21.3644 44.8332 20.4216 44.2474 19.8358C43.6616 19.25 42.7188 19.25 40.8332 19.25H28.1665C26.2809 19.25 25.3381 19.25 24.7523 19.8358C24.1665 20.4216 24.1665 21.3644 24.1665 23.25V41.2083" stroke="#33363F" stroke-width="2"/>
<path d="M30.625 29.1667L32.4694 31.1895C32.866 31.6245 33.5507 31.6245 33.9473 31.1895L38.375 26.3333" stroke="#33363F" stroke-width="2" stroke-linecap="round"/>
</svg>
