<svg width="57" height="47" viewBox="0 0 57 47" fill="none" xmlns="http://www.w3.org/2000/svg">
<rect x="0.5" y="0.5" width="56" height="46" rx="9.5" fill="white" stroke="black"/>
<rect x="0.5" y="0.5" width="56" height="46" rx="9.5" fill="white" stroke="black"/>
<path d="M16.2252 18.2295V17.2627H23.2711C23.2711 19.6357 23.027 21.9062 22.5387 24.0742H21.4254C21.9137 21.9648 22.1578 20.0166 22.1578 18.2295H16.2252ZM15.2877 26.96V25.9932H16.8404C20.2389 25.9932 22.8756 25.8711 24.7506 25.627V26.5645C22.5729 26.8281 19.9313 26.96 16.8258 26.96H15.2877ZM18.2613 26.3887V20.9688H19.3746V26.3887H18.2613ZM25.2486 29.3184V15.959H26.3766V21.9502H28.5299V22.9463H26.3766V29.3184H25.2486ZM29.5846 22.5947C30.6881 22.0381 31.65 21.3203 32.4703 20.4414C33.2906 19.5625 33.7008 18.5957 33.7008 17.541V16.4424H34.7994V17.5117C34.7994 18.0586 34.9313 18.5957 35.1949 19.123C35.4684 19.6504 35.8199 20.1143 36.2496 20.5146C36.6793 20.9053 37.0895 21.2373 37.4801 21.5107C37.8805 21.7744 38.2809 22.0039 38.6813 22.1992L38.0221 23.0049C37.4166 22.7314 36.733 22.2773 35.9713 21.6426C35.2096 20.998 34.6432 20.334 34.2721 19.6504C33.9401 20.3535 33.3834 21.0518 32.6022 21.7451C31.8307 22.4385 31.0641 22.9805 30.3024 23.3711L29.5846 22.5947ZM40.2779 24.0156V15.959H41.4059V24.0156H40.2779ZM32.1188 25.7295V24.748H41.4059V29.4795H40.2779V25.7295H32.1188Z" fill="black"/>
</svg>
