<svg width="116" height="48" viewBox="0 0 116 48" fill="none" xmlns="http://www.w3.org/2000/svg">
<rect x="0.5" y="1" width="115" height="46" rx="9.5" fill="white" stroke="black"/>
<path d="M23.8891 26.832C24.7485 25.6895 25.393 24.4736 25.8227 23.1846C26.2524 21.8857 26.4672 20.6016 26.4672 19.332H24.3285V18.3213H27.5805C27.5805 21.8662 26.6625 24.874 24.8266 27.3447L23.8891 26.832ZM26.892 27.8721C27.8002 26.6123 28.4789 25.2305 28.9281 23.7266C29.3774 22.2227 29.602 20.7578 29.602 19.332H27.976V18.3213H30.7153C30.7153 22.374 29.768 25.7236 27.8735 28.3701L26.892 27.8721ZM31.8871 29.7178V17.3398H32.8832V22.5107H34.7143V16.959H35.7983V30.3184H34.7143V23.5654H32.8832V29.7178H31.8871ZM39.6362 18.4385V17.457H44.5434C44.5434 19.2246 44.2651 21.1094 43.7084 23.1113H42.6098C42.8539 22.3203 43.0541 21.4756 43.2104 20.5771C43.3666 19.6689 43.4447 18.9561 43.4447 18.4385H39.6362ZM45.1586 18.4385V17.457H49.5385C49.5385 19.2441 49.2944 21.1289 48.8061 23.1113H47.7221C48.1908 21.2949 48.4252 19.7373 48.4252 18.4385H45.1586ZM38.0981 23.8584V22.9209H51.1498V23.8584H38.0981ZM39.1528 29.2197C39.8363 29.0244 40.5346 28.7559 41.2475 28.4141C41.9604 28.0625 42.6098 27.6182 43.1957 27.0811C43.7817 26.5439 44.0746 26.0166 44.0746 25.499V25.0303H45.2026V25.4844C45.2026 26.002 45.5004 26.5342 46.0961 27.0811C46.7016 27.6279 47.3656 28.0771 48.0883 28.4287C48.8207 28.7803 49.5092 29.0439 50.1537 29.2197L49.5678 30.1426C48.6987 29.9082 47.766 29.4883 46.7699 28.8828C45.7836 28.2773 45.0805 27.6475 44.6606 26.9932C44.2211 27.6475 43.5229 28.2725 42.5658 28.8682C41.6186 29.4541 40.6762 29.8838 39.7387 30.1572L39.1528 29.2197ZM54.5483 18.4385V17.4863H59.3822V18.4385H54.5483ZM52.6293 20.6211V19.6689H60.8324V20.6211H52.6293ZM53.2592 23.5947C53.2592 22.9502 53.6108 22.4473 54.3139 22.0859C55.0268 21.7148 55.9057 21.5293 56.9506 21.5293C57.9955 21.5293 58.8695 21.71 59.5727 22.0713C60.2856 22.4326 60.642 22.9404 60.642 23.5947C60.642 24.2393 60.2856 24.7471 59.5727 25.1182C58.8695 25.4893 57.9955 25.6748 56.9506 25.6748C55.9057 25.6748 55.0268 25.4893 54.3139 25.1182C53.6108 24.7471 53.2592 24.2393 53.2592 23.5947ZM54.4457 23.5947C54.4457 23.9658 54.685 24.2588 55.1635 24.4736C55.6518 24.6885 56.2475 24.7959 56.9506 24.7959C57.6342 24.7959 58.2201 24.6885 58.7084 24.4736C59.2065 24.2588 59.4555 23.9658 59.4555 23.5947C59.4555 23.2041 59.2162 22.9111 58.7377 22.7158C58.2592 22.5107 57.6635 22.4082 56.9506 22.4082C56.2377 22.4082 55.642 22.5156 55.1635 22.7305C54.685 22.9355 54.4457 23.2236 54.4457 23.5947ZM62.5903 27.2568V16.959H63.7182V21.8076H65.6078V22.8184H63.7182V27.2568H62.5903ZM55.0756 30.04V26.6123H56.2035V29.0586H64.1723V30.04H55.0756ZM68.2006 27.1396V18.0283H69.3285V26.1143H69.7094C70.2563 26.1143 71.1059 26.0703 72.2582 25.9824C73.4106 25.8945 74.5043 25.7676 75.5395 25.6016V26.5684C74.4457 26.7637 73.2201 26.9102 71.8627 27.0078C70.5151 27.0957 69.4799 27.1396 68.7572 27.1396H68.2006ZM76.6088 30.3184V16.959H77.7367V22.4814H80.0805V23.5654H77.7367V30.3184H76.6088ZM82.351 27.7695V22.4375H87.4779V19.1416H82.2778V18.1748H88.5619V23.3896H83.435V26.7881H83.8158C85.8276 26.7881 87.9272 26.6611 90.1147 26.4072V27.3154C87.7807 27.6182 85.3344 27.7695 82.7758 27.7695H82.351ZM91.2279 30.3184V16.959H92.3559V22.6133H94.6117V23.6973H92.3559V30.3184H91.2279Z" fill="black"/>
</svg>
