<svg width="57" height="47" viewBox="0 0 57 47" fill="none" xmlns="http://www.w3.org/2000/svg">
<rect x="0.5" y="0.5" width="56" height="46" rx="9.5" fill="white" stroke="black"/>
<path d="M16.708 21.4082V16.1201H17.8359V17.8047H24.7354V16.1201H25.8633V21.4082H16.708ZM17.8359 20.4561H24.7354V18.6982H17.8359V20.4561ZM14.7305 24.1182V23.1807H20.7217V21.1738H21.8496V23.1807H27.7822V24.1182H14.7305ZM16.4443 26.6084V25.7002H25.7314V29.4648H24.6182V26.6084H16.4443ZM31.1221 21.6572V16.3545H40.4385V17.248H32.2939V18.5957H40.3359V19.4014H32.2939V20.7783H40.541V21.6572H31.1221ZM29.1445 24.0742V23.1953H35.165V21.335H36.293V23.1953H42.1963V24.0742H29.1445ZM30.7705 27.209C30.7705 26.5352 31.21 26.0225 32.0889 25.6709C32.9678 25.3193 34.1689 25.1436 35.6924 25.1436C37.2158 25.1436 38.4268 25.3193 39.3252 25.6709C40.2334 26.0127 40.6875 26.5254 40.6875 27.209C40.6875 27.873 40.2334 28.3809 39.3252 28.7324C38.4268 29.084 37.2158 29.2598 35.6924 29.2598C34.1494 29.2598 32.9434 29.084 32.0742 28.7324C31.2051 28.3906 30.7705 27.8828 30.7705 27.209ZM32.0303 27.209C32.0303 27.9707 33.2559 28.3516 35.707 28.3516C36.8105 28.3516 37.709 28.2539 38.4023 28.0586C39.0957 27.873 39.4424 27.5898 39.4424 27.209C39.4424 26.4375 38.1973 26.0518 35.707 26.0518C34.5742 26.0518 33.6758 26.1494 33.0117 26.3447C32.3574 26.5303 32.0303 26.8184 32.0303 27.209Z" fill="black"/>
</svg>
