<svg width="110" height="47" viewBox="0 0 110 47" fill="none" xmlns="http://www.w3.org/2000/svg">
<rect x="0.5" y="0.5" width="109" height="46" rx="9.5" fill="white" stroke="black"/>
<rect x="0.5" y="0.5" width="109" height="46" rx="9.5" fill="white" stroke="black"/>
<path d="M28.3992 21.291C29.239 21.0273 30.0447 20.6807 30.8162 20.251C31.5877 19.8213 32.2517 19.2988 32.8084 18.6836C33.3748 18.0684 33.658 17.4531 33.658 16.8379V16.1201H34.7859V16.8232C34.7859 17.2822 34.9519 17.751 35.284 18.2295C35.616 18.708 36.0408 19.1426 36.5584 19.5332C37.0857 19.9141 37.6472 20.2607 38.2429 20.5732C38.8386 20.876 39.4295 21.1152 40.0154 21.291L39.4441 22.126C38.4187 21.833 37.3982 21.3447 36.3826 20.6611C35.367 19.9775 34.6443 19.2695 34.2146 18.5371C33.824 19.2598 33.1209 19.958 32.1052 20.6318C31.0994 21.3057 30.0593 21.8086 28.9851 22.1406L28.3992 21.291ZM27.6228 24.7041V23.7227H40.6892V24.7041H34.7566V29.3477H33.6287V24.7041H27.6228ZM43.282 23.5615V16.8818H49.4636V23.5615H43.282ZM44.3953 22.624H48.3504V17.8193H44.3953V22.624ZM48.9656 22.3896V21.4521H52.7888V18.9619H48.9656V18.0244H52.7888V15.959H53.9168V25.9346H52.7888V22.3896H48.9656ZM45.0252 28.8936V24.8652H46.1531V27.8828H54.3562V28.8936H45.0252ZM56.4802 22.917C56.9295 22.7217 57.3689 22.4873 57.7986 22.2139C58.2381 21.9307 58.6531 21.6133 59.0437 21.2617C59.4441 20.9004 59.7713 20.5049 60.0252 20.0752C60.2791 19.6357 60.4207 19.1963 60.45 18.7568V17.7607H57.2273V16.7793H64.8445V17.7607H61.7244V18.6982C61.7732 19.4404 62.1443 20.1387 62.8377 20.793C63.531 21.4473 64.322 21.9795 65.2107 22.3896L64.5808 23.166C63.9363 22.8926 63.2673 22.4678 62.574 21.8916C61.8806 21.3154 61.3923 20.7588 61.1091 20.2217C60.8455 20.7881 60.3474 21.4082 59.615 22.082C58.8826 22.7461 58.0623 23.2881 57.1541 23.708L56.4802 22.917ZM66.5584 24.1035V15.959H67.6863V19.6797H69.4881V20.6904H67.6863V24.1035H66.5584ZM58.5896 26.7256C58.5896 25.9346 59.0144 25.3145 59.864 24.8652C60.7234 24.4062 61.8709 24.1768 63.3064 24.1768C64.7517 24.1768 65.9041 24.4014 66.7634 24.8506C67.6228 25.29 68.0525 25.915 68.0525 26.7256C68.0525 27.5166 67.6179 28.1367 66.7488 28.5859C65.8797 29.0449 64.7322 29.2695 63.3064 29.2598C61.8611 29.25 60.7136 29.0205 59.864 28.5713C59.0144 28.1318 58.5896 27.5166 58.5896 26.7256ZM59.8054 26.7256C59.8054 27.2139 60.1179 27.5947 60.7429 27.8682C61.3679 28.1318 62.2224 28.2637 63.3064 28.2637C64.3513 28.2637 65.2009 28.127 65.8552 27.8535C66.5193 27.5801 66.8513 27.2041 66.8513 26.7256C66.8513 26.2178 66.5291 25.832 65.8845 25.5684C65.24 25.3047 64.3806 25.1729 63.3064 25.1729C62.2322 25.1729 61.3777 25.3096 60.7429 25.583C60.1179 25.8467 59.8054 26.2275 59.8054 26.7256ZM71.5388 21.8477C71.5388 20.3535 71.783 19.1426 72.2713 18.2148C72.7595 17.2871 73.4627 16.8232 74.3806 16.8232C75.2791 16.8232 75.9773 17.2871 76.4754 18.2148C76.9832 19.1328 77.2371 20.3438 77.2371 21.8477C77.2371 23.3418 76.9881 24.5527 76.49 25.4805C76.0017 26.4082 75.2986 26.8721 74.3806 26.8721C73.4529 26.8721 72.7449 26.4131 72.2566 25.4951C71.7781 24.5674 71.5388 23.3516 71.5388 21.8477ZM72.6814 21.8477C72.6814 22.5996 72.7351 23.2686 72.8425 23.8545C72.95 24.4307 73.1306 24.9141 73.3845 25.3047C73.6482 25.6855 73.9802 25.876 74.3806 25.876C74.9666 25.876 75.3963 25.4902 75.6697 24.7188C75.9529 23.9473 76.0945 22.9902 76.0945 21.8477C76.0945 20.6855 75.9529 19.7285 75.6697 18.9766C75.3963 18.2148 74.9666 17.834 74.3806 17.834C73.7947 17.834 73.365 18.2197 73.0916 18.9912C72.8181 19.7529 72.6814 20.7051 72.6814 21.8477ZM78.7459 28.7178V16.3398H79.7713V21.4961H81.7634V15.959H82.8474V29.3184H81.7634V22.5508H79.7713V28.7178H78.7459Z" fill="black"/>
</svg>
