<svg width="108" height="48" viewBox="0 0 108 48" fill="none" xmlns="http://www.w3.org/2000/svg">
<rect x="0.5" y="1" width="107" height="46" rx="9.5" fill="white" stroke="black"/>
<path d="M23.9566 24.0947C25.0601 23.5381 26.022 22.8203 26.8423 21.9414C27.6627 21.0625 28.0728 20.0957 28.0728 19.041V17.9424H29.1714V19.0117C29.1714 19.5586 29.3033 20.0957 29.567 20.623C29.8404 21.1504 30.192 21.6143 30.6216 22.0146C31.0513 22.4053 31.4615 22.7373 31.8521 23.0107C32.2525 23.2744 32.6529 23.5039 33.0533 23.6992L32.3941 24.5049C31.7886 24.2314 31.105 23.7773 30.3433 23.1426C29.5816 22.498 29.0152 21.834 28.6441 21.1504C28.3121 21.8535 27.7554 22.5518 26.9742 23.2451C26.2027 23.9385 25.4361 24.4805 24.6744 24.8711L23.9566 24.0947ZM34.65 25.5156V17.459H35.7779V25.5156H34.65ZM26.4908 27.2295V26.248H35.7779V30.9795H34.65V27.2295H26.4908ZM39.9087 20.0371C39.9087 19.2656 40.3824 18.6797 41.3296 18.2793C42.2769 17.8691 43.4683 17.6641 44.9039 17.6641C45.8121 17.6641 46.6324 17.7471 47.3648 17.9131C48.0972 18.0791 48.7027 18.3477 49.1812 18.7188C49.6695 19.0801 49.9136 19.5195 49.9136 20.0371C49.9136 20.8086 49.4302 21.3994 48.4634 21.8096C47.5064 22.21 46.3199 22.4102 44.9039 22.4102C43.4488 22.4102 42.2525 22.21 41.315 21.8096C40.3775 21.3994 39.9087 20.8086 39.9087 20.0371ZM41.1539 20.0371C41.1539 20.5156 41.525 20.877 42.2671 21.1211C43.0191 21.3652 43.898 21.4873 44.9039 21.4873C45.939 21.4873 46.8228 21.3652 47.5552 21.1211C48.2974 20.8672 48.6685 20.5059 48.6685 20.0371C48.6685 19.5684 48.2974 19.207 47.5552 18.9531C46.813 18.6992 45.9293 18.5723 44.9039 18.5723C44.2984 18.5723 43.7222 18.6211 43.1754 18.7188C42.6285 18.8164 42.1548 18.9824 41.7545 19.2168C41.3541 19.4414 41.1539 19.7148 41.1539 20.0371ZM38.356 25.3105V24.373H41.813V22.498H42.897V24.373H46.9254V22.498H48.0093V24.373H51.4078V25.3105H38.356ZM40.0992 27.8887V26.9512H49.3423V30.9355H48.2144V27.8887H40.0992ZM52.8726 24.0947C54.4449 23.5967 55.8072 22.8984 56.9595 22C58.1216 21.0918 58.7662 20.1641 58.8931 19.2168H53.7076V18.2354H60.1968C60.1871 18.9482 60.0357 19.627 59.7427 20.2715C59.4498 20.9062 59.0787 21.458 58.6295 21.9268C58.1802 22.3857 57.6431 22.8203 57.0181 23.2305C56.4029 23.6406 55.817 23.9775 55.2603 24.2412C54.7037 24.4951 54.1177 24.7246 53.5025 24.9297L52.8726 24.0947ZM62.8629 24.959V17.459H63.9908V20.8721H65.8511V21.8828H63.9908V24.959H62.8629ZM55.1871 30.584V25.7207H63.9761V30.584H55.1871ZM56.315 29.5732H62.8482V26.7314H56.315V29.5732ZM68.9127 25.3252V18.499H76.0611V19.4658H70.0699V21.4727H75.9439V22.3662H70.0699V24.373H76.1636V25.3252H68.9127ZM67.5796 28.6797V27.7275H69.2642C72.5943 27.7275 75.3043 27.6201 77.3941 27.4053V28.3428C75.2554 28.5674 72.5406 28.6797 69.2496 28.6797H67.5796ZM71.9595 28.123V24.9736H73.0875V28.123H71.9595ZM77.9214 30.8184V17.459H79.064V30.8184H77.9214Z" fill="black"/>
</svg>
