<svg width="57" height="47" viewBox="0 0 57 47" fill="none" xmlns="http://www.w3.org/2000/svg">
<rect x="0.5" y="0.5" width="56" height="46" rx="9.5" fill="white" stroke="black"/>
<path d="M16.2979 20.1045C16.2979 19.0791 16.7715 18.2686 17.7188 17.6729C18.6758 17.0771 19.8672 16.7793 21.293 16.7793C22.6992 16.7793 23.8857 17.082 24.8525 17.6875C25.8193 18.2832 26.3027 19.0889 26.3027 20.1045C26.3027 21.1299 25.8193 21.9453 24.8525 22.5508C23.8955 23.1465 22.709 23.4443 21.293 23.4443C19.8477 23.4443 18.6514 23.1416 17.7041 22.5361C16.7666 21.9307 16.2979 21.1201 16.2979 20.1045ZM17.5283 20.1045C17.5283 20.8174 17.8945 21.3936 18.627 21.833C19.3691 22.2725 20.2578 22.4922 21.293 22.4922C22.3477 22.4922 23.2363 22.2725 23.959 21.833C24.6914 21.3838 25.0576 20.8076 25.0576 20.1045C25.0576 19.4111 24.6914 18.8447 23.959 18.4053C23.2363 17.9561 22.3477 17.7314 21.293 17.7314C20.2773 17.7314 19.3936 17.9512 18.6416 18.3906C17.8994 18.8301 17.5283 19.4014 17.5283 20.1045ZM14.7158 27.751V26.7695H20.707V23.21H21.8496V26.7695H27.7822V27.751H14.7158ZM31.1807 17.4385V16.4863H36.0146V17.4385H31.1807ZM29.2617 19.6211V18.6689H37.4648V19.6211H29.2617ZM29.8916 22.5947C29.8916 21.9502 30.2432 21.4473 30.9463 21.0859C31.6592 20.7148 32.5381 20.5293 33.583 20.5293C34.6279 20.5293 35.502 20.71 36.2051 21.0713C36.918 21.4326 37.2744 21.9404 37.2744 22.5947C37.2744 23.2393 36.918 23.7471 36.2051 24.1182C35.502 24.4893 34.6279 24.6748 33.583 24.6748C32.5381 24.6748 31.6592 24.4893 30.9463 24.1182C30.2432 23.7471 29.8916 23.2393 29.8916 22.5947ZM31.0781 22.5947C31.0781 22.9658 31.3174 23.2588 31.7959 23.4736C32.2842 23.6885 32.8799 23.7959 33.583 23.7959C34.2666 23.7959 34.8525 23.6885 35.3408 23.4736C35.8389 23.2588 36.0879 22.9658 36.0879 22.5947C36.0879 22.2041 35.8486 21.9111 35.3701 21.7158C34.8916 21.5107 34.2959 21.4082 33.583 21.4082C32.8701 21.4082 32.2744 21.5156 31.7959 21.7305C31.3174 21.9355 31.0781 22.2236 31.0781 22.5947ZM39.2227 26.2568V15.959H40.3506V20.8076H42.2402V21.8184H40.3506V26.2568H39.2227ZM31.708 29.04V25.6123H32.8359V28.0586H40.8047V29.04H31.708Z" fill="black"/>
</svg>
