<svg width="57" height="47" viewBox="0 0 57 47" fill="none" xmlns="http://www.w3.org/2000/svg">
<rect x="0.5" y="0.5" width="56" height="46" rx="9.5" fill="white" stroke="black"/>
<rect x="0.5" y="0.5" width="56" height="46" rx="9.5" fill="white" stroke="black"/>
<path d="M15.4928 26.6816V25.6562H17.4703V18.3174H15.8004V17.2773H24.2233V18.3174H22.5094V25.5537C23.2613 25.5146 23.9596 25.4658 24.6041 25.4072V26.3887C22.7682 26.584 20.5758 26.6816 18.027 26.6816H15.4928ZM18.5836 25.6562L19.5358 25.6416C19.6627 25.6416 19.9801 25.6367 20.4879 25.627C21.0055 25.6172 21.3082 25.6123 21.3961 25.6123V18.3174H18.5836V25.6562ZM25.7467 29.3184V15.959H26.8893V29.3184H25.7467ZM31.5621 24.4844V20.1777H39.5895V17.8193H31.4742V16.8379H40.7174V21.1299H32.6901V23.4883H40.9957V24.4844H31.5621ZM29.5553 27.9561V26.9746H35.6051V24.0303H36.7623V26.9746H42.6217V27.9561H29.5553Z" fill="black"/>
</svg>
