<svg width="128" height="47" viewBox="0 0 128 47" fill="none" xmlns="http://www.w3.org/2000/svg">
<rect x="0.5" y="0.5" width="127" height="46" rx="9.5" fill="white" stroke="black"/>
<rect x="0.5" y="0.5" width="127" height="46" rx="9.5" fill="white" stroke="black"/>
<path d="M38.9688 17.7314V16.6621H43.627V17.7314H38.9688ZM37.1524 20.5146V19.46H44.96V20.5146H37.1524ZM37.7676 24.6162C37.7676 23.7959 38.0899 23.1221 38.7344 22.5947C39.3887 22.0576 40.2335 21.7891 41.2686 21.7891C42.294 21.7891 43.1339 22.0527 43.7882 22.5801C44.4424 23.1074 44.7696 23.7861 44.7696 24.6162C44.7696 25.4268 44.4424 26.1006 43.7882 26.6377C43.1339 27.1748 42.294 27.4434 41.2686 27.4434C40.2335 27.4434 39.3887 27.1748 38.7344 26.6377C38.0899 26.1006 37.7676 25.4268 37.7676 24.6162ZM38.9249 24.6162C38.9249 25.1436 39.1495 25.5781 39.5987 25.9199C40.0577 26.2617 40.6143 26.4326 41.2686 26.4326C41.8936 26.4326 42.4405 26.2617 42.9092 25.9199C43.378 25.5781 43.6124 25.1436 43.6124 24.6162C43.6124 24.0791 43.3829 23.6445 42.9239 23.3125C42.4747 22.9805 41.9229 22.8145 41.2686 22.8145C40.6046 22.8145 40.0479 22.9805 39.5987 23.3125C39.1495 23.6445 38.9249 24.0791 38.9249 24.6162ZM44.8721 23.4004V22.3311H47.5089V15.959H48.6368V29.3184H47.5089V23.4004H44.8721ZM52.46 26.7549V21.4229H57.6456V18.1416H52.3575V17.1602H58.7296V22.3896H53.5294V25.7734H53.9249C56.0049 25.7734 58.1973 25.6367 60.502 25.3633V26.2715C58.0313 26.5938 55.4923 26.7549 52.8848 26.7549H52.46ZM61.7764 29.3184V15.959H62.919V29.3184H61.7764ZM67.5772 21.6572V16.3545H76.8936V17.248H68.7491V18.5957H76.7911V19.4014H68.7491V20.7783H76.9962V21.6572H67.5772ZM65.5997 24.0742V23.1953H71.6202V21.335H72.7481V23.1953H78.6514V24.0742H65.5997ZM67.2257 27.209C67.2257 26.5352 67.6651 26.0225 68.544 25.6709C69.4229 25.3193 70.6241 25.1436 72.1475 25.1436C73.671 25.1436 74.8819 25.3193 75.7803 25.6709C76.6885 26.0127 77.1426 26.5254 77.1426 27.209C77.1426 27.873 76.6885 28.3809 75.7803 28.7324C74.8819 29.084 73.671 29.2598 72.1475 29.2598C70.6046 29.2598 69.3985 29.084 68.5294 28.7324C67.6602 28.3906 67.2257 27.8828 67.2257 27.209ZM68.4854 27.209C68.4854 27.9707 69.711 28.3516 72.1622 28.3516C73.2657 28.3516 74.1641 28.2539 74.8575 28.0586C75.5508 27.873 75.8975 27.5898 75.8975 27.209C75.8975 26.4375 74.6524 26.0518 72.1622 26.0518C71.0294 26.0518 70.1309 26.1494 69.4669 26.3447C68.8126 26.5303 68.4854 26.8184 68.4854 27.209ZM81.0538 20.6025C82.1866 20.3486 83.2608 19.9531 84.2764 19.416C85.3018 18.8789 85.8536 18.3125 85.9317 17.7168V17.2773H81.8887V16.3398H91.2784V17.2773H87.2794V17.7168C87.3184 18.127 87.6114 18.5371 88.1583 18.9473C88.7149 19.3477 89.3399 19.6846 90.0333 19.958C90.7266 20.2314 91.42 20.4414 92.1133 20.5879L91.6299 21.4082C90.6241 21.2031 89.6329 20.8564 88.6563 20.3682C87.6895 19.8799 87.001 19.3574 86.5909 18.8008C86.21 19.3184 85.5411 19.8213 84.584 20.3096C83.6368 20.7979 82.626 21.1738 81.5518 21.4375L81.0538 20.6025ZM80.0137 23.2539V22.3018H93.0655V23.2539H80.0137ZM81.6544 26.9014C81.6544 26.1592 82.0938 25.5879 82.9727 25.1875C83.8614 24.7773 85.0577 24.5723 86.5616 24.5723C88.0655 24.5723 89.2667 24.7725 90.1651 25.1729C91.0635 25.5732 91.5128 26.1494 91.5128 26.9014C91.5128 27.6436 91.0587 28.2197 90.1505 28.6299C89.2423 29.04 88.046 29.2402 86.5616 29.2305C85.0382 29.2207 83.837 29.0156 82.9581 28.6152C82.0889 28.2148 81.6544 27.6436 81.6544 26.9014ZM82.8995 26.9014C82.8995 27.3506 83.2217 27.6924 83.8663 27.9268C84.5206 28.1611 85.419 28.2783 86.5616 28.2783C87.6553 28.2783 88.5489 28.1562 89.2423 27.9121C89.9356 27.668 90.2823 27.3311 90.2823 26.9014C90.2823 26.4424 89.9454 26.1006 89.2715 25.876C88.5977 25.6416 87.6944 25.5244 86.5616 25.5244C85.4288 25.5244 84.5352 25.6416 83.8809 25.876C83.2266 26.1104 82.8995 26.4521 82.8995 26.9014Z" fill="black"/>
</svg>
