<svg width="37" height="58" viewBox="0 0 37 58" fill="none" xmlns="http://www.w3.org/2000/svg">
<path d="M0.802734 16.5742C1.85091 11.6979 3.90169 7.84701 6.95508 5.02148C10.0085 2.19596 13.9733 0.783203 18.8496 0.783203C24.0449 0.783203 28.306 2.28711 31.6328 5.29492C34.9596 8.30273 36.623 12.3132 36.623 17.3262C36.623 20.6074 35.8711 23.5469 34.3672 26.1445C32.9089 28.7422 30.8125 31.3626 28.0781 34.0059C27.6224 34.4616 26.3691 35.6693 24.3184 37.6289C22.3132 39.543 20.5814 41.3659 19.123 43.0977C17.6647 44.8294 16.3887 46.6979 15.2949 48.7031H36.3496V58H1.48633C1.48633 55.5391 1.85091 53.1237 2.58008 50.7539C3.30924 48.3841 4.12956 46.3333 5.04102 44.6016C5.99805 42.8242 7.31966 40.9102 9.00586 38.8594C10.7376 36.8086 12.1732 35.1908 13.3125 34.0059C14.4974 32.821 16.0697 31.3171 18.0293 29.4941C18.5762 28.9928 18.9863 28.6055 19.2598 28.332C22.9967 24.7773 24.8652 21.0176 24.8652 17.0527C24.8652 14.9108 24.2956 13.2246 23.1562 11.9941C22.0625 10.7637 20.6042 10.1484 18.7812 10.1484C14.5885 10.1484 11.7858 13.2474 10.373 19.4453L0.802734 16.5742Z" fill="black"/>
</svg>
