<svg width="40" height="60" viewBox="0 0 40 60" fill="none" xmlns="http://www.w3.org/2000/svg">
<path d="M0.708984 45.6953L9.73242 42.4141C11.6465 47.4271 14.8594 49.9336 19.3711 49.9336C21.6042 49.9336 23.4727 49.2044 24.9766 47.7461C26.526 46.2422 27.3008 44.237 27.3008 41.7305C27.3008 39.4518 26.4577 37.5378 24.7715 35.9883C23.1309 34.4388 20.9206 33.6641 18.1406 33.6641C16.3177 33.6641 14.4948 33.7552 12.6719 33.9375V24.709C13.9935 24.8001 15.7253 24.8457 17.8672 24.8457C19.918 24.8457 21.6953 24.1849 23.1992 22.8633C24.7031 21.4961 25.4551 19.6048 25.4551 17.1895C25.4551 15.0931 24.8171 13.4069 23.541 12.1309C22.3105 10.8092 20.7611 10.1484 18.8926 10.1484C15.2923 10.1484 12.6947 12.7233 11.0996 17.873L1.87109 15.0703C2.82812 10.7865 4.85612 7.3457 7.95508 4.74805C11.054 2.10482 14.9277 0.783203 19.5762 0.783203C24.9082 0.783203 29.1693 2.21875 32.3594 5.08984C35.5495 7.96094 37.1445 11.6296 37.1445 16.0957C37.1445 18.8301 36.4837 21.3138 35.1621 23.5469C33.8861 25.7344 32.2454 27.4206 30.2402 28.6055C32.61 29.5169 34.6836 31.112 36.4609 33.3906C38.2383 35.6693 39.127 38.4492 39.127 41.7305C39.127 47.1536 37.3496 51.4375 33.7949 54.582C30.2402 57.681 25.4779 59.2305 19.5078 59.2305C14.6315 59.2305 10.5072 57.9089 7.13477 55.2656C3.76237 52.6224 1.62044 49.4323 0.708984 45.6953Z" fill="black"/>
</svg>
