<svg width="116" height="48" viewBox="0 0 116 48" fill="none" xmlns="http://www.w3.org/2000/svg">
<rect x="0.5" y="1" width="115" height="46" rx="9.5" fill="white" stroke="black"/>
<path d="M32.5024 27.2275V18.2773H38.7279V19.2588H33.6156V26.2461H34.1137C35.9301 26.2461 37.9272 26.0996 40.1049 25.8066V26.7441C37.9174 27.0664 35.5737 27.2275 33.0737 27.2275H32.5024ZM41.2621 30.3184V16.959H42.4047V30.3184H41.2621ZM46.1987 22.8477C46.1987 21.3242 46.4916 20.084 47.0776 19.127C47.6733 18.1602 48.4887 17.6768 49.5238 17.6768C50.5492 17.6768 51.3598 18.1553 51.9555 19.1123C52.561 20.0693 52.8637 21.3145 52.8637 22.8477C52.8637 24.3711 52.5658 25.6162 51.9701 26.583C51.3842 27.5498 50.5688 28.0332 49.5238 28.0332C48.4692 28.0332 47.6488 27.5498 47.0629 26.583C46.4867 25.6162 46.1987 24.3711 46.1987 22.8477ZM47.3559 22.8477C47.3559 24.0488 47.5365 25.0449 47.8979 25.8359C48.269 26.6172 48.811 27.0078 49.5238 27.0078C50.2367 27.0078 50.7738 26.6074 51.1352 25.8066C51.5063 25.0059 51.6918 24.0195 51.6918 22.8477C51.6918 21.6562 51.5063 20.665 51.1352 19.874C50.7738 19.083 50.2367 18.6875 49.5238 18.6875C49.0356 18.6875 48.6205 18.8926 48.2787 19.3027C47.9467 19.7129 47.7074 20.2207 47.561 20.8262C47.4242 21.4316 47.3559 22.1055 47.3559 22.8477ZM52.2485 23.3164V22.2471H55.9838V16.959H57.1117V30.3184H55.9838V23.3164H52.2485ZM60.4809 24.0049C61.0473 23.7803 61.6235 23.4775 62.2094 23.0967C62.8051 22.7061 63.3666 22.2715 63.894 21.793C64.4311 21.3047 64.8656 20.7676 65.1977 20.1816C65.5395 19.5859 65.7104 19.0146 65.7104 18.4678V17.75H66.8383V18.4678C66.8383 19.0146 67.0141 19.5859 67.3656 20.1816C67.7172 20.7773 68.1615 21.3145 68.6987 21.793C69.2455 22.2715 69.807 22.7012 70.3832 23.082C70.9692 23.4531 71.5209 23.7461 72.0385 23.9609L71.394 24.7959C70.4467 24.3955 69.4555 23.7754 68.4203 22.9355C67.3949 22.0957 66.6772 21.2461 66.267 20.3867C65.8764 21.2266 65.1781 22.0664 64.1723 22.9062C63.1664 23.7363 62.1557 24.3809 61.1401 24.8398L60.4809 24.0049ZM59.7045 28.6338V27.6523H72.7709V28.6338H59.7045ZM74.8656 24.5469C76.0278 24.2051 77.0727 23.7705 78.0004 23.2432C78.9379 22.7061 79.6459 22.1494 80.1244 21.5732H75.2026V20.665H80.725C81.1156 20.0205 81.3403 19.4199 81.3988 18.8633H75.6127V17.8965H82.6C82.561 18.9316 82.3266 19.8838 81.8969 20.7529C81.4672 21.6123 80.8959 22.3398 80.183 22.9355C79.4799 23.5215 78.7377 24.0098 77.9565 24.4004C77.1752 24.791 76.3354 25.1133 75.4369 25.3672L74.8656 24.5469ZM84.8266 26.876V16.959H85.9545V26.876H84.8266ZM77.1069 29.9082V26.085H78.2348V28.8975H86.4086V29.9082H77.1069Z" fill="black"/>
</svg>
