<svg width="57" height="47" viewBox="0 0 57 47" fill="none" xmlns="http://www.w3.org/2000/svg">
<rect x="0.5" y="0.5" width="56" height="46" rx="9.5" fill="white" stroke="black"/>
<path d="M14.7598 21.8184C15.2188 21.6133 15.6533 21.374 16.0635 21.1006C16.4834 20.8271 16.8984 20.5 17.3086 20.1191C17.7285 19.7383 18.0605 19.2988 18.3047 18.8008C18.5586 18.293 18.6855 17.7656 18.6855 17.2188V16.1348H19.7988V17.2041C19.7988 17.7021 19.916 18.1904 20.1504 18.6689C20.3848 19.1377 20.6875 19.5527 21.0586 19.9141C21.4395 20.2754 21.8252 20.5879 22.2158 20.8516C22.6064 21.1055 23.002 21.3252 23.4023 21.5107L22.7578 22.3018C22.1523 22.0576 21.4932 21.6426 20.7803 21.0566C20.0674 20.4707 19.5596 19.8848 19.2568 19.2988C18.9443 19.9238 18.4219 20.5439 17.6895 21.1592C16.957 21.7646 16.21 22.248 15.4482 22.6094L14.7598 21.8184ZM22.333 19.4307V18.4346H25.5264V15.959H26.6543V22.5801H25.5264V19.4307H22.333ZM17.3965 29.084V25.583H25.5264V24.0449H17.2939V23.0488H26.6543V26.4912H18.5244V28.1025H27.0352V29.084H17.3965ZM28.7637 26.6084C29.4473 26.0713 30.0674 25.4609 30.624 24.7773C31.1807 24.0938 31.6689 23.2246 32.0889 22.1699C32.5088 21.1152 32.7188 20.0166 32.7188 18.874V16.6914H33.8174V18.8301C33.8174 19.6895 33.9443 20.5293 34.1982 21.3496C34.4619 22.1699 34.8037 22.8877 35.2236 23.5029C35.6436 24.1182 36.0391 24.6357 36.4102 25.0557C36.7812 25.4658 37.1572 25.8223 37.5381 26.125L36.7324 26.8721C36.1758 26.4229 35.5459 25.7295 34.8428 24.792C34.1396 23.8447 33.6318 22.9023 33.3193 21.9648C33.0654 22.9023 32.5771 23.8789 31.8545 24.8945C31.1318 25.9004 30.4043 26.7109 29.6719 27.3262L28.7637 26.6084ZM38.9297 29.3184V15.959H40.0576V21.7598H42.3281V22.8291H40.0576V29.3184H38.9297Z" fill="black"/>
</svg>
