<svg width="307" height="126" viewBox="0 0 307 126" fill="none" xmlns="http://www.w3.org/2000/svg">
<path d="M72.375 64.7578V46.6719H74.2305V64.7578H72.375ZM59.5625 54.6602C59.5625 52.5898 59.9661 50.9036 60.7734 49.6016C61.5938 48.2995 62.7201 47.6484 64.1523 47.6484C65.5586 47.6484 66.6719 48.2995 67.4922 49.6016C68.3255 50.8906 68.7422 52.5768 68.7422 54.6602C68.7422 56.7435 68.3385 58.4362 67.5312 59.7383C66.724 61.0273 65.5977 61.6719 64.1523 61.6719C62.707 61.6719 61.5807 61.0208 60.7734 59.7188C59.9661 58.4167 59.5625 56.7305 59.5625 54.6602ZM61.4375 54.6602C61.4375 56.2096 61.6654 57.4922 62.1211 58.5078C62.5768 59.5234 63.2539 60.0312 64.1523 60.0312C65.0508 60.0312 65.7279 59.5234 66.1836 58.5078C66.6393 57.4792 66.8672 56.1966 66.8672 54.6602C66.8672 53.1107 66.6393 51.8346 66.1836 50.832C65.7279 49.8164 65.0508 49.3086 64.1523 49.3086C63.2409 49.3086 62.5573 49.8229 62.1016 50.8516C61.6589 51.8672 61.4375 53.1367 61.4375 54.6602ZM81.6523 64.3672V59.3086H83.4883V62.7852H94.4062V64.3672H81.6523ZM88.9375 53.3125V51.7109H92.0234V46.6719H93.8594V60.3242H92.0234V53.3125H88.9375ZM79.2891 57.9023V52.043H86.3398V49.2109H79.2109V47.707H88.1367V53.4883H81.0859V56.418H81.6914C84.3607 56.418 86.9648 56.2812 89.5039 56.0078V57.4336C86.6784 57.7461 83.5729 57.9023 80.1875 57.9023H79.2891ZM102.062 62.5703V60.9883H119.719V62.5703H102.062ZM104.699 57.5312V47.8633H106.535V51.0859H115.383V47.8633H117.238V57.5312H104.699ZM106.535 55.9297H115.383V52.6289H106.535V55.9297ZM125.246 64.3477V59.4062H127.062V62.7656H138.195V64.3477H125.246ZM132.199 60.0703V46.9062H133.781V52.5703H136.047V46.6719H137.766V60.5H136.047V54.1914H133.781V60.0703H132.199ZM122.863 57.8242V52.082H128.527V49.3477H122.785V47.8633H130.285V53.5078H124.621V56.3398H125.109C127.31 56.3398 129.426 56.2292 131.457 56.0078V57.4141C128.983 57.6875 126.392 57.8242 123.684 57.8242H122.863ZM140.969 62.5703V60.9883H158.625V62.5703H140.969ZM143.625 56.7305V48.2148H156.203V49.8164H145.48V55.1289H156.301V56.7305H143.625ZM173.41 64.7578V46.6719H175.266V54.3281H178.254V56.1055H175.266V64.7578H173.41ZM160.793 61.0078C163.007 59.5755 164.758 57.8698 166.047 55.8906C167.336 53.8984 167.993 51.9583 168.02 50.0703H161.73V48.4102H169.953C169.953 53.9961 167.329 58.5924 162.082 62.1992L160.793 61.0078ZM190.129 57.8633V56.5742H197.16V57.8633H190.129ZM186.594 60.1484V58.8594H200.695V60.1484H186.594ZM187.902 62.9023C187.902 62.1992 188.443 61.6914 189.523 61.3789C190.604 61.0534 191.978 60.8906 193.645 60.8906C195.311 60.8906 196.685 61.0534 197.766 61.3789C198.859 61.7044 199.406 62.2122 199.406 62.9023C199.406 63.6055 198.859 64.1133 197.766 64.4258C196.672 64.7513 195.298 64.9141 193.645 64.9141C191.978 64.9141 190.604 64.7513 189.523 64.4258C188.443 64.1133 187.902 63.6055 187.902 62.9023ZM189.914 62.9023C189.927 63.4622 191.171 63.7422 193.645 63.7422C196.132 63.7422 197.375 63.4622 197.375 62.9023C197.375 62.3555 196.132 62.082 193.645 62.082C192.564 62.082 191.665 62.1471 190.949 62.2773C190.246 62.3945 189.901 62.6029 189.914 62.9023ZM184.777 55.4023V53.9961H192.707V51.9453H194.562V53.9961H202.414V55.4023H184.777ZM186.047 51.5938C187.414 51.3464 188.768 50.9557 190.109 50.4219C191.451 49.875 192.232 49.3216 192.453 48.7617V48.5078H187.18V47.0234H200.129V48.5078H194.855L194.875 48.7812C195.122 49.3281 195.884 49.875 197.16 50.4219C198.449 50.9557 199.803 51.3594 201.223 51.6328L200.578 52.9219C199.185 52.7005 197.837 52.3099 196.535 51.75C195.233 51.1901 194.27 50.5911 193.645 49.9531C193.085 50.5521 192.173 51.1315 190.91 51.6914C189.66 52.2383 188.28 52.6549 186.77 52.9414L186.047 51.5938ZM217.375 64.7578V46.6719H219.211V54.1133H222.16V55.8711H219.211V64.7578H217.375ZM205.129 54.6602C205.129 52.5898 205.526 50.9036 206.32 49.6016C207.128 48.2995 208.234 47.6484 209.641 47.6484C211.034 47.6484 212.134 48.2995 212.941 49.6016C213.749 50.8906 214.152 52.5768 214.152 54.6602C214.152 56.7435 213.755 58.4362 212.961 59.7383C212.167 61.0273 211.06 61.6719 209.641 61.6719C208.221 61.6719 207.115 61.0273 206.32 59.7383C205.526 58.4362 205.129 56.7435 205.129 54.6602ZM207.004 54.6602C207.004 56.2227 207.225 57.5052 207.668 58.5078C208.111 59.5104 208.768 60.0117 209.641 60.0117C210.24 60.0117 210.741 59.7578 211.145 59.25C211.561 58.7292 211.854 58.0846 212.023 57.3164C212.193 56.5352 212.277 55.6497 212.277 54.6602C212.277 53.1107 212.056 51.8346 211.613 50.832C211.184 49.8164 210.526 49.3086 209.641 49.3086C208.755 49.3086 208.091 49.8229 207.648 50.8516C207.219 51.8672 207.004 53.1367 207.004 54.6602ZM223.664 62.8438V61.2227H227.844V57.2773H229.66V61.2227H235.422V57.2773H237.238V61.2227H241.32V62.8438H223.664ZM225.598 52.1602C225.598 51.2357 225.917 50.4284 226.555 49.7383C227.193 49.0482 228.033 48.5339 229.074 48.1953C230.116 47.8438 231.275 47.668 232.551 47.668C234.491 47.668 236.132 48.0716 237.473 48.8789C238.827 49.6862 239.504 50.7799 239.504 52.1602C239.504 53.5404 238.833 54.6406 237.492 55.4609C236.151 56.2682 234.504 56.6719 232.551 56.6719C230.559 56.6719 228.898 56.2682 227.57 55.4609C226.255 54.6406 225.598 53.5404 225.598 52.1602ZM227.629 52.1602C227.629 53.0716 228.111 53.8008 229.074 54.3477C230.038 54.8815 231.197 55.1484 232.551 55.1484C233.944 55.1484 235.109 54.875 236.047 54.3281C236.997 53.7812 237.473 53.0586 237.473 52.1602C237.473 51.2747 236.997 50.5586 236.047 50.0117C235.096 49.4648 233.931 49.1914 232.551 49.1914C231.223 49.1914 230.07 49.4648 229.094 50.0117C228.117 50.5586 227.629 51.2747 227.629 52.1602ZM244.055 63.1562V60.6758H246.789V63.1562H244.055ZM246.301 58.8398H244.562L244.387 48.0586H246.457L246.301 58.8398Z" fill="black"/>
<path d="M0.210938 93.5234V82.0625H2.67188V82.8125H1.125V92.7852H2.67188V93.5234H0.210938ZM4.86328 87.0781C4.86328 85.8594 5.09375 84.8672 5.55469 84.1016C6.02344 83.3359 6.66797 82.9531 7.48828 82.9531C8.30078 82.9531 8.94141 83.3359 9.41016 84.1016C9.88672 84.8672 10.125 85.8594 10.125 87.0781C10.125 88.2891 9.89062 89.2773 9.42188 90.043C8.96094 90.8086 8.31641 91.1914 7.48828 91.1914C6.65234 91.1914 6.00391 90.8125 5.54297 90.0547C5.08984 89.2891 4.86328 88.2969 4.86328 87.0781ZM5.78906 87.0781C5.78906 88.0312 5.92969 88.8203 6.21094 89.4453C6.5 90.0625 6.92578 90.3711 7.48828 90.3711C8.05078 90.3711 8.47656 90.0547 8.76562 89.4219C9.05469 88.7891 9.19922 88.0078 9.19922 87.0781C9.19922 86.1328 9.05469 85.3477 8.76562 84.7227C8.47656 84.0898 8.05078 83.7734 7.48828 83.7734C6.92578 83.7734 6.5 84.0938 6.21094 84.7344C5.92969 85.3672 5.78906 86.1484 5.78906 87.0781ZM12.1992 93.0547V82.3672H13.1016V86.8438H14.9062V87.7109H13.1016V93.0547H12.1992ZM16.6055 87.0781C16.6055 85.8594 16.8398 84.8672 17.3086 84.1016C17.7852 83.3359 18.4414 82.9531 19.2773 82.9531C20.0977 82.9531 20.75 83.3359 21.2344 84.1016C21.7188 84.8672 21.9609 85.8594 21.9609 87.0781C21.9609 88.2891 21.7227 89.2812 21.2461 90.0547C20.7695 90.8203 20.1133 91.2031 19.2773 91.2031C18.4336 91.2031 17.7773 90.8203 17.3086 90.0547C16.8398 89.2891 16.6055 88.2969 16.6055 87.0781ZM17.5312 87.0781C17.5312 88.0312 17.6797 88.8203 17.9766 89.4453C18.2734 90.0703 18.707 90.3828 19.2773 90.3828C19.8477 90.3828 20.2812 90.0664 20.5781 89.4336C20.875 88.793 21.0234 88.0078 21.0234 87.0781C21.0234 86.1328 20.875 85.3477 20.5781 84.7227C20.2891 84.0898 19.8555 83.7734 19.2773 83.7734C18.6992 83.7734 18.2617 84.0938 17.9648 84.7344C17.6758 85.3672 17.5312 86.1484 17.5312 87.0781ZM24.293 93.0547V82.3672H25.207V93.0547H24.293ZM28.6406 90.582V83.4219H33.6211V84.207H29.5312V89.7969H29.9297C31.3828 89.7969 32.9805 89.6797 34.7227 89.4453V90.1953C32.9727 90.4531 31.0977 90.582 29.0977 90.582H28.6406ZM35.6484 93.0547V82.3672H36.5625V93.0547H35.6484ZM39.4688 92.7852H41.0156V82.8125H39.4688V82.0625H41.9297V93.5234H39.4688V92.7852ZM45.2227 86.9844V82.8828H46.1133V86.2109H46.4297C48.1328 86.2109 49.9688 86.0742 51.9375 85.8008V86.5508C50.0391 86.8398 47.9609 86.9844 45.7031 86.9844H45.2227ZM52.793 88.0859V82.3672H53.6953V88.0859H52.793ZM46.4648 92.8555V88.7891H53.6953V92.8555H46.4648ZM47.3672 92.0352H52.793V89.6094H47.3672V92.0352ZM56.5195 87.0781C56.5195 85.8594 56.7539 84.8672 57.2227 84.1016C57.6992 83.3359 58.3555 82.9531 59.1914 82.9531C60.0117 82.9531 60.6641 83.3359 61.1484 84.1016C61.6328 84.8672 61.875 85.8594 61.875 87.0781C61.875 88.2891 61.6367 89.2812 61.1602 90.0547C60.6836 90.8203 60.0273 91.2031 59.1914 91.2031C58.3477 91.2031 57.6914 90.8203 57.2227 90.0547C56.7539 89.2891 56.5195 88.2969 56.5195 87.0781ZM57.4453 87.0781C57.4453 88.0312 57.5938 88.8203 57.8906 89.4453C58.1875 90.0703 58.6211 90.3828 59.1914 90.3828C59.7617 90.3828 60.1953 90.0664 60.4922 89.4336C60.7891 88.793 60.9375 88.0078 60.9375 87.0781C60.9375 86.1328 60.7891 85.3477 60.4922 84.7227C60.2031 84.0898 59.7695 83.7734 59.1914 83.7734C58.6133 83.7734 58.1758 84.0938 57.8789 84.7344C57.5898 85.3672 57.4453 86.1484 57.4453 87.0781ZM64.207 93.0547V82.3672H65.1211V93.0547H64.207ZM70.207 88.3438C70.5898 88.1328 70.9492 87.8945 71.2852 87.6289C71.6211 87.3633 71.957 87.0469 72.293 86.6797C72.6289 86.3125 72.8945 85.8867 73.0898 85.4023C73.2852 84.9102 73.3828 84.3984 73.3828 83.8672V82.7188H74.2734V83.8555C74.2734 84.3477 74.3672 84.8242 74.5547 85.2852C74.7422 85.7461 74.9844 86.1523 75.2812 86.5039C75.5859 86.8555 75.8984 87.1602 76.2188 87.418C76.5391 87.6758 76.8633 87.8945 77.1914 88.0742L76.6406 88.6836C76.1484 88.4414 75.6133 88.0352 75.0352 87.4648C74.4648 86.8945 74.0664 86.3398 73.8398 85.8008C73.6055 86.3789 73.1914 86.9609 72.5977 87.5469C72.0117 88.1328 71.4102 88.6055 70.793 88.9648L70.207 88.3438ZM76.3242 85.8125V85.0156H78.7852V82.3672H79.6875V90.2422H78.7852V85.8125H76.3242ZM72.5977 92.7266V89.4219H73.5V91.918H80.0977V92.7266H72.5977ZM84.4922 83.5391V82.7656H89.4609V83.5391H84.4922ZM82.5234 85.5078V84.7461H91.418V85.5078H82.5234ZM83.2734 88.0625C83.2734 87.5 83.6094 87.082 84.2812 86.8086C84.9609 86.5273 85.8594 86.3867 86.9766 86.3867C88.0547 86.3867 88.9414 86.5273 89.6367 86.8086C90.332 87.0898 90.6797 87.5078 90.6797 88.0625C90.6797 88.625 90.3359 89.0508 89.6484 89.3398C88.9609 89.6211 88.0703 89.7617 86.9766 89.7617C85.8594 89.7617 84.9609 89.6211 84.2812 89.3398C83.6094 89.0586 83.2734 88.6328 83.2734 88.0625ZM84.293 88.0625C84.293 88.7266 85.1875 89.0586 86.9766 89.0586C88.7656 89.0586 89.6602 88.7266 89.6602 88.0625C89.6602 87.4062 88.7656 87.0781 86.9766 87.0781C85.1875 87.0781 84.293 87.4062 84.293 88.0625ZM81.7148 92.1055V91.3203H86.5078V89.3867H87.4336V91.3203H92.168V92.1055H81.7148ZM94.9336 83.7969V82.9531H98.6953V83.7969H94.9336ZM93.4688 86.0234V85.1797H99.7734V86.0234H93.4688ZM93.9727 89.2695C93.9727 88.6133 94.2344 88.0781 94.7578 87.6641C95.2812 87.2422 95.9609 87.0312 96.7969 87.0312C97.625 87.0312 98.3008 87.2422 98.8242 87.6641C99.3555 88.0781 99.6211 88.6172 99.6211 89.2812C99.6211 89.9297 99.3594 90.4648 98.8359 90.8867C98.3125 91.3086 97.6328 91.5195 96.7969 91.5195C95.9609 91.5195 95.2812 91.3086 94.7578 90.8867C94.2344 90.457 93.9727 89.918 93.9727 89.2695ZM94.8984 89.2695C94.8984 89.6836 95.082 90.0273 95.4492 90.3008C95.8242 90.5742 96.2734 90.7109 96.7969 90.7109C97.3047 90.7109 97.7461 90.5781 98.1211 90.3125C98.5039 90.0391 98.6953 89.6914 98.6953 89.2695C98.6953 88.8398 98.5078 88.4961 98.1328 88.2383C97.7656 87.9727 97.3203 87.8398 96.7969 87.8398C96.2656 87.8398 95.8164 87.9727 95.4492 88.2383C95.082 88.5039 94.8984 88.8477 94.8984 89.2695ZM101.227 93.0547V82.3672H102.129V87.3711H103.91V88.2148H102.129V93.0547H101.227ZM106.441 85.9648V82.5547H107.344V85.2031H113.988V85.9648H106.441ZM104.789 88.5078V87.7578H115.23V88.5078H104.789ZM106.465 92.7031V89.4102H107.367V91.8945H114.047V92.7031H106.465ZM119.156 88.0039C119.883 87.5273 120.512 86.9219 121.043 86.1875C121.582 85.4531 121.852 84.6719 121.852 83.8438V82.8008H122.742V83.832C122.742 84.5586 123.008 85.2617 123.539 85.9414C124.07 86.6133 124.621 87.1328 125.191 87.5L124.629 88.0977C124.207 87.8086 123.762 87.418 123.293 86.9258C122.832 86.4258 122.516 85.9609 122.344 85.5312C122.164 86.0469 121.816 86.5977 121.301 87.1836C120.793 87.7695 120.281 88.2422 119.766 88.6016L119.156 88.0039ZM125.508 88.6719V82.5078H126.305V85.2617H127.898V82.3672H128.754V89.0938H127.898V86.0586H126.305V88.6719H125.508ZM121.137 91.0625C121.137 90.4531 121.488 89.9805 122.191 89.6445C122.895 89.3008 123.844 89.1289 125.039 89.1289C126.242 89.1289 127.199 89.2969 127.91 89.6328C128.621 89.9609 128.977 90.4375 128.977 91.0625C128.977 91.6719 128.613 92.1484 127.887 92.4922C127.168 92.8359 126.219 93.0039 125.039 92.9961C123.828 92.9883 122.875 92.8164 122.18 92.4805C121.484 92.1445 121.137 91.6719 121.137 91.0625ZM122.121 91.0625C122.121 91.4375 122.379 91.7266 122.895 91.9297C123.41 92.125 124.125 92.2227 125.039 92.2227C125.914 92.2227 126.625 92.1211 127.172 91.918C127.727 91.707 128.004 91.4219 128.004 91.0625C128.004 90.6719 127.734 90.3828 127.195 90.1953C126.664 90 125.945 89.9023 125.039 89.9023C124.133 89.9023 123.418 90.0039 122.895 90.207C122.379 90.4023 122.121 90.6875 122.121 91.0625ZM131.801 91.0039V86.7383H135.949V84.1133H131.719V83.3281H136.816V87.5117H132.656V90.2188H132.973C134.637 90.2188 136.391 90.1094 138.234 89.8906V90.6172C136.258 90.875 134.227 91.0039 132.141 91.0039H131.801ZM139.254 93.0547V82.3672H140.168V93.0547H139.254ZM143.391 90.5117V83.457H147.27V84.2422H144.27V89.7383H144.457C145.402 89.7383 146.5 89.6602 147.75 89.5039V90.2422C146.359 90.4219 145.008 90.5117 143.695 90.5117H143.391ZM148.336 92.5742V82.6719H149.156V86.7617H150.961V82.3672H151.84V93.0547H150.961V87.6172H149.156V92.5742H148.336ZM158.367 88.7188V83.0586H159.27V85.0508H164.789V83.0586H165.703V88.7188H158.367ZM159.27 87.9219H164.789V85.8359H159.27V87.9219ZM156.762 91.707V90.9219H167.215V91.707H156.762ZM169.125 88.8945V85.625H172.605V83.8438H169.078V83.1055H173.484V86.3281H170.004V88.1562H170.297C171.672 88.1562 172.984 88.0859 174.234 87.9453V88.6484C172.758 88.8125 171.215 88.8945 169.605 88.8945H169.125ZM174.727 90.2891V82.5078H175.5V85.9531H177.012V82.3672H177.867V90.5703H177.012V86.75H175.5V90.2891H174.727ZM170.543 92.7852V89.9258H171.445V92H178.137V92.7852H170.543ZM181.453 88.2266V83.293H188.824V84.0898H182.355V87.4297H188.871V88.2266H181.453ZM179.824 91.707V90.9219H190.277V91.707H179.824ZM192.926 86.3867V84.1484H199.395V83.2344H192.855V82.5547H200.309V84.7695H193.84V85.707H200.566V86.3867H192.926ZM191.367 88.0039V87.3242H201.809V88.0039H191.367ZM192.949 92.8672V90.5703H199.395V89.6562H192.867V88.9648H200.297V91.2031H193.852V92.1758H200.602V92.8672H192.949ZM207.434 88.2148V83.1875H214.711V88.2148H207.434ZM208.348 87.4297H213.82V83.9609H208.348V87.4297ZM205.816 91.8008V91.0156H210.609V87.7461H211.535V91.0156H216.27V91.8008H205.816ZM219.012 86.9609V82.8477H226.324V83.6211H219.914V86.1875H226.383V86.9609H219.012ZM217.348 89.5742V88.7773H227.801V89.5742H223.055V93.0781H222.152V89.5742H217.348ZM233.25 83.8203V83.0117H236.602V83.8203H233.25ZM231.914 90.9922C232.508 90.5938 233.074 90.0078 233.613 89.2344C234.16 88.4609 234.434 87.6758 234.434 86.8789V85.8242H232.301V85.0273H237.363V85.8242H235.359V86.8555C235.359 87.5508 235.582 88.2539 236.027 88.9648C236.473 89.668 236.953 90.2305 237.469 90.6523L236.859 91.2031C236.555 90.9531 236.199 90.5781 235.793 90.0781C235.395 89.5703 235.102 89.0859 234.914 88.625C234.742 89.0938 234.41 89.625 233.918 90.2188C233.426 90.8125 232.973 91.2578 232.559 91.5547L231.914 90.9922ZM240.562 93.0547V82.3672H241.418V93.0547H240.562ZM236.766 88.2031V87.3477H238.371V82.6719H239.18V92.5742H238.371V88.2031H236.766ZM244.711 87.6289V86.8203H251.391C251.477 85.8906 251.52 85.0352 251.52 84.2539H244.91V83.4453H252.434C252.434 86.2266 252.18 88.7812 251.672 91.1094H250.746C250.988 90.0781 251.176 88.918 251.309 87.6289H244.711ZM243.34 91.5781V90.793H253.793V91.5781H243.34ZM256.359 83.8906V83.0469H259.617V83.8906H256.359ZM255.152 86.0234V85.2031H260.52V86.0234H255.152ZM255.527 89.2109C255.527 88.5781 255.754 88.0586 256.207 87.6523C256.66 87.2383 257.242 87.0312 257.953 87.0312C258.664 87.0312 259.246 87.2383 259.699 87.6523C260.152 88.0664 260.379 88.5898 260.379 89.2227C260.379 89.8477 260.152 90.3711 259.699 90.793C259.246 91.207 258.664 91.4141 257.953 91.4141C257.242 91.4141 256.66 91.2031 256.207 90.7812C255.754 90.3594 255.527 89.8359 255.527 89.2109ZM256.43 89.2109C256.43 89.6016 256.574 89.9336 256.863 90.207C257.152 90.4727 257.516 90.6055 257.953 90.6055C258.375 90.6055 258.734 90.4727 259.031 90.207C259.328 89.9336 259.477 89.6016 259.477 89.2109C259.477 88.8125 259.332 88.4844 259.043 88.2266C258.754 87.9609 258.391 87.8281 257.953 87.8281C257.508 87.8281 257.141 87.9609 256.852 88.2266C256.57 88.4922 256.43 88.8203 256.43 89.2109ZM261.375 92.5742V82.6719H262.184V87.0898H263.648V82.3672H264.504V93.0547H263.648V87.9453H262.184V92.5742H261.375ZM270.164 87.0312C270.578 86.9062 270.992 86.7539 271.406 86.5742C271.828 86.3945 272.242 86.1836 272.648 85.9414C273.055 85.6914 273.391 85.4102 273.656 85.0977C273.922 84.7773 274.066 84.457 274.09 84.1367V83.6328H270.844V82.8477H278.355V83.6328H275.133V84.1367C275.164 84.5586 275.402 84.9766 275.848 85.3906C276.301 85.7969 276.805 86.1328 277.359 86.3984C277.922 86.6641 278.484 86.8711 279.047 87.0195L278.625 87.6641C277.812 87.4453 277.02 87.1055 276.246 86.6445C275.473 86.1758 274.93 85.6875 274.617 85.1797C274.328 85.6562 273.805 86.1289 273.047 86.5977C272.289 87.0586 271.473 87.4258 270.598 87.6992L270.164 87.0312ZM269.332 89.3633V88.5781H279.785V89.3633H275.039V93.0781H274.137V89.3633H269.332ZM280.664 90.8164C282.438 89.207 283.324 87.2148 283.324 84.8398V83.0352H284.215V84.8047C284.215 85.6562 284.355 86.4805 284.637 87.2773C284.918 88.0742 285.223 88.7109 285.551 89.1875C285.887 89.6562 286.246 90.0664 286.629 90.418L285.961 90.9688C285.594 90.6562 285.18 90.1367 284.719 89.4102C284.266 88.6836 283.957 88.0156 283.793 87.4062C283.637 88.0469 283.328 88.7344 282.867 89.4688C282.406 90.1953 281.91 90.8242 281.379 91.3555L280.664 90.8164ZM289.535 93.0547V82.3672H290.402V93.0547H289.535ZM285.492 87.125V86.2812H287.273V82.6719H288.105V92.5742H287.273V87.125H285.492ZM293.578 85.6016C293.578 84.7969 293.965 84.1602 294.738 83.6914C295.52 83.2227 296.492 82.9883 297.656 82.9883C298.391 82.9883 299.062 83.0898 299.672 83.293C300.289 83.4883 300.785 83.7891 301.16 84.1953C301.543 84.5938 301.734 85.0625 301.734 85.6016C301.734 86.4062 301.344 87.043 300.562 87.5117C299.781 87.9805 298.812 88.2148 297.656 88.2148C296.477 88.2148 295.5 87.9805 294.727 87.5117C293.961 87.0352 293.578 86.3984 293.578 85.6016ZM294.574 85.6016C294.574 86.1562 294.879 86.6055 295.488 86.9492C296.098 87.2852 296.82 87.4531 297.656 87.4531C298.516 87.4531 299.242 87.2812 299.836 86.9375C300.438 86.5938 300.738 86.1484 300.738 85.6016C300.738 85.0547 300.438 84.6094 299.836 84.2656C299.234 83.9219 298.508 83.75 297.656 83.75C296.836 83.75 296.117 83.9219 295.5 84.2656C294.883 84.6094 294.574 85.0547 294.574 85.6016ZM292.395 91.8711V91.0859H294.926V88.6367H295.816V91.0859H299.484V88.6367H300.375V91.0859H302.848V91.8711H292.395ZM304.746 92V90.6055H306.223V92H304.746ZM10.582 109V100.223H15.9023V101.02H11.5195V104.184H15.457V104.969H11.5195V109H10.582ZM17.2852 109V100.223H22.7695V101.02H18.2227V104.066H22.3242V104.852H18.2227V108.203H22.8633V109H17.2852ZM24.5508 109V100.223H30.0352V101.02H25.4883V104.066H29.5898V104.852H25.4883V108.203H30.1289V109H24.5508ZM31.8164 109V100.223H32.7539V108.203H36.9258V109H31.8164ZM38.2383 109V100.223H43.5586V101.02H39.1758V104.184H43.1133V104.969H39.1758V109H38.2383ZM45.8789 104.406H48.2461C48.832 104.406 49.2812 104.25 49.5938 103.938C49.9141 103.625 50.0742 103.211 50.0742 102.695C50.0742 102.195 49.9062 101.793 49.5703 101.488C49.2422 101.176 48.7695 101.02 48.1523 101.02H45.8789V104.406ZM44.9414 109V100.223H48.3633C49.2227 100.223 49.8828 100.457 50.3438 100.926C50.8047 101.387 51.0352 101.957 51.0352 102.637C51.0352 103.254 50.8789 103.754 50.5664 104.137C50.2539 104.52 49.9102 104.762 49.5352 104.863C49.8633 105.035 50.1016 105.246 50.25 105.496C50.3984 105.746 50.5195 106.094 50.6133 106.539C50.7148 106.977 50.7852 107.277 50.8242 107.441C50.8711 107.598 50.9492 107.824 51.0586 108.121C51.1758 108.418 51.3164 108.711 51.4805 109H50.4258C50.293 108.75 50.1719 108.484 50.0625 108.203C49.9609 107.914 49.8867 107.68 49.8398 107.5C49.793 107.312 49.7227 107.016 49.6289 106.609C49.5273 106.172 49.3711 105.828 49.1602 105.578C48.957 105.328 48.6289 105.203 48.1758 105.203H45.8789V109H44.9414ZM52.8633 109V100.223H58.3477V101.02H53.8008V104.066H57.9023V104.852H53.8008V108.203H58.4414V109H52.8633ZM60.1289 109V100.223H65.6133V101.02H61.0664V104.066H65.168V104.852H61.0664V108.203H65.707V109H60.1289ZM66.9141 107.934C68.25 107.059 69.3125 106.016 70.1016 104.805C70.8984 103.594 71.3047 102.406 71.3203 101.242H67.4414V100.41H72.2695C72.2695 103.645 70.6953 106.348 67.5469 108.52L66.9141 107.934ZM74.5195 110.055V99.3672H75.4219V104.008H77.2383V104.863H75.4219V110.055H74.5195ZM81.0703 107.77C81.3203 107.559 81.5586 107.332 81.7852 107.09C82.0117 106.848 82.2734 106.52 82.5703 106.105C82.875 105.684 83.1172 105.195 83.2969 104.641C83.4844 104.086 83.5781 103.508 83.5781 102.906V101.254H81.5977V100.445H86.4492V101.254H84.4922V102.824C84.4922 103.34 84.5664 103.844 84.7148 104.336C84.8711 104.828 85.0742 105.27 85.3242 105.66C85.5742 106.051 85.8164 106.383 86.0508 106.656C86.293 106.93 86.543 107.176 86.8008 107.395L86.1797 107.957C85.7734 107.613 85.3555 107.152 84.9258 106.574C84.5039 105.988 84.2148 105.465 84.0586 105.004C83.918 105.496 83.6094 106.078 83.1328 106.75C82.6641 107.422 82.2031 107.949 81.75 108.332L81.0703 107.77ZM89.8242 110.055V99.3672H90.6914V110.055H89.8242ZM85.8281 104.254V103.434H87.5625V99.6719H88.3945V109.574H87.5625V104.254H85.8281ZM93.5859 103.188V102.461H95.3789V100.352H93.832V99.6133H102.035V100.352H100.488V102.461H102.281V103.188H93.5859ZM96.2461 102.461H99.6094V100.352H96.2461V102.461ZM92.6836 105.074V104.324H103.125V105.074H98.3555V106.68H97.4766V105.074H92.6836ZM94.2891 109.867V106.469H101.566V109.867H94.2891ZM95.1914 109.105H100.664V107.23H95.1914V109.105ZM105.457 101.066C105.457 100.785 105.562 100.539 105.773 100.328C105.992 100.117 106.289 99.9492 106.664 99.8242C107.039 99.6992 107.461 99.6094 107.93 99.5547C108.398 99.4922 108.91 99.4609 109.465 99.4609C110.605 99.4609 111.559 99.5938 112.324 99.8594C113.09 100.125 113.473 100.527 113.473 101.066C113.473 101.441 113.277 101.754 112.887 102.004C112.496 102.246 112.012 102.418 111.434 102.52C110.855 102.621 110.199 102.672 109.465 102.672C108.699 102.672 108.023 102.621 107.438 102.52C106.859 102.41 106.383 102.234 106.008 101.992C105.641 101.742 105.457 101.434 105.457 101.066ZM106.453 101.066C106.453 101.387 106.75 101.617 107.344 101.758C107.938 101.891 108.645 101.957 109.465 101.957C110.301 101.957 111.008 101.887 111.586 101.746C112.172 101.598 112.465 101.371 112.465 101.066C112.465 100.762 112.172 100.539 111.586 100.398C111.008 100.258 110.301 100.188 109.465 100.188C108.676 100.188 107.977 100.258 107.367 100.398C106.758 100.531 106.453 100.754 106.453 101.066ZM104.215 104.383V103.633H114.656V104.383H104.215ZM105.797 109.855V107.266H112.254V106.176H105.715V105.426H113.156V107.957H106.699V109.105H113.461V109.855H105.797ZM118.688 105.344C119.07 105.133 119.43 104.895 119.766 104.629C120.102 104.363 120.438 104.047 120.773 103.68C121.109 103.312 121.375 102.887 121.57 102.402C121.766 101.91 121.863 101.398 121.863 100.867V99.7188H122.754V100.855C122.754 101.348 122.848 101.824 123.035 102.285C123.223 102.746 123.465 103.152 123.762 103.504C124.066 103.855 124.379 104.16 124.699 104.418C125.02 104.676 125.344 104.895 125.672 105.074L125.121 105.684C124.629 105.441 124.094 105.035 123.516 104.465C122.945 103.895 122.547 103.34 122.32 102.801C122.086 103.379 121.672 103.961 121.078 104.547C120.492 105.133 119.891 105.605 119.273 105.965L118.688 105.344ZM124.805 102.812V102.016H127.266V99.3672H128.168V107.242H127.266V102.812H124.805ZM121.078 109.727V106.422H121.98V108.918H128.578V109.727H121.078ZM131.039 104.406V99.625H131.93V101.219H135.328V99.625H136.219V104.406H131.039ZM131.93 103.656H135.328V101.957H131.93V103.656ZM135.855 103.656V102.906H138.844V101.582H135.855V100.832H138.844V99.3672H139.746V104.898H138.844V103.656H135.855ZM132.328 109.867V107.254H138.844V106.141H132.246V105.379H139.746V107.957H133.23V109.117H140.051V109.867H132.328ZM143.215 100.891V100.047H146.473V100.891H143.215ZM142.008 103.023V102.203H147.375V103.023H142.008ZM142.383 106.211C142.383 105.578 142.609 105.059 143.062 104.652C143.516 104.238 144.098 104.031 144.809 104.031C145.52 104.031 146.102 104.238 146.555 104.652C147.008 105.066 147.234 105.59 147.234 106.223C147.234 106.848 147.008 107.371 146.555 107.793C146.102 108.207 145.52 108.414 144.809 108.414C144.098 108.414 143.516 108.203 143.062 107.781C142.609 107.359 142.383 106.836 142.383 106.211ZM143.285 106.211C143.285 106.602 143.43 106.934 143.719 107.207C144.008 107.473 144.371 107.605 144.809 107.605C145.23 107.605 145.59 107.473 145.887 107.207C146.184 106.934 146.332 106.602 146.332 106.211C146.332 105.812 146.188 105.484 145.898 105.227C145.609 104.961 145.246 104.828 144.809 104.828C144.363 104.828 143.996 104.961 143.707 105.227C143.426 105.492 143.285 105.82 143.285 106.211ZM148.23 109.574V99.6719H149.039V104.09H150.504V99.3672H151.359V110.055H150.504V104.945H149.039V109.574H148.23ZM153.188 107.898C155.281 106.273 156.328 104.215 156.328 101.723V99.9414H157.207V101.688C157.207 102.367 157.297 103.027 157.477 103.668C157.656 104.301 157.895 104.863 158.191 105.355C158.488 105.84 158.797 106.262 159.117 106.621C159.438 106.98 159.766 107.289 160.102 107.547L159.457 108.133C158.98 107.797 158.461 107.238 157.898 106.457C157.344 105.668 156.973 104.93 156.785 104.242C156.598 104.961 156.223 105.711 155.66 106.492C155.098 107.273 154.508 107.934 153.891 108.473L153.188 107.898ZM158.977 104.102V103.258H161.73V99.3672H162.633V110.055H161.73V104.102H158.977ZM169.312 105.719V100H170.215V102.016H175.734V100H176.637V105.719H169.312ZM170.215 104.922H175.734V102.801H170.215V104.922ZM167.719 108.801V108.016H172.5V105.191H173.426V108.016H178.172V108.801H167.719ZM180.258 107.594V100.293H181.148V106.773H181.348C182.191 106.773 183.301 106.668 184.676 106.457V107.23C184.012 107.348 183.254 107.438 182.402 107.5C181.559 107.562 180.953 107.594 180.586 107.594H180.258ZM185.215 109.574V99.6719H186.023V103.773H187.852V99.3672H188.719V110.055H187.852V104.617H186.023V109.574H185.215ZM192.41 105.227V100.293H199.781V101.09H193.312V104.43H199.828V105.227H192.41ZM190.781 108.707V107.922H201.234V108.707H190.781ZM203.227 104.289V101.641H207.949V100.457H203.168V99.7539H208.852V102.332H204.117V103.574H204.844C206.375 103.574 208.184 103.469 210.27 103.258V103.938C209.348 104.039 208.262 104.125 207.012 104.195C205.762 104.258 204.828 104.289 204.211 104.289H203.227ZM210.961 104.828V99.3672H211.863V104.828H210.961ZM204.457 109.938V107.277H210.961V106.141H204.375V105.367H211.863V107.98H205.359V109.176H212.168V109.938H204.457ZM217.559 107.77V100.457H219.727V101.242H218.379V106.984H218.52C218.863 106.984 219.32 106.938 219.891 106.844V107.582C219.023 107.707 218.344 107.77 217.852 107.77H217.559ZM220.207 107.77V100.457H222.574V101.242H221.051V106.984H221.168C221.754 106.984 222.332 106.934 222.902 106.832V107.57C222.129 107.703 221.305 107.77 220.43 107.77H220.207ZM223.336 109.574V99.6719H224.133V103.832H225.645V99.3672H226.477V110.055H225.645V104.676H224.133V109.574H223.336ZM228.387 111.039L229.348 107.605H230.648L229.125 111.039H228.387ZM237.105 100.305V99.5898H240.973V100.305H237.105ZM235.406 105.215C236.203 104.926 236.91 104.547 237.527 104.078C238.152 103.609 238.48 103.117 238.512 102.602V102.191H235.805V101.453H242.109V102.191H239.543V102.566C239.559 102.816 239.66 103.07 239.848 103.328C240.043 103.578 240.289 103.812 240.586 104.031C240.883 104.242 241.172 104.426 241.453 104.582C241.742 104.738 242.035 104.883 242.332 105.016L241.84 105.625C241.348 105.414 240.824 105.125 240.27 104.758C239.715 104.391 239.309 104.031 239.051 103.68C238.785 104.07 238.348 104.473 237.738 104.887C237.137 105.301 236.527 105.617 235.91 105.836L235.406 105.215ZM243.445 105.883V99.3672H244.348V102.496H245.812V103.305H244.348V105.883H243.445ZM237.352 109.938V106.445H244.348V109.938H237.352ZM238.254 109.164H243.445V107.219H238.254V109.164ZM248.344 101.184V100.375H255.996C255.996 102.383 255.77 104.348 255.316 106.27H254.414C254.633 105.395 254.801 104.484 254.918 103.539C255.035 102.594 255.094 101.809 255.094 101.184H248.344ZM246.891 108.637V107.852H250.934V103.844H251.836V107.852H257.344V108.637H246.891ZM260.004 100.176V99.4492H263.93V100.176H260.004ZM258.422 101.699V100.984H265.137V101.699H258.422ZM258.926 103.668C258.926 103.215 259.215 102.875 259.793 102.648C260.379 102.414 261.102 102.297 261.961 102.297C262.805 102.297 263.52 102.414 264.105 102.648C264.691 102.875 264.984 103.219 264.984 103.68C264.984 104.133 264.691 104.48 264.105 104.723C263.527 104.957 262.812 105.074 261.961 105.074C261.109 105.074 260.391 104.957 259.805 104.723C259.219 104.48 258.926 104.129 258.926 103.668ZM259.887 103.668C259.887 103.91 260.082 104.094 260.473 104.219C260.863 104.344 261.359 104.406 261.961 104.406C262.539 104.406 263.027 104.348 263.426 104.23C263.824 104.105 264.023 103.918 264.023 103.668C264.023 103.191 263.336 102.953 261.961 102.953C261.352 102.953 260.852 103.012 260.461 103.129C260.078 103.246 259.887 103.426 259.887 103.668ZM266.602 105.438V99.3672H267.504V102.074H268.945V102.883H267.504V105.438H266.602ZM260.203 109.984V107.617H266.602V106.645H260.121V105.953H267.504V108.25H261.105V109.281H267.867V109.984H260.203ZM270.316 107.887C271.457 106.957 272.316 105.902 272.895 104.723C273.48 103.535 273.777 102.387 273.785 101.277H270.727V100.469H274.746C274.746 103.656 273.496 106.312 270.996 108.438L270.316 107.887ZM278.672 110.055V99.3672H279.539V110.055H278.672ZM274.43 104.711V103.855H276.352V99.6719H277.184V109.574H276.352V104.711H274.43ZM282.668 102.602C282.668 101.797 283.055 101.16 283.828 100.691C284.609 100.223 285.582 99.9883 286.746 99.9883C287.48 99.9883 288.152 100.09 288.762 100.293C289.379 100.488 289.875 100.789 290.25 101.195C290.633 101.594 290.824 102.062 290.824 102.602C290.824 103.406 290.434 104.043 289.652 104.512C288.871 104.98 287.902 105.215 286.746 105.215C285.566 105.215 284.59 104.98 283.816 104.512C283.051 104.035 282.668 103.398 282.668 102.602ZM283.664 102.602C283.664 103.156 283.969 103.605 284.578 103.949C285.188 104.285 285.91 104.453 286.746 104.453C287.605 104.453 288.332 104.281 288.926 103.938C289.527 103.594 289.828 103.148 289.828 102.602C289.828 102.055 289.527 101.609 288.926 101.266C288.324 100.922 287.598 100.75 286.746 100.75C285.926 100.75 285.207 100.922 284.59 101.266C283.973 101.609 283.664 102.055 283.664 102.602ZM281.484 108.871V108.086H284.016V105.637H284.906V108.086H288.574V105.637H289.465V108.086H291.938V108.871H281.484ZM293.836 109V107.605H295.312V109H293.836Z" fill="black"/>
<path d="M152.823 4.42641L153 4.60441L153.177 4.42641C154.028 3.57101 155.261 3.08337 156.562 3.08337C158.834 3.08337 160.667 4.68936 160.667 6.64421C160.667 7.93268 160.043 9.10989 158.735 10.513C157.45 11.8909 155.539 13.4503 153 15.5161C150.46 13.4504 148.55 11.8909 147.264 10.5229C145.955 9.12883 145.333 7.97331 145.333 6.72921C145.333 4.76091 147.086 3.08337 149.342 3.08337C150.741 3.08337 151.973 3.57261 152.823 4.42641ZM145.791 11.9056C147.323 13.0495 149.055 14.7464 151.345 17C149.055 19.2536 147.323 20.9509 145.802 22.095C144.246 23.265 142.941 23.8334 141.521 23.8334C139.249 23.8334 137.417 22.2274 137.417 20.2725C137.417 19.0465 137.951 17.9563 138.906 17.1956L139.151 17L138.906 16.8045C137.949 16.042 137.417 14.9508 137.417 13.8125C137.417 11.8442 139.169 10.1667 141.426 10.1667C142.895 10.1667 144.225 10.7365 145.791 11.9056ZM160.211 22.0946C158.681 20.9507 156.952 19.2537 154.67 17C156.952 14.7464 158.681 13.0491 160.2 11.905C161.753 10.7351 163.059 10.1667 164.479 10.1667C166.75 10.1667 168.583 11.7727 168.583 13.7275C168.583 14.9536 168.049 16.0437 167.094 16.8045L166.849 17L167.094 17.1956C168.051 17.9581 168.583 19.0493 168.583 20.1875C168.583 22.1558 166.83 23.8334 164.574 23.8334C163.105 23.8334 161.775 23.2636 160.211 22.0946ZM153.177 29.5737L153 29.3957L152.823 29.5737C151.971 30.4291 150.739 30.9167 149.437 30.9167C147.166 30.9167 145.333 29.3107 145.333 27.3559C145.333 26.0674 145.957 24.8902 147.265 23.4871C148.55 22.1091 150.46 20.5498 153 18.484C155.539 20.5497 157.45 22.1092 158.735 23.4772C160.045 24.8713 160.667 26.0268 160.667 27.2709C160.667 29.2392 158.914 30.9167 156.657 30.9167C155.259 30.9167 154.027 30.4275 153.177 29.5737Z" fill="#FFFBA6" stroke="black" stroke-width="0.5"/>
</svg>
