<svg width="235" height="126" viewBox="0 0 235 126" fill="none" xmlns="http://www.w3.org/2000/svg">
<path d="M50.418 61.3398C50.418 60.2721 51.0234 59.4453 52.2344 58.8594C53.4453 58.2734 55.0664 57.9805 57.0977 57.9805C59.1289 57.9805 60.7565 58.2734 61.9805 58.8594C63.2044 59.4323 63.8164 60.2591 63.8164 61.3398C63.8164 62.3945 63.1979 63.2148 61.9609 63.8008C60.724 64.3997 59.1029 64.6927 57.0977 64.6797C55.0534 64.6667 53.4258 64.3737 52.2148 63.8008C51.0169 63.2279 50.418 62.4076 50.418 61.3398ZM52.4297 61.3398C52.4297 61.9258 52.8398 62.375 53.6602 62.6875C54.4805 63 55.6263 63.1562 57.0977 63.1562C58.5169 63.1562 59.6562 63 60.5156 62.6875C61.388 62.362 61.8242 61.9128 61.8242 61.3398C61.8242 60.7409 61.3945 60.2917 60.5352 59.9922C59.6888 59.6797 58.543 59.5234 57.0977 59.5234C55.6263 59.5234 54.4805 59.6797 53.6602 59.9922C52.8398 60.2917 52.4297 60.7409 52.4297 61.3398ZM57.7031 57.2773V46.9062H59.3242V51.4375H61.7266V46.6719H63.4648V58H61.7266V53.0781H59.3242V57.2773H57.7031ZM47.0977 56.1055C48.3086 55.2852 49.3503 54.2695 50.2227 53.0586C51.1081 51.8346 51.5508 50.5391 51.5508 49.1719V47.375H53.3672V49.1328C53.3672 49.9661 53.6146 50.8255 54.1094 51.7109C54.6042 52.5833 55.1315 53.2995 55.6914 53.8594C56.2513 54.4062 56.8112 54.8685 57.3711 55.2461L56.2188 56.4375C55.5677 56.0078 54.8646 55.3893 54.1094 54.582C53.3672 53.7617 52.8464 53.0065 52.5469 52.3164C52.2344 53.1497 51.6615 54.0482 50.8281 55.0117C49.9948 55.9622 49.168 56.724 48.3477 57.2969L47.0977 56.1055ZM80.8672 64.7578V46.6719H82.7227V64.7578H80.8672ZM68.4648 61.3398V53.957H75.3008V49.8359H68.3477V48.2539H77.0586V55.5H70.2031V59.7773H70.7305C73.4388 59.7773 76.3229 59.5951 79.3828 59.2305V60.7148C76.1276 61.1315 72.7031 61.3398 69.1094 61.3398H68.4648ZM88.3867 61.8672C88.3867 60.9427 88.9922 60.2396 90.2031 59.7578C91.4141 59.276 93.0482 59.0352 95.1055 59.0352C97.1758 59.0352 98.8229 59.276 100.047 59.7578C101.271 60.2266 101.883 60.9297 101.883 61.8672C101.883 62.7917 101.271 63.4948 100.047 63.9766C98.8229 64.4583 97.1758 64.6992 95.1055 64.6992C93.0221 64.6992 91.3815 64.4583 90.1836 63.9766C88.9857 63.5078 88.3867 62.8047 88.3867 61.8672ZM90.418 61.8672C90.418 62.8177 91.9805 63.293 95.1055 63.293C96.5117 63.293 97.651 63.1758 98.5234 62.9414C99.4089 62.694 99.8516 62.3359 99.8516 61.8672C99.8516 60.9167 98.2695 60.4414 95.1055 60.4414C91.9805 60.4414 90.418 60.9167 90.418 61.8672ZM86.2383 57.7656V56.3398H94.2266V53.918H96.0625V56.3398H103.875V57.7656H86.2383ZM88.8555 54.5234V47.1797H101.57V48.5859H90.7305V50.207H101.434V51.4766H90.7305V53.0977H101.707V54.5234H88.8555ZM125.145 64.7578V46.6719H126.883V64.7578H125.145ZM118.836 56.7891V55.0312H121.434V47.1797H123.074V63.957H121.434V56.7891H118.836ZM112.977 49.3477V47.7266H118.66V49.3477H112.977ZM110.711 61.2422C111.727 60.526 112.664 59.543 113.523 58.293C114.396 57.043 114.832 55.7669 114.832 54.4648V52.7656H111.395V51.1836H119.891V52.7656H116.688V54.3867C116.688 55.5586 117.046 56.7305 117.762 57.9023C118.491 59.0742 119.279 60.0117 120.125 60.7148L118.875 61.7891C118.38 61.3724 117.814 60.7669 117.176 59.9727C116.538 59.1654 116.076 58.4036 115.789 57.6875C115.477 58.4557 114.936 59.3086 114.168 60.2461C113.4 61.1836 112.697 61.8802 112.059 62.3359L110.711 61.2422ZM130.008 62.3555V60.7539H147.664V62.3555H130.008ZM132.254 55.7539V54.1133H143.367C143.523 52.5508 143.602 51.1966 143.602 50.0508H132.605V48.4297H145.438C145.438 53.1953 145.001 57.5898 144.129 61.6133H142.273C142.677 59.8685 142.996 57.9154 143.23 55.7539H132.254ZM162.703 64.7578V46.6719H164.559V54.9727H167.449V56.6914H164.559V64.7578H162.703ZM152.273 49.3281V47.6289H158.699V49.3281H152.273ZM149.852 53.0977V51.418H160.535V53.0977H149.852ZM150.633 58.4297C150.633 57.3099 151.082 56.3919 151.98 55.6758C152.879 54.9596 154.038 54.6016 155.457 54.6016C156.876 54.6016 158.035 54.9596 158.934 55.6758C159.845 56.3789 160.301 57.2969 160.301 58.4297C160.301 59.5495 159.845 60.474 158.934 61.2031C158.035 61.9193 156.876 62.2773 155.457 62.2773C154.038 62.2773 152.879 61.9193 151.98 61.2031C151.082 60.474 150.633 59.5495 150.633 58.4297ZM152.508 58.4297C152.508 59.0938 152.794 59.6341 153.367 60.0508C153.953 60.4544 154.65 60.6562 155.457 60.6562C156.251 60.6562 156.941 60.4544 157.527 60.0508C158.113 59.6471 158.406 59.1068 158.406 58.4297C158.406 57.7526 158.12 57.2122 157.547 56.8086C156.974 56.4049 156.277 56.2031 155.457 56.2031C154.624 56.2031 153.921 56.4049 153.348 56.8086C152.788 57.2122 152.508 57.7526 152.508 58.4297ZM182.742 64.7578V46.6719H184.617V64.7578H182.742ZM169.617 61.0273C171.87 59.6081 173.667 57.9089 175.008 55.9297C176.349 53.9375 177.033 51.9909 177.059 50.0898H170.594V48.4102H178.992C178.992 54.0352 176.297 58.638 170.906 62.2188L169.617 61.0273Z" fill="black"/>
<path d="M0.453125 88.0039C1.17969 87.5273 1.80859 86.9219 2.33984 86.1875C2.87891 85.4531 3.14844 84.6719 3.14844 83.8438V82.8008H4.03906V83.832C4.03906 84.5586 4.30469 85.2617 4.83594 85.9414C5.36719 86.6133 5.91797 87.1328 6.48828 87.5L5.92578 88.0977C5.50391 87.8086 5.05859 87.418 4.58984 86.9258C4.12891 86.4258 3.8125 85.9609 3.64062 85.5312C3.46094 86.0469 3.11328 86.5977 2.59766 87.1836C2.08984 87.7695 1.57812 88.2422 1.0625 88.6016L0.453125 88.0039ZM6.80469 88.6719V82.5078H7.60156V85.2617H9.19531V82.3672H10.0508V89.0938H9.19531V86.0586H7.60156V88.6719H6.80469ZM2.43359 91.0625C2.43359 90.4531 2.78516 89.9805 3.48828 89.6445C4.19141 89.3008 5.14062 89.1289 6.33594 89.1289C7.53906 89.1289 8.49609 89.2969 9.20703 89.6328C9.91797 89.9609 10.2734 90.4375 10.2734 91.0625C10.2734 91.6719 9.91016 92.1484 9.18359 92.4922C8.46484 92.8359 7.51562 93.0039 6.33594 92.9961C5.125 92.9883 4.17188 92.8164 3.47656 92.4805C2.78125 92.1445 2.43359 91.6719 2.43359 91.0625ZM3.41797 91.0625C3.41797 91.4375 3.67578 91.7266 4.19141 91.9297C4.70703 92.125 5.42188 92.2227 6.33594 92.2227C7.21094 92.2227 7.92188 92.1211 8.46875 91.918C9.02344 91.707 9.30078 91.4219 9.30078 91.0625C9.30078 90.6719 9.03125 90.3828 8.49219 90.1953C7.96094 90 7.24219 89.9023 6.33594 89.9023C5.42969 89.9023 4.71484 90.0039 4.19141 90.207C3.67578 90.4023 3.41797 90.6875 3.41797 91.0625ZM13.0977 91.0039V86.7383H17.2461V84.1133H13.0156V83.3281H18.1133V87.5117H13.9531V90.2188H14.2695C15.9336 90.2188 17.6875 90.1094 19.5312 89.8906V90.6172C17.5547 90.875 15.5234 91.0039 13.4375 91.0039H13.0977ZM20.5508 93.0547V82.3672H21.4648V93.0547H20.5508ZM24.0078 90.9453C25.3672 90.0859 26.4609 89.0508 27.2891 87.8398C28.1172 86.6289 28.5352 85.4336 28.543 84.2539H24.5703V83.4219H29.5039C29.5039 86.6719 27.8867 89.3789 24.6523 91.543L24.0078 90.9453ZM31.9062 93.0547V82.3672H32.8203V93.0547H31.9062ZM35.2812 88.3203C36.5703 87.8438 37.6758 87.2031 38.5977 86.3984C39.5195 85.5859 40.0234 84.7578 40.1094 83.9141H35.9375V83.1055H41.1289C41.1211 83.6992 41.0039 84.2695 40.7773 84.8164C40.5508 85.3633 40.2617 85.8398 39.9102 86.2461C39.5664 86.6523 39.1523 87.0391 38.668 87.4062C38.1836 87.7656 37.7109 88.0664 37.25 88.3086C36.7969 88.5508 36.3164 88.7734 35.8086 88.9766L35.2812 88.3203ZM43.1797 90.1016V82.3672H44.082V85.9297H45.6406V86.7266H44.082V90.1016H43.1797ZM37.2383 92.7031V89.3047H38.1406V91.8945H44.4805V92.7031H37.2383ZM50.1289 87.2773V82.6133H51.0195V84.1602H54.6289V82.6133H55.5195V87.2773H50.1289ZM51.0195 86.5273H54.6289V84.8984H51.0195V86.5273ZM57.7227 87.8516V82.3672H58.625V84.8281H60.0898V85.6484H58.625V87.8516H57.7227ZM51.4297 92.8672V90.2656H57.7227V89.1523H51.3477V88.3906H58.625V90.9453H52.332V92.1172H59V92.8672H51.4297ZM61.0391 88.0039C61.7656 87.5273 62.3945 86.9219 62.9258 86.1875C63.4648 85.4531 63.7344 84.6719 63.7344 83.8438V82.8008H64.625V83.832C64.625 84.5586 64.8906 85.2617 65.4219 85.9414C65.9531 86.6133 66.5039 87.1328 67.0742 87.5L66.5117 88.0977C66.0898 87.8086 65.6445 87.418 65.1758 86.9258C64.7148 86.4258 64.3984 85.9609 64.2266 85.5312C64.0469 86.0469 63.6992 86.5977 63.1836 87.1836C62.6758 87.7695 62.1641 88.2422 61.6484 88.6016L61.0391 88.0039ZM67.3906 88.6719V82.5078H68.1875V85.2617H69.7812V82.3672H70.6367V89.0938H69.7812V86.0586H68.1875V88.6719H67.3906ZM63.0195 91.0625C63.0195 90.4531 63.3711 89.9805 64.0742 89.6445C64.7773 89.3008 65.7266 89.1289 66.9219 89.1289C68.125 89.1289 69.082 89.2969 69.793 89.6328C70.5039 89.9609 70.8594 90.4375 70.8594 91.0625C70.8594 91.6719 70.4961 92.1484 69.7695 92.4922C69.0508 92.8359 68.1016 93.0039 66.9219 92.9961C65.7109 92.9883 64.7578 92.8164 64.0625 92.4805C63.3672 92.1445 63.0195 91.6719 63.0195 91.0625ZM64.0039 91.0625C64.0039 91.4375 64.2617 91.7266 64.7773 91.9297C65.293 92.125 66.0078 92.2227 66.9219 92.2227C67.7969 92.2227 68.5078 92.1211 69.0547 91.918C69.6094 91.707 69.8867 91.4219 69.8867 91.0625C69.8867 90.6719 69.6172 90.3828 69.0781 90.1953C68.5469 90 67.8281 89.9023 66.9219 89.9023C66.0156 89.9023 65.3008 90.0039 64.7773 90.207C64.2617 90.4023 64.0039 90.6875 64.0039 91.0625ZM74.3398 83.7969V82.9531H78.1016V83.7969H74.3398ZM72.875 86.0234V85.1797H79.1797V86.0234H72.875ZM73.3789 89.2695C73.3789 88.6133 73.6406 88.0781 74.1641 87.6641C74.6875 87.2422 75.3672 87.0312 76.2031 87.0312C77.0312 87.0312 77.707 87.2422 78.2305 87.6641C78.7617 88.0781 79.0273 88.6172 79.0273 89.2812C79.0273 89.9297 78.7656 90.4648 78.2422 90.8867C77.7188 91.3086 77.0391 91.5195 76.2031 91.5195C75.3672 91.5195 74.6875 91.3086 74.1641 90.8867C73.6406 90.457 73.3789 89.918 73.3789 89.2695ZM74.3047 89.2695C74.3047 89.6836 74.4883 90.0273 74.8555 90.3008C75.2305 90.5742 75.6797 90.7109 76.2031 90.7109C76.7109 90.7109 77.1523 90.5781 77.5273 90.3125C77.9102 90.0391 78.1016 89.6914 78.1016 89.2695C78.1016 88.8398 77.9141 88.4961 77.5391 88.2383C77.1719 87.9727 76.7266 87.8398 76.2031 87.8398C75.6719 87.8398 75.2227 87.9727 74.8555 88.2383C74.4883 88.5039 74.3047 88.8477 74.3047 89.2695ZM80.6328 93.0547V82.3672H81.5352V87.3711H83.3164V88.2148H81.5352V93.0547H80.6328ZM85.8477 85.9648V82.5547H86.75V85.2031H93.3945V85.9648H85.8477ZM84.1953 88.5078V87.7578H94.6367V88.5078H84.1953ZM85.8711 92.7031V89.4102H86.7734V91.8945H93.4531V92.7031H85.8711ZM99.4883 86.082C100.395 85.8789 101.254 85.5625 102.066 85.1328C102.887 84.7031 103.328 84.25 103.391 83.7734V83.4219H100.156V82.6719H107.668V83.4219H104.469V83.7734C104.5 84.1016 104.734 84.4297 105.172 84.7578C105.617 85.0781 106.117 85.3477 106.672 85.5664C107.227 85.7852 107.781 85.9531 108.336 86.0703L107.949 86.7266C107.145 86.5625 106.352 86.2852 105.57 85.8945C104.797 85.5039 104.246 85.0859 103.918 84.6406C103.613 85.0547 103.078 85.457 102.312 85.8477C101.555 86.2383 100.746 86.5391 99.8867 86.75L99.4883 86.082ZM98.6562 88.2031V87.4414H109.098V88.2031H98.6562ZM99.9688 91.1211C99.9688 90.5273 100.32 90.0703 101.023 89.75C101.734 89.4219 102.691 89.2578 103.895 89.2578C105.098 89.2578 106.059 89.418 106.777 89.7383C107.496 90.0586 107.855 90.5195 107.855 91.1211C107.855 91.7148 107.492 92.1758 106.766 92.5039C106.039 92.832 105.082 92.9922 103.895 92.9844C102.676 92.9766 101.715 92.8125 101.012 92.4922C100.316 92.1719 99.9688 91.7148 99.9688 91.1211ZM100.965 91.1211C100.965 91.4805 101.223 91.7539 101.738 91.9414C102.262 92.1289 102.98 92.2227 103.895 92.2227C104.77 92.2227 105.484 92.125 106.039 91.9297C106.594 91.7344 106.871 91.4648 106.871 91.1211C106.871 90.7539 106.602 90.4805 106.062 90.3008C105.523 90.1133 104.801 90.0195 103.895 90.0195C102.988 90.0195 102.273 90.1133 101.75 90.3008C101.227 90.4883 100.965 90.7617 100.965 91.1211ZM110 87.6641C110.383 87.4609 110.754 87.2266 111.113 86.9609C111.473 86.6875 111.812 86.3789 112.133 86.0352C112.453 85.6836 112.707 85.2969 112.895 84.875C113.09 84.4453 113.188 84.0117 113.188 83.5742V82.6484H114.078V83.5625C114.078 83.9609 114.176 84.3594 114.371 84.7578C114.566 85.1562 114.816 85.5117 115.121 85.8242C115.426 86.1367 115.738 86.4102 116.059 86.6445C116.379 86.8789 116.691 87.0703 116.996 87.2188L116.457 87.8633C115.934 87.582 115.391 87.1914 114.828 86.6914C114.273 86.1836 113.883 85.6875 113.656 85.2031C113.422 85.7656 113.004 86.332 112.402 86.9023C111.801 87.4727 111.191 87.9336 110.574 88.2852L110 87.6641ZM118.262 88.7539V82.3672H119.164V85.2617H120.734V86.082H119.164V88.7539H118.262ZM111.863 90.9102C111.863 90.2461 112.207 89.7266 112.895 89.3516C113.582 88.9766 114.5 88.7891 115.648 88.7891C116.805 88.7891 117.73 88.9766 118.426 89.3516C119.121 89.7266 119.469 90.2461 119.469 90.9102C119.469 91.5664 119.117 92.082 118.414 92.457C117.719 92.8398 116.797 93.0273 115.648 93.0195C114.484 93.0117 113.562 92.8203 112.883 92.4453C112.203 92.0781 111.863 91.5664 111.863 90.9102ZM112.824 90.9102C112.824 91.3164 113.074 91.6367 113.574 91.8711C114.082 92.0977 114.773 92.2109 115.648 92.2109C116.5 92.2109 117.188 92.0938 117.711 91.8594C118.242 91.625 118.508 91.3086 118.508 90.9102C118.508 90.4805 118.25 90.1562 117.734 89.9375C117.219 89.7109 116.523 89.5977 115.648 89.5977C114.773 89.5977 114.082 89.7148 113.574 89.9492C113.074 90.1758 112.824 90.4961 112.824 90.9102ZM122.961 84.0664C122.961 83.7852 123.066 83.5391 123.277 83.3281C123.496 83.1172 123.793 82.9492 124.168 82.8242C124.543 82.6992 124.965 82.6094 125.434 82.5547C125.902 82.4922 126.414 82.4609 126.969 82.4609C128.109 82.4609 129.062 82.5938 129.828 82.8594C130.594 83.125 130.977 83.5273 130.977 84.0664C130.977 84.4414 130.781 84.7539 130.391 85.0039C130 85.2461 129.516 85.418 128.938 85.5195C128.359 85.6211 127.703 85.6719 126.969 85.6719C126.203 85.6719 125.527 85.6211 124.941 85.5195C124.363 85.4102 123.887 85.2344 123.512 84.9922C123.145 84.7422 122.961 84.4336 122.961 84.0664ZM123.957 84.0664C123.957 84.3867 124.254 84.6172 124.848 84.7578C125.441 84.8906 126.148 84.957 126.969 84.957C127.805 84.957 128.512 84.8867 129.09 84.7461C129.676 84.5977 129.969 84.3711 129.969 84.0664C129.969 83.7617 129.676 83.5391 129.09 83.3984C128.512 83.2578 127.805 83.1875 126.969 83.1875C126.18 83.1875 125.48 83.2578 124.871 83.3984C124.262 83.5312 123.957 83.7539 123.957 84.0664ZM121.719 87.3828V86.6328H132.16V87.3828H121.719ZM123.301 92.8555V90.2656H129.758V89.1758H123.219V88.4258H130.66V90.957H124.203V92.1055H130.965V92.8555H123.301ZM137.785 88.2148V83.1875H145.062V88.2148H137.785ZM138.699 87.4297H144.172V83.9609H138.699V87.4297ZM136.168 91.8008V91.0156H140.961V87.7461H141.887V91.0156H146.621V91.8008H136.168ZM149.363 86.9609V82.8477H156.676V83.6211H150.266V86.1875H156.734V86.9609H149.363ZM147.699 89.5742V88.7773H158.152V89.5742H153.406V93.0781H152.504V89.5742H147.699ZM163.602 83.8203V83.0117H166.953V83.8203H163.602ZM162.266 90.9922C162.859 90.5938 163.426 90.0078 163.965 89.2344C164.512 88.4609 164.785 87.6758 164.785 86.8789V85.8242H162.652V85.0273H167.715V85.8242H165.711V86.8555C165.711 87.5508 165.934 88.2539 166.379 88.9648C166.824 89.668 167.305 90.2305 167.82 90.6523L167.211 91.2031C166.906 90.9531 166.551 90.5781 166.145 90.0781C165.746 89.5703 165.453 89.0859 165.266 88.625C165.094 89.0938 164.762 89.625 164.27 90.2188C163.777 90.8125 163.324 91.2578 162.91 91.5547L162.266 90.9922ZM170.914 93.0547V82.3672H171.77V93.0547H170.914ZM167.117 88.2031V87.3477H168.723V82.6719H169.531V92.5742H168.723V88.2031H167.117ZM175.062 87.6289V86.8203H181.742C181.828 85.8906 181.871 85.0352 181.871 84.2539H175.262V83.4453H182.785C182.785 86.2266 182.531 88.7812 182.023 91.1094H181.098C181.34 90.0781 181.527 88.918 181.66 87.6289H175.062ZM173.691 91.5781V90.793H184.145V91.5781H173.691ZM186.711 83.8906V83.0469H189.969V83.8906H186.711ZM185.504 86.0234V85.2031H190.871V86.0234H185.504ZM185.879 89.2109C185.879 88.5781 186.105 88.0586 186.559 87.6523C187.012 87.2383 187.594 87.0312 188.305 87.0312C189.016 87.0312 189.598 87.2383 190.051 87.6523C190.504 88.0664 190.73 88.5898 190.73 89.2227C190.73 89.8477 190.504 90.3711 190.051 90.793C189.598 91.207 189.016 91.4141 188.305 91.4141C187.594 91.4141 187.012 91.2031 186.559 90.7812C186.105 90.3594 185.879 89.8359 185.879 89.2109ZM186.781 89.2109C186.781 89.6016 186.926 89.9336 187.215 90.207C187.504 90.4727 187.867 90.6055 188.305 90.6055C188.727 90.6055 189.086 90.4727 189.383 90.207C189.68 89.9336 189.828 89.6016 189.828 89.2109C189.828 88.8125 189.684 88.4844 189.395 88.2266C189.105 87.9609 188.742 87.8281 188.305 87.8281C187.859 87.8281 187.492 87.9609 187.203 88.2266C186.922 88.4922 186.781 88.8203 186.781 89.2109ZM191.727 92.5742V82.6719H192.535V87.0898H194V82.3672H194.855V93.0547H194V87.9453H192.535V92.5742H191.727ZM197.586 87.0312C198 86.9062 198.414 86.7539 198.828 86.5742C199.25 86.3945 199.664 86.1836 200.07 85.9414C200.477 85.6914 200.812 85.4102 201.078 85.0977C201.344 84.7773 201.488 84.457 201.512 84.1367V83.6328H198.266V82.8477H205.777V83.6328H202.555V84.1367C202.586 84.5586 202.824 84.9766 203.27 85.3906C203.723 85.7969 204.227 86.1328 204.781 86.3984C205.344 86.6641 205.906 86.8711 206.469 87.0195L206.047 87.6641C205.234 87.4453 204.441 87.1055 203.668 86.6445C202.895 86.1758 202.352 85.6875 202.039 85.1797C201.75 85.6562 201.227 86.1289 200.469 86.5977C199.711 87.0586 198.895 87.4258 198.02 87.6992L197.586 87.0312ZM196.754 89.3633V88.5781H207.207V89.3633H202.461V93.0781H201.559V89.3633H196.754ZM208.086 90.8164C209.859 89.207 210.746 87.2148 210.746 84.8398V83.0352H211.637V84.8047C211.637 85.6562 211.777 86.4805 212.059 87.2773C212.34 88.0742 212.645 88.7109 212.973 89.1875C213.309 89.6562 213.668 90.0664 214.051 90.418L213.383 90.9688C213.016 90.6562 212.602 90.1367 212.141 89.4102C211.688 88.6836 211.379 88.0156 211.215 87.4062C211.059 88.0469 210.75 88.7344 210.289 89.4688C209.828 90.1953 209.332 90.8242 208.801 91.3555L208.086 90.8164ZM216.957 93.0547V82.3672H217.824V93.0547H216.957ZM212.914 87.125V86.2812H214.695V82.6719H215.527V92.5742H214.695V87.125H212.914ZM221 85.6016C221 84.7969 221.387 84.1602 222.16 83.6914C222.941 83.2227 223.914 82.9883 225.078 82.9883C225.812 82.9883 226.484 83.0898 227.094 83.293C227.711 83.4883 228.207 83.7891 228.582 84.1953C228.965 84.5938 229.156 85.0625 229.156 85.6016C229.156 86.4062 228.766 87.043 227.984 87.5117C227.203 87.9805 226.234 88.2148 225.078 88.2148C223.898 88.2148 222.922 87.9805 222.148 87.5117C221.383 87.0352 221 86.3984 221 85.6016ZM221.996 85.6016C221.996 86.1562 222.301 86.6055 222.91 86.9492C223.52 87.2852 224.242 87.4531 225.078 87.4531C225.938 87.4531 226.664 87.2812 227.258 86.9375C227.859 86.5938 228.16 86.1484 228.16 85.6016C228.16 85.0547 227.859 84.6094 227.258 84.2656C226.656 83.9219 225.93 83.75 225.078 83.75C224.258 83.75 223.539 83.9219 222.922 84.2656C222.305 84.6094 221.996 85.0547 221.996 85.6016ZM219.816 91.8711V91.0859H222.348V88.6367H223.238V91.0859H226.906V88.6367H227.797V91.0859H230.27V91.8711H219.816ZM232.168 92V90.6055H233.645V92H232.168ZM2.44531 110.523V99.0625H4.90625V99.8125H3.35938V109.785H4.90625V110.523H2.44531ZM7.09766 104.078C7.09766 102.859 7.32812 101.867 7.78906 101.102C8.25781 100.336 8.90234 99.9531 9.72266 99.9531C10.5352 99.9531 11.1758 100.336 11.6445 101.102C12.1211 101.867 12.3594 102.859 12.3594 104.078C12.3594 105.289 12.125 106.277 11.6562 107.043C11.1953 107.809 10.5508 108.191 9.72266 108.191C8.88672 108.191 8.23828 107.812 7.77734 107.055C7.32422 106.289 7.09766 105.297 7.09766 104.078ZM8.02344 104.078C8.02344 105.031 8.16406 105.82 8.44531 106.445C8.73438 107.062 9.16016 107.371 9.72266 107.371C10.2852 107.371 10.7109 107.055 11 106.422C11.2891 105.789 11.4336 105.008 11.4336 104.078C11.4336 103.133 11.2891 102.348 11 101.723C10.7109 101.09 10.2852 100.773 9.72266 100.773C9.16016 100.773 8.73438 101.094 8.44531 101.734C8.16406 102.367 8.02344 103.148 8.02344 104.078ZM14.4336 110.055V99.3672H15.3359V103.844H17.1406V104.711H15.3359V110.055H14.4336ZM18.8398 104.078C18.8398 102.859 19.0742 101.867 19.543 101.102C20.0195 100.336 20.6758 99.9531 21.5117 99.9531C22.332 99.9531 22.9844 100.336 23.4688 101.102C23.9531 101.867 24.1953 102.859 24.1953 104.078C24.1953 105.289 23.957 106.281 23.4805 107.055C23.0039 107.82 22.3477 108.203 21.5117 108.203C20.668 108.203 20.0117 107.82 19.543 107.055C19.0742 106.289 18.8398 105.297 18.8398 104.078ZM19.7656 104.078C19.7656 105.031 19.9141 105.82 20.2109 106.445C20.5078 107.07 20.9414 107.383 21.5117 107.383C22.082 107.383 22.5156 107.066 22.8125 106.434C23.1094 105.793 23.2578 105.008 23.2578 104.078C23.2578 103.133 23.1094 102.348 22.8125 101.723C22.5234 101.09 22.0898 100.773 21.5117 100.773C20.9336 100.773 20.4961 101.094 20.1992 101.734C19.9102 102.367 19.7656 103.148 19.7656 104.078ZM26.5273 110.055V99.3672H27.4414V110.055H26.5273ZM30.875 107.582V100.422H35.8555V101.207H31.7656V106.797H32.1641C33.6172 106.797 35.2148 106.68 36.957 106.445V107.195C35.207 107.453 33.332 107.582 31.332 107.582H30.875ZM37.8828 110.055V99.3672H38.7969V110.055H37.8828ZM41.7031 109.785H43.25V99.8125H41.7031V99.0625H44.1641V110.523H41.7031V109.785ZM47.457 103.984V99.8828H48.3477V103.211H48.6641C50.3672 103.211 52.2031 103.074 54.1719 102.801V103.551C52.2734 103.84 50.1953 103.984 47.9375 103.984H47.457ZM55.0273 105.086V99.3672H55.9297V105.086H55.0273ZM48.6992 109.855V105.789H55.9297V109.855H48.6992ZM49.6016 109.035H55.0273V106.609H49.6016V109.035ZM59.0469 102.566C59.0469 101.801 59.3203 101.184 59.8672 100.715C60.4141 100.246 61.1133 100.012 61.9648 100.012C62.8086 100.012 63.5039 100.246 64.0508 100.715C64.6055 101.184 64.8828 101.801 64.8828 102.566C64.8828 103.332 64.6094 103.953 64.0625 104.43C63.5156 104.898 62.8164 105.133 61.9648 105.133C61.0977 105.133 60.3945 104.898 59.8555 104.43C59.3164 103.961 59.0469 103.34 59.0469 102.566ZM59.9844 102.566C59.9844 103.098 60.1719 103.535 60.5469 103.879C60.9219 104.223 61.3945 104.395 61.9648 104.395C62.543 104.395 63.0156 104.223 63.3828 103.879C63.7578 103.527 63.9453 103.09 63.9453 102.566C63.9453 102.051 63.7578 101.621 63.3828 101.277C63.0156 100.926 62.543 100.75 61.9648 100.75C61.4023 100.75 60.9297 100.926 60.5469 101.277C60.1719 101.629 59.9844 102.059 59.9844 102.566ZM58.2969 108.016V107.254H59.5977C61.9023 107.254 64.082 107.117 66.1367 106.844V107.594C64.0273 107.875 61.8359 108.016 59.5625 108.016H58.2969ZM66.5586 110.055V99.3672H67.4727V110.055H66.5586ZM74.0234 103.035V99.4375H74.9258V100.504H80.4219V99.4375H81.3242V103.035H74.0234ZM74.9258 102.297H80.4219V101.195H74.9258V102.297ZM72.4297 104.676V103.973H82.8711V104.676H78.1016V106.082H77.2227V104.676H72.4297ZM73.9883 109.867V107.453H80.4922V106.469H73.9062V105.754H81.3945V108.109H74.8906V109.152H81.6992V109.867H73.9883ZM84.2188 105.754V104.992H85.6484V100.82H84.4414V100.07H90.6406V100.82H89.3984V104.922C89.7812 104.922 90.2891 104.891 90.9219 104.828V105.543C89.5234 105.684 87.9883 105.754 86.3164 105.754H84.2188ZM86.5039 104.992H86.9727C87.2305 104.992 87.7578 104.98 88.5547 104.957V100.82H86.5039V104.992ZM90.6523 104.465V103.715H92.5508V101.945H90.6523V101.195H92.5508V99.3672H93.4531V107.348H92.5508V104.465H90.6523ZM86.3398 109.715V106.492H87.2422V108.906H93.8047V109.715H86.3398ZM97.0977 100.363V99.625H100.977V100.363H97.0977ZM95.5391 102.016V101.277H102.148V102.016H95.5391ZM96.043 104.207C96.043 103.723 96.3281 103.348 96.8984 103.082C97.4766 102.816 98.1836 102.684 99.0195 102.684C99.8555 102.684 100.559 102.816 101.129 103.082C101.707 103.34 101.996 103.715 101.996 104.207C101.996 104.691 101.711 105.07 101.141 105.344C100.57 105.609 99.8633 105.742 99.0195 105.742C98.1758 105.742 97.4688 105.609 96.8984 105.344C96.3281 105.07 96.043 104.691 96.043 104.207ZM97.0039 104.207C97.0039 104.48 97.1953 104.691 97.5781 104.84C97.9688 104.988 98.4492 105.062 99.0195 105.062C99.582 105.062 100.059 104.988 100.449 104.84C100.84 104.691 101.035 104.48 101.035 104.207C101.035 103.926 100.844 103.715 100.461 103.574C100.078 103.434 99.5977 103.363 99.0195 103.363C98.4336 103.363 97.9492 103.438 97.5664 103.586C97.1914 103.727 97.0039 103.934 97.0039 104.207ZM103.613 106.129V99.3672H104.516V102.613H105.98V103.422H104.516V106.129H103.613ZM97.4258 109.996V106.762H104.516V109.996H97.4258ZM98.3281 109.246H103.613V107.5H98.3281V109.246ZM111.43 100.891V100.047H114.688V100.891H111.43ZM110.223 103.023V102.203H115.59V103.023H110.223ZM110.598 106.211C110.598 105.578 110.824 105.059 111.277 104.652C111.73 104.238 112.312 104.031 113.023 104.031C113.734 104.031 114.316 104.238 114.77 104.652C115.223 105.066 115.449 105.59 115.449 106.223C115.449 106.848 115.223 107.371 114.77 107.793C114.316 108.207 113.734 108.414 113.023 108.414C112.312 108.414 111.73 108.203 111.277 107.781C110.824 107.359 110.598 106.836 110.598 106.211ZM111.5 106.211C111.5 106.602 111.645 106.934 111.934 107.207C112.223 107.473 112.586 107.605 113.023 107.605C113.445 107.605 113.805 107.473 114.102 107.207C114.398 106.934 114.547 106.602 114.547 106.211C114.547 105.812 114.402 105.484 114.113 105.227C113.824 104.961 113.461 104.828 113.023 104.828C112.578 104.828 112.211 104.961 111.922 105.227C111.641 105.492 111.5 105.82 111.5 106.211ZM116.445 109.574V99.6719H117.254V104.09H118.719V99.3672H119.574V110.055H118.719V104.945H117.254V109.574H116.445ZM122.082 104.758C122.535 104.57 123 104.328 123.477 104.031C123.953 103.727 124.402 103.383 124.824 103C125.254 102.617 125.605 102.195 125.879 101.734C126.152 101.273 126.289 100.824 126.289 100.387V99.8359H127.191V100.387C127.191 100.824 127.332 101.277 127.613 101.746C127.902 102.207 128.266 102.629 128.703 103.012C129.141 103.395 129.59 103.734 130.051 104.031C130.52 104.328 130.965 104.562 131.387 104.734L130.871 105.402C130.113 105.09 129.316 104.602 128.48 103.938C127.652 103.266 127.074 102.59 126.746 101.91C126.434 102.582 125.871 103.246 125.059 103.902C124.246 104.559 123.426 105.066 122.598 105.426L122.082 104.758ZM121.473 108.801V108.016H126.266V105.051H127.191V108.016H131.926V108.801H121.473ZM134.574 103.387V101.148H141.043V100.234H134.504V99.5547H141.957V101.77H135.488V102.707H142.215V103.387H134.574ZM133.016 105.004V104.324H143.457V105.004H133.016ZM134.598 109.867V107.57H141.043V106.656H134.516V105.965H141.945V108.203H135.5V109.176H142.25V109.867H134.598ZM148.648 101.875C148.648 101.203 148.918 100.668 149.457 100.27C150.004 99.8633 150.695 99.6602 151.531 99.6602C152.352 99.6602 153.035 99.8633 153.582 100.27C154.129 100.668 154.402 101.203 154.402 101.875C154.402 102.547 154.129 103.086 153.582 103.492C153.043 103.891 152.359 104.09 151.531 104.09C150.68 104.09 149.984 103.891 149.445 103.492C148.914 103.086 148.648 102.547 148.648 101.875ZM149.574 101.875C149.574 102.312 149.762 102.672 150.137 102.953C150.512 103.234 150.977 103.375 151.531 103.375C152.086 103.375 152.547 103.234 152.914 102.953C153.289 102.664 153.477 102.305 153.477 101.875C153.477 101.445 153.289 101.09 152.914 100.809C152.547 100.52 152.086 100.375 151.531 100.375C150.992 100.375 150.531 100.52 150.148 100.809C149.766 101.098 149.574 101.453 149.574 101.875ZM156.125 110.055V99.3672H157.027V110.055H156.125ZM147.805 106.258V105.496H149.141C151.719 105.496 153.902 105.371 155.691 105.121V105.871C154.73 106.012 153.461 106.121 151.883 106.199V109.879H150.98V106.223C150.363 106.246 149.746 106.258 149.129 106.258H147.805ZM160.484 100.891V100.047H163.742V100.891H160.484ZM159.277 103.023V102.203H164.645V103.023H159.277ZM159.652 106.211C159.652 105.578 159.879 105.059 160.332 104.652C160.785 104.238 161.367 104.031 162.078 104.031C162.789 104.031 163.371 104.238 163.824 104.652C164.277 105.066 164.504 105.59 164.504 106.223C164.504 106.848 164.277 107.371 163.824 107.793C163.371 108.207 162.789 108.414 162.078 108.414C161.367 108.414 160.785 108.203 160.332 107.781C159.879 107.359 159.652 106.836 159.652 106.211ZM160.555 106.211C160.555 106.602 160.699 106.934 160.988 107.207C161.277 107.473 161.641 107.605 162.078 107.605C162.5 107.605 162.859 107.473 163.156 107.207C163.453 106.934 163.602 106.602 163.602 106.211C163.602 105.812 163.457 105.484 163.168 105.227C162.879 104.961 162.516 104.828 162.078 104.828C161.633 104.828 161.266 104.961 160.977 105.227C160.695 105.492 160.555 105.82 160.555 106.211ZM165.5 109.574V99.6719H166.309V104.09H167.773V99.3672H168.629V110.055H167.773V104.945H166.309V109.574H165.5ZM175.203 100.305V99.5898H179.07V100.305H175.203ZM173.504 105.215C174.301 104.926 175.008 104.547 175.625 104.078C176.25 103.609 176.578 103.117 176.609 102.602V102.191H173.902V101.453H180.207V102.191H177.641V102.566C177.656 102.816 177.758 103.07 177.945 103.328C178.141 103.578 178.387 103.812 178.684 104.031C178.98 104.242 179.27 104.426 179.551 104.582C179.84 104.738 180.133 104.883 180.43 105.016L179.938 105.625C179.445 105.414 178.922 105.125 178.367 104.758C177.812 104.391 177.406 104.031 177.148 103.68C176.883 104.07 176.445 104.473 175.836 104.887C175.234 105.301 174.625 105.617 174.008 105.836L173.504 105.215ZM181.543 105.883V99.3672H182.445V102.496H183.91V103.305H182.445V105.883H181.543ZM175.449 109.938V106.445H182.445V109.938H175.449ZM176.352 109.164H181.543V107.219H176.352V109.164ZM186.441 101.184V100.375H194.094C194.094 102.383 193.867 104.348 193.414 106.27H192.512C192.73 105.395 192.898 104.484 193.016 103.539C193.133 102.594 193.191 101.809 193.191 101.184H186.441ZM184.988 108.637V107.852H189.031V103.844H189.934V107.852H195.441V108.637H184.988ZM198.102 100.176V99.4492H202.027V100.176H198.102ZM196.52 101.699V100.984H203.234V101.699H196.52ZM197.023 103.668C197.023 103.215 197.312 102.875 197.891 102.648C198.477 102.414 199.199 102.297 200.059 102.297C200.902 102.297 201.617 102.414 202.203 102.648C202.789 102.875 203.082 103.219 203.082 103.68C203.082 104.133 202.789 104.48 202.203 104.723C201.625 104.957 200.91 105.074 200.059 105.074C199.207 105.074 198.488 104.957 197.902 104.723C197.316 104.48 197.023 104.129 197.023 103.668ZM197.984 103.668C197.984 103.91 198.18 104.094 198.57 104.219C198.961 104.344 199.457 104.406 200.059 104.406C200.637 104.406 201.125 104.348 201.523 104.23C201.922 104.105 202.121 103.918 202.121 103.668C202.121 103.191 201.434 102.953 200.059 102.953C199.449 102.953 198.949 103.012 198.559 103.129C198.176 103.246 197.984 103.426 197.984 103.668ZM204.699 105.438V99.3672H205.602V102.074H207.043V102.883H205.602V105.438H204.699ZM198.301 109.984V107.617H204.699V106.645H198.219V105.953H205.602V108.25H199.203V109.281H205.965V109.984H198.301ZM208.414 107.887C209.555 106.957 210.414 105.902 210.992 104.723C211.578 103.535 211.875 102.387 211.883 101.277H208.824V100.469H212.844C212.844 103.656 211.594 106.312 209.094 108.438L208.414 107.887ZM216.77 110.055V99.3672H217.637V110.055H216.77ZM212.527 104.711V103.855H214.449V99.6719H215.281V109.574H214.449V104.711H212.527ZM220.766 102.602C220.766 101.797 221.152 101.16 221.926 100.691C222.707 100.223 223.68 99.9883 224.844 99.9883C225.578 99.9883 226.25 100.09 226.859 100.293C227.477 100.488 227.973 100.789 228.348 101.195C228.73 101.594 228.922 102.062 228.922 102.602C228.922 103.406 228.531 104.043 227.75 104.512C226.969 104.98 226 105.215 224.844 105.215C223.664 105.215 222.688 104.98 221.914 104.512C221.148 104.035 220.766 103.398 220.766 102.602ZM221.762 102.602C221.762 103.156 222.066 103.605 222.676 103.949C223.285 104.285 224.008 104.453 224.844 104.453C225.703 104.453 226.43 104.281 227.023 103.938C227.625 103.594 227.926 103.148 227.926 102.602C227.926 102.055 227.625 101.609 227.023 101.266C226.422 100.922 225.695 100.75 224.844 100.75C224.023 100.75 223.305 100.922 222.688 101.266C222.07 101.609 221.762 102.055 221.762 102.602ZM219.582 108.871V108.086H222.113V105.637H223.004V108.086H226.672V105.637H227.562V108.086H230.035V108.871H219.582ZM231.723 109.117V107.77H233.199V109.117H231.723ZM232.883 106.562H232.051L231.945 100.211H232.988L232.883 106.562Z" fill="black"/>
<path d="M116.823 4.42641L117 4.60441L117.177 4.42641C118.028 3.57101 119.261 3.08337 120.562 3.08337C122.834 3.08337 124.667 4.68936 124.667 6.64421C124.667 7.93268 124.043 9.10989 122.735 10.513C121.45 11.8909 119.539 13.4503 117 15.5161C114.46 13.4504 112.55 11.8909 111.264 10.5229C109.955 9.12883 109.333 7.97331 109.333 6.72921C109.333 4.76091 111.086 3.08337 113.342 3.08337C114.741 3.08337 115.973 3.57261 116.823 4.42641ZM109.791 11.9056C111.323 13.0495 113.055 14.7464 115.345 17C113.055 19.2536 111.323 20.9509 109.802 22.095C108.246 23.265 106.941 23.8334 105.521 23.8334C103.249 23.8334 101.417 22.2274 101.417 20.2725C101.417 19.0465 101.951 17.9563 102.906 17.1956L103.151 17L102.906 16.8045C101.949 16.042 101.417 14.9508 101.417 13.8125C101.417 11.8442 103.169 10.1667 105.426 10.1667C106.895 10.1667 108.225 10.7365 109.791 11.9056ZM124.211 22.0946C122.681 20.9507 120.952 19.2537 118.67 17C120.952 14.7464 122.681 13.0491 124.2 11.905C125.753 10.7351 127.059 10.1667 128.479 10.1667C130.75 10.1667 132.583 11.7727 132.583 13.7275C132.583 14.9536 132.049 16.0437 131.094 16.8045L130.849 17L131.094 17.1956C132.051 17.9581 132.583 19.0493 132.583 20.1875C132.583 22.1558 130.83 23.8334 128.574 23.8334C127.105 23.8334 125.775 23.2636 124.211 22.0946ZM117.177 29.5737L117 29.3957L116.823 29.5737C115.971 30.4291 114.739 30.9167 113.437 30.9167C111.166 30.9167 109.333 29.3107 109.333 27.3559C109.333 26.0674 109.957 24.8902 111.265 23.4871C112.55 22.1091 114.46 20.5498 117 18.484C119.539 20.5497 121.45 22.1092 122.735 23.4772C124.045 24.8713 124.667 26.0268 124.667 27.2709C124.667 29.2392 122.914 30.9167 120.657 30.9167C119.259 30.9167 118.027 30.4275 117.177 29.5737Z" fill="#FFFBA6" stroke="black" stroke-width="0.5"/>
</svg>
