<svg width="322" height="126" viewBox="0 0 322 126" fill="none" xmlns="http://www.w3.org/2000/svg">
<path d="M71.1484 64.7578V46.6719H73.0039V64.7578H71.1484ZM58.3359 54.6602C58.3359 52.5898 58.7396 50.9036 59.5469 49.6016C60.3672 48.2995 61.4935 47.6484 62.9258 47.6484C64.332 47.6484 65.4453 48.2995 66.2656 49.6016C67.099 50.8906 67.5156 52.5768 67.5156 54.6602C67.5156 56.7435 67.112 58.4362 66.3047 59.7383C65.4974 61.0273 64.3711 61.6719 62.9258 61.6719C61.4805 61.6719 60.3542 61.0208 59.5469 59.7188C58.7396 58.4167 58.3359 56.7305 58.3359 54.6602ZM60.2109 54.6602C60.2109 56.2096 60.4388 57.4922 60.8945 58.5078C61.3503 59.5234 62.0273 60.0312 62.9258 60.0312C63.8242 60.0312 64.5013 59.5234 64.957 58.5078C65.4128 57.4792 65.6406 56.1966 65.6406 54.6602C65.6406 53.1107 65.4128 51.8346 64.957 50.832C64.5013 49.8164 63.8242 49.3086 62.9258 49.3086C62.0143 49.3086 61.3307 49.8229 60.875 50.8516C60.4323 51.8672 60.2109 53.1367 60.2109 54.6602ZM80.4258 64.3672V59.3086H82.2617V62.7852H93.1797V64.3672H80.4258ZM87.7109 53.3125V51.7109H90.7969V46.6719H92.6328V60.3242H90.7969V53.3125H87.7109ZM78.0625 57.9023V52.043H85.1133V49.2109H77.9844V47.707H86.9102V53.4883H79.8594V56.418H80.4648C83.1341 56.418 85.7383 56.2812 88.2773 56.0078V57.4336C85.4518 57.7461 82.3464 57.9023 78.9609 57.9023H78.0625ZM100.836 62.5703V60.9883H118.492V62.5703H100.836ZM103.473 57.5312V47.8633H105.309V51.0859H114.156V47.8633H116.012V57.5312H103.473ZM105.309 55.9297H114.156V52.6289H105.309V55.9297ZM124.02 64.3477V59.4062H125.836V62.7656H136.969V64.3477H124.02ZM130.973 60.0703V46.9062H132.555V52.5703H134.82V46.6719H136.539V60.5H134.82V54.1914H132.555V60.0703H130.973ZM121.637 57.8242V52.082H127.301V49.3477H121.559V47.8633H129.059V53.5078H123.395V56.3398H123.883C126.083 56.3398 128.199 56.2292 130.23 56.0078V57.4141C127.757 57.6875 125.165 57.8242 122.457 57.8242H121.637ZM139.742 62.5703V60.9883H157.398V62.5703H139.742ZM142.398 56.7305V48.2148H154.977V49.8164H144.254V55.1289H155.074V56.7305H142.398ZM161.988 64.2109V58.5859H163.824V62.5898H174.879V64.2109H161.988ZM159.215 57.1797V55.6367H176.852V57.1797H159.215ZM161.949 52.8633V46.9844H163.785V51.3398H174.801V52.8633H161.949ZM187.047 64.4844V59.9141H197.926V58.2734H186.93V56.75H199.742V61.2617H188.863V62.9805H200.211V64.4844H187.047ZM193.219 54.1133V52.5703H197.906V50.5781H193.219V49.0547H197.906V46.6719H199.742V56.0273H197.906V54.1133H193.219ZM184.918 55.2852V47.1211H186.715V49.6602H191.969V47.1211H193.766V55.2852H184.918ZM186.715 53.8008H191.969V51.125H186.715V53.8008ZM202.984 62.9805V61.3984H210.992V57.5703H212.887V61.3984H220.641V62.9805H202.984ZM205.641 58.3125V52.2969H216.305V49.4258H205.523V47.8047H218.141V53.8203H207.457V56.6914H218.453V58.3125H205.641ZM236.949 64.7578V46.6719H238.727V64.7578H236.949ZM230.133 55.4219V53.6836H233.141V47.1797H234.82V63.957H233.141V55.4219H230.133ZM223.316 54.6797C223.316 52.6224 223.642 50.9622 224.293 49.6992C224.944 48.4232 225.895 47.7852 227.145 47.7852C228.368 47.7852 229.306 48.4167 229.957 49.6797C230.621 50.9427 230.953 52.6094 230.953 54.6797C230.953 56.737 230.628 58.4036 229.977 59.6797C229.326 60.9427 228.382 61.5742 227.145 61.5742C225.882 61.5742 224.924 60.9427 224.273 59.6797C223.635 58.4167 223.316 56.75 223.316 54.6797ZM225.152 54.6797C225.152 56.2292 225.309 57.4922 225.621 58.4688C225.934 59.4453 226.441 59.9336 227.145 59.9336C227.626 59.9336 228.017 59.6797 228.316 59.1719C228.629 58.651 228.837 58.0195 228.941 57.2773C229.059 56.5221 229.117 55.6562 229.117 54.6797C229.117 51.1641 228.46 49.4062 227.145 49.4062C226.78 49.4062 226.461 49.556 226.188 49.8555C225.914 50.1419 225.706 50.5456 225.562 51.0664C225.419 51.5742 225.315 52.1276 225.25 52.7266C225.185 53.3125 225.152 53.9635 225.152 54.6797ZM241.891 62.8438V61.2227H246.07V57.2773H247.887V61.2227H253.648V57.2773H255.465V61.2227H259.547V62.8438H241.891ZM243.824 52.1602C243.824 51.2357 244.143 50.4284 244.781 49.7383C245.419 49.0482 246.259 48.5339 247.301 48.1953C248.342 47.8438 249.501 47.668 250.777 47.668C252.717 47.668 254.358 48.0716 255.699 48.8789C257.053 49.6862 257.73 50.7799 257.73 52.1602C257.73 53.5404 257.06 54.6406 255.719 55.4609C254.378 56.2682 252.73 56.6719 250.777 56.6719C248.785 56.6719 247.125 56.2682 245.797 55.4609C244.482 54.6406 243.824 53.5404 243.824 52.1602ZM245.855 52.1602C245.855 53.0716 246.337 53.8008 247.301 54.3477C248.264 54.8815 249.423 55.1484 250.777 55.1484C252.171 55.1484 253.336 54.875 254.273 54.3281C255.224 53.7812 255.699 53.0586 255.699 52.1602C255.699 51.2747 255.224 50.5586 254.273 50.0117C253.323 49.4648 252.158 49.1914 250.777 49.1914C249.449 49.1914 248.297 49.4648 247.32 50.0117C246.344 50.5586 245.855 51.2747 245.855 52.1602ZM262.281 63.1562V60.6758H265.016V63.1562H262.281ZM264.527 58.8398H262.789L262.613 48.0586H264.684L264.527 58.8398Z" fill="black"/>
<path d="M0.980469 93.5234V82.0625H3.44141V82.8125H1.89453V92.7852H3.44141V93.5234H0.980469ZM5.63281 87.0781C5.63281 85.8594 5.86328 84.8672 6.32422 84.1016C6.79297 83.3359 7.4375 82.9531 8.25781 82.9531C9.07031 82.9531 9.71094 83.3359 10.1797 84.1016C10.6562 84.8672 10.8945 85.8594 10.8945 87.0781C10.8945 88.2891 10.6602 89.2773 10.1914 90.043C9.73047 90.8086 9.08594 91.1914 8.25781 91.1914C7.42188 91.1914 6.77344 90.8125 6.3125 90.0547C5.85938 89.2891 5.63281 88.2969 5.63281 87.0781ZM6.55859 87.0781C6.55859 88.0312 6.69922 88.8203 6.98047 89.4453C7.26953 90.0625 7.69531 90.3711 8.25781 90.3711C8.82031 90.3711 9.24609 90.0547 9.53516 89.4219C9.82422 88.7891 9.96875 88.0078 9.96875 87.0781C9.96875 86.1328 9.82422 85.3477 9.53516 84.7227C9.24609 84.0898 8.82031 83.7734 8.25781 83.7734C7.69531 83.7734 7.26953 84.0938 6.98047 84.7344C6.69922 85.3672 6.55859 86.1484 6.55859 87.0781ZM12.9688 93.0547V82.3672H13.8711V86.8438H15.6758V87.7109H13.8711V93.0547H12.9688ZM17.375 87.0781C17.375 85.8594 17.6094 84.8672 18.0781 84.1016C18.5547 83.3359 19.2109 82.9531 20.0469 82.9531C20.8672 82.9531 21.5195 83.3359 22.0039 84.1016C22.4883 84.8672 22.7305 85.8594 22.7305 87.0781C22.7305 88.2891 22.4922 89.2812 22.0156 90.0547C21.5391 90.8203 20.8828 91.2031 20.0469 91.2031C19.2031 91.2031 18.5469 90.8203 18.0781 90.0547C17.6094 89.2891 17.375 88.2969 17.375 87.0781ZM18.3008 87.0781C18.3008 88.0312 18.4492 88.8203 18.7461 89.4453C19.043 90.0703 19.4766 90.3828 20.0469 90.3828C20.6172 90.3828 21.0508 90.0664 21.3477 89.4336C21.6445 88.793 21.793 88.0078 21.793 87.0781C21.793 86.1328 21.6445 85.3477 21.3477 84.7227C21.0586 84.0898 20.625 83.7734 20.0469 83.7734C19.4688 83.7734 19.0312 84.0938 18.7344 84.7344C18.4453 85.3672 18.3008 86.1484 18.3008 87.0781ZM25.0625 93.0547V82.3672H25.9766V93.0547H25.0625ZM29.4102 90.582V83.4219H34.3906V84.207H30.3008V89.7969H30.6992C32.1523 89.7969 33.75 89.6797 35.4922 89.4453V90.1953C33.7422 90.4531 31.8672 90.582 29.8672 90.582H29.4102ZM36.418 93.0547V82.3672H37.332V93.0547H36.418ZM40.2383 92.7852H41.7852V82.8125H40.2383V82.0625H42.6992V93.5234H40.2383V92.7852ZM45.9922 86.9844V82.8828H46.8828V86.2109H47.1992C48.9023 86.2109 50.7383 86.0742 52.707 85.8008V86.5508C50.8086 86.8398 48.7305 86.9844 46.4727 86.9844H45.9922ZM53.5625 88.0859V82.3672H54.4648V88.0859H53.5625ZM47.2344 92.8555V88.7891H54.4648V92.8555H47.2344ZM48.1367 92.0352H53.5625V89.6094H48.1367V92.0352ZM57.2891 87.0781C57.2891 85.8594 57.5234 84.8672 57.9922 84.1016C58.4688 83.3359 59.125 82.9531 59.9609 82.9531C60.7812 82.9531 61.4336 83.3359 61.918 84.1016C62.4023 84.8672 62.6445 85.8594 62.6445 87.0781C62.6445 88.2891 62.4062 89.2812 61.9297 90.0547C61.4531 90.8203 60.7969 91.2031 59.9609 91.2031C59.1172 91.2031 58.4609 90.8203 57.9922 90.0547C57.5234 89.2891 57.2891 88.2969 57.2891 87.0781ZM58.2148 87.0781C58.2148 88.0312 58.3633 88.8203 58.6602 89.4453C58.957 90.0703 59.3906 90.3828 59.9609 90.3828C60.5312 90.3828 60.9648 90.0664 61.2617 89.4336C61.5586 88.793 61.707 88.0078 61.707 87.0781C61.707 86.1328 61.5586 85.3477 61.2617 84.7227C60.9727 84.0898 60.5391 83.7734 59.9609 83.7734C59.3828 83.7734 58.9453 84.0938 58.6484 84.7344C58.3594 85.3672 58.2148 86.1484 58.2148 87.0781ZM64.9766 93.0547V82.3672H65.8906V93.0547H64.9766ZM72.3359 84.3711C72.3359 83.8242 72.6094 83.3945 73.1562 83.082C73.7031 82.7617 74.3906 82.6016 75.2188 82.6016C76.0391 82.6016 76.7266 82.7617 77.2812 83.082C77.8359 83.3945 78.1133 83.8242 78.1133 84.3711C78.1133 84.9258 77.8359 85.3594 77.2812 85.6719C76.7344 85.9844 76.0469 86.1406 75.2188 86.1406C74.375 86.1406 73.6836 85.9844 73.1445 85.6719C72.6055 85.3594 72.3359 84.9258 72.3359 84.3711ZM73.2617 84.3711C73.2617 84.6992 73.4492 84.9609 73.8242 85.1562C74.1992 85.3438 74.6641 85.4375 75.2188 85.4375C75.7734 85.4375 76.2383 85.3438 76.6133 85.1562C76.9961 84.9609 77.1875 84.6992 77.1875 84.3711C77.1875 84.0508 76.9961 83.793 76.6133 83.5977C76.2305 83.4023 75.7656 83.3047 75.2188 83.3047C74.6875 83.3047 74.2266 83.4062 73.8359 83.6094C73.4531 83.8047 73.2617 84.0586 73.2617 84.3711ZM77.2344 89.293V88.6016H79.625V82.3672H80.5156V90.5586H79.625V89.293H77.2344ZM71.3633 87.8047V87.0781H72.4883C74.9805 87.0781 77.1445 86.9453 78.9805 86.6797V87.4062C77.9336 87.5625 76.7383 87.6719 75.3945 87.7344V89.7617H74.5273V87.7695C73.7773 87.793 73.0938 87.8047 72.4766 87.8047H71.3633ZM73.2852 92.7148V89.9609H74.1875V91.9297H80.8203V92.7148H73.2852ZM84.1719 83.7969V82.9531H87.9336V83.7969H84.1719ZM82.707 86.0234V85.1797H89.0117V86.0234H82.707ZM83.2109 89.2695C83.2109 88.6133 83.4727 88.0781 83.9961 87.6641C84.5195 87.2422 85.1992 87.0312 86.0352 87.0312C86.8633 87.0312 87.5391 87.2422 88.0625 87.6641C88.5938 88.0781 88.8594 88.6172 88.8594 89.2812C88.8594 89.9297 88.5977 90.4648 88.0742 90.8867C87.5508 91.3086 86.8711 91.5195 86.0352 91.5195C85.1992 91.5195 84.5195 91.3086 83.9961 90.8867C83.4727 90.457 83.2109 89.918 83.2109 89.2695ZM84.1367 89.2695C84.1367 89.6836 84.3203 90.0273 84.6875 90.3008C85.0625 90.5742 85.5117 90.7109 86.0352 90.7109C86.543 90.7109 86.9844 90.5781 87.3594 90.3125C87.7422 90.0391 87.9336 89.6914 87.9336 89.2695C87.9336 88.8398 87.7461 88.4961 87.3711 88.2383C87.0039 87.9727 86.5586 87.8398 86.0352 87.8398C85.5039 87.8398 85.0547 87.9727 84.6875 88.2383C84.3203 88.5039 84.1367 88.8477 84.1367 89.2695ZM90.4648 93.0547V82.3672H91.3672V87.3711H93.1484V88.2148H91.3672V93.0547H90.4648ZM94.2969 90.7695C94.5781 90.5898 94.8477 90.3906 95.1055 90.1719C95.3711 89.9531 95.6484 89.6797 95.9375 89.3516C96.2344 89.0156 96.4883 88.6641 96.6992 88.2969C96.918 87.9219 97.0977 87.4883 97.2383 86.9961C97.3789 86.5039 97.4492 85.9961 97.4492 85.4727V84.2773H94.9062V83.4219H100.906V84.2773H98.3867V85.4258C98.3867 85.9883 98.4844 86.543 98.6797 87.0898C98.8828 87.6367 99.1445 88.1289 99.4648 88.5664C99.793 88.9961 100.109 89.3672 100.414 89.6797C100.719 89.9922 101.031 90.2656 101.352 90.5L100.73 91.0977C100.207 90.6992 99.668 90.168 99.1133 89.5039C98.5664 88.832 98.1758 88.1797 97.9414 87.5469C97.7617 88.1797 97.3711 88.8711 96.7695 89.6211C96.168 90.3711 95.5547 90.9531 94.9297 91.3672L94.2969 90.7695ZM102.5 93.0547V82.3672H103.414V93.0547H102.5ZM108.91 85.2031C108.91 84.4688 109.172 83.8789 109.695 83.4336C110.227 82.9805 110.902 82.7539 111.723 82.7539C112.535 82.7539 113.207 82.9805 113.738 83.4336C114.27 83.8789 114.535 84.4688 114.535 85.2031C114.535 85.9375 114.27 86.5312 113.738 86.9844C113.215 87.4297 112.543 87.6523 111.723 87.6523C110.887 87.6523 110.207 87.4297 109.684 86.9844C109.168 86.5312 108.91 85.9375 108.91 85.2031ZM109.836 85.2031C109.836 85.7031 110.012 86.1133 110.363 86.4336C110.723 86.7539 111.176 86.9141 111.723 86.9141C112.277 86.9141 112.73 86.7539 113.082 86.4336C113.434 86.1055 113.609 85.6953 113.609 85.2031C113.609 84.7109 113.43 84.3008 113.07 83.9727C112.719 83.6445 112.27 83.4805 111.723 83.4805C111.184 83.4805 110.734 83.6484 110.375 83.9844C110.016 84.3203 109.836 84.7266 109.836 85.2031ZM116.562 87.9688V82.3672H117.465V84.8633H118.93V85.6719H117.465V87.9688H116.562ZM110.434 92.7617V88.6719H111.336V91.9883H111.418C112.027 91.9883 112.719 91.9258 113.492 91.8008V92.5273C112.508 92.6836 111.555 92.7617 110.633 92.7617H110.434ZM114.605 89.1172V88.4375H117.195V89.1172H114.605ZM113.562 90.3711V89.7148H118.238V90.3711H113.562ZM113.82 91.9297C113.82 91.5781 114.02 91.3008 114.418 91.0977C114.824 90.8867 115.32 90.7812 115.906 90.7812C116.492 90.7812 116.988 90.8828 117.395 91.0859C117.801 91.2891 118.004 91.5703 118.004 91.9297C118.004 92.3047 117.801 92.5898 117.395 92.7852C116.996 92.9883 116.5 93.0898 115.906 93.0898C115.305 93.0898 114.805 92.9883 114.406 92.7852C114.016 92.5898 113.82 92.3047 113.82 91.9297ZM114.676 91.9297C114.676 92.1016 114.793 92.2383 115.027 92.3398C115.27 92.4492 115.562 92.5039 115.906 92.5039C116.242 92.5039 116.527 92.4531 116.762 92.3516C117.004 92.2578 117.125 92.1172 117.125 91.9297C117.125 91.75 117.012 91.6133 116.785 91.5195C116.559 91.4258 116.27 91.3789 115.918 91.3789C115.574 91.3789 115.281 91.4258 115.039 91.5195C114.797 91.6055 114.676 91.7422 114.676 91.9297ZM121.672 85.9648V82.5547H122.574V85.2031H129.219V85.9648H121.672ZM120.02 88.5078V87.7578H130.461V88.5078H120.02ZM121.695 92.7031V89.4102H122.598V91.8945H129.277V92.7031H121.695ZM134.387 88.0039C135.113 87.5273 135.742 86.9219 136.273 86.1875C136.812 85.4531 137.082 84.6719 137.082 83.8438V82.8008H137.973V83.832C137.973 84.5586 138.238 85.2617 138.77 85.9414C139.301 86.6133 139.852 87.1328 140.422 87.5L139.859 88.0977C139.438 87.8086 138.992 87.418 138.523 86.9258C138.062 86.4258 137.746 85.9609 137.574 85.5312C137.395 86.0469 137.047 86.5977 136.531 87.1836C136.023 87.7695 135.512 88.2422 134.996 88.6016L134.387 88.0039ZM140.738 88.6719V82.5078H141.535V85.2617H143.129V82.3672H143.984V89.0938H143.129V86.0586H141.535V88.6719H140.738ZM136.367 91.0625C136.367 90.4531 136.719 89.9805 137.422 89.6445C138.125 89.3008 139.074 89.1289 140.27 89.1289C141.473 89.1289 142.43 89.2969 143.141 89.6328C143.852 89.9609 144.207 90.4375 144.207 91.0625C144.207 91.6719 143.844 92.1484 143.117 92.4922C142.398 92.8359 141.449 93.0039 140.27 92.9961C139.059 92.9883 138.105 92.8164 137.41 92.4805C136.715 92.1445 136.367 91.6719 136.367 91.0625ZM137.352 91.0625C137.352 91.4375 137.609 91.7266 138.125 91.9297C138.641 92.125 139.355 92.2227 140.27 92.2227C141.145 92.2227 141.855 92.1211 142.402 91.918C142.957 91.707 143.234 91.4219 143.234 91.0625C143.234 90.6719 142.965 90.3828 142.426 90.1953C141.895 90 141.176 89.9023 140.27 89.9023C139.363 89.9023 138.648 90.0039 138.125 90.207C137.609 90.4023 137.352 90.6875 137.352 91.0625ZM147.031 91.0039V86.7383H151.18V84.1133H146.949V83.3281H152.047V87.5117H147.887V90.2188H148.203C149.867 90.2188 151.621 90.1094 153.465 89.8906V90.6172C151.488 90.875 149.457 91.0039 147.371 91.0039H147.031ZM154.484 93.0547V82.3672H155.398V93.0547H154.484ZM158.621 90.5117V83.457H162.5V84.2422H159.5V89.7383H159.688C160.633 89.7383 161.73 89.6602 162.98 89.5039V90.2422C161.59 90.4219 160.238 90.5117 158.926 90.5117H158.621ZM163.566 92.5742V82.6719H164.387V86.7617H166.191V82.3672H167.07V93.0547H166.191V87.6172H164.387V92.5742H163.566ZM173.598 88.7188V83.0586H174.5V85.0508H180.02V83.0586H180.934V88.7188H173.598ZM174.5 87.9219H180.02V85.8359H174.5V87.9219ZM171.992 91.707V90.9219H182.445V91.707H171.992ZM184.355 88.8945V85.625H187.836V83.8438H184.309V83.1055H188.715V86.3281H185.234V88.1562H185.527C186.902 88.1562 188.215 88.0859 189.465 87.9453V88.6484C187.988 88.8125 186.445 88.8945 184.836 88.8945H184.355ZM189.957 90.2891V82.5078H190.73V85.9531H192.242V82.3672H193.098V90.5703H192.242V86.75H190.73V90.2891H189.957ZM185.773 92.7852V89.9258H186.676V92H193.367V92.7852H185.773ZM196.684 88.2266V83.293H204.055V84.0898H197.586V87.4297H204.102V88.2266H196.684ZM195.055 91.707V90.9219H205.508V91.707H195.055ZM208.156 86.3867V84.1484H214.625V83.2344H208.086V82.5547H215.539V84.7695H209.07V85.707H215.797V86.3867H208.156ZM206.598 88.0039V87.3242H217.039V88.0039H206.598ZM208.18 92.8672V90.5703H214.625V89.6562H208.098V88.9648H215.527V91.2031H209.082V92.1758H215.832V92.8672H208.18ZM222.664 88.2148V83.1875H229.941V88.2148H222.664ZM223.578 87.4297H229.051V83.9609H223.578V87.4297ZM221.047 91.8008V91.0156H225.84V87.7461H226.766V91.0156H231.5V91.8008H221.047ZM234.242 86.9609V82.8477H241.555V83.6211H235.145V86.1875H241.613V86.9609H234.242ZM232.578 89.5742V88.7773H243.031V89.5742H238.285V93.0781H237.383V89.5742H232.578ZM248.48 83.8203V83.0117H251.832V83.8203H248.48ZM247.145 90.9922C247.738 90.5938 248.305 90.0078 248.844 89.2344C249.391 88.4609 249.664 87.6758 249.664 86.8789V85.8242H247.531V85.0273H252.594V85.8242H250.59V86.8555C250.59 87.5508 250.812 88.2539 251.258 88.9648C251.703 89.668 252.184 90.2305 252.699 90.6523L252.09 91.2031C251.785 90.9531 251.43 90.5781 251.023 90.0781C250.625 89.5703 250.332 89.0859 250.145 88.625C249.973 89.0938 249.641 89.625 249.148 90.2188C248.656 90.8125 248.203 91.2578 247.789 91.5547L247.145 90.9922ZM255.793 93.0547V82.3672H256.648V93.0547H255.793ZM251.996 88.2031V87.3477H253.602V82.6719H254.41V92.5742H253.602V88.2031H251.996ZM259.941 87.6289V86.8203H266.621C266.707 85.8906 266.75 85.0352 266.75 84.2539H260.141V83.4453H267.664C267.664 86.2266 267.41 88.7812 266.902 91.1094H265.977C266.219 90.0781 266.406 88.918 266.539 87.6289H259.941ZM258.57 91.5781V90.793H269.023V91.5781H258.57ZM271.59 83.8906V83.0469H274.848V83.8906H271.59ZM270.383 86.0234V85.2031H275.75V86.0234H270.383ZM270.758 89.2109C270.758 88.5781 270.984 88.0586 271.438 87.6523C271.891 87.2383 272.473 87.0312 273.184 87.0312C273.895 87.0312 274.477 87.2383 274.93 87.6523C275.383 88.0664 275.609 88.5898 275.609 89.2227C275.609 89.8477 275.383 90.3711 274.93 90.793C274.477 91.207 273.895 91.4141 273.184 91.4141C272.473 91.4141 271.891 91.2031 271.438 90.7812C270.984 90.3594 270.758 89.8359 270.758 89.2109ZM271.66 89.2109C271.66 89.6016 271.805 89.9336 272.094 90.207C272.383 90.4727 272.746 90.6055 273.184 90.6055C273.605 90.6055 273.965 90.4727 274.262 90.207C274.559 89.9336 274.707 89.6016 274.707 89.2109C274.707 88.8125 274.562 88.4844 274.273 88.2266C273.984 87.9609 273.621 87.8281 273.184 87.8281C272.738 87.8281 272.371 87.9609 272.082 88.2266C271.801 88.4922 271.66 88.8203 271.66 89.2109ZM276.605 92.5742V82.6719H277.414V87.0898H278.879V82.3672H279.734V93.0547H278.879V87.9453H277.414V92.5742H276.605ZM285.395 87.0312C285.809 86.9062 286.223 86.7539 286.637 86.5742C287.059 86.3945 287.473 86.1836 287.879 85.9414C288.285 85.6914 288.621 85.4102 288.887 85.0977C289.152 84.7773 289.297 84.457 289.32 84.1367V83.6328H286.074V82.8477H293.586V83.6328H290.363V84.1367C290.395 84.5586 290.633 84.9766 291.078 85.3906C291.531 85.7969 292.035 86.1328 292.59 86.3984C293.152 86.6641 293.715 86.8711 294.277 87.0195L293.855 87.6641C293.043 87.4453 292.25 87.1055 291.477 86.6445C290.703 86.1758 290.16 85.6875 289.848 85.1797C289.559 85.6562 289.035 86.1289 288.277 86.5977C287.52 87.0586 286.703 87.4258 285.828 87.6992L285.395 87.0312ZM284.562 89.3633V88.5781H295.016V89.3633H290.27V93.0781H289.367V89.3633H284.562ZM295.895 90.8164C297.668 89.207 298.555 87.2148 298.555 84.8398V83.0352H299.445V84.8047C299.445 85.6562 299.586 86.4805 299.867 87.2773C300.148 88.0742 300.453 88.7109 300.781 89.1875C301.117 89.6562 301.477 90.0664 301.859 90.418L301.191 90.9688C300.824 90.6562 300.41 90.1367 299.949 89.4102C299.496 88.6836 299.188 88.0156 299.023 87.4062C298.867 88.0469 298.559 88.7344 298.098 89.4688C297.637 90.1953 297.141 90.8242 296.609 91.3555L295.895 90.8164ZM304.766 93.0547V82.3672H305.633V93.0547H304.766ZM300.723 87.125V86.2812H302.504V82.6719H303.336V92.5742H302.504V87.125H300.723ZM308.809 85.6016C308.809 84.7969 309.195 84.1602 309.969 83.6914C310.75 83.2227 311.723 82.9883 312.887 82.9883C313.621 82.9883 314.293 83.0898 314.902 83.293C315.52 83.4883 316.016 83.7891 316.391 84.1953C316.773 84.5938 316.965 85.0625 316.965 85.6016C316.965 86.4062 316.574 87.043 315.793 87.5117C315.012 87.9805 314.043 88.2148 312.887 88.2148C311.707 88.2148 310.73 87.9805 309.957 87.5117C309.191 87.0352 308.809 86.3984 308.809 85.6016ZM309.805 85.6016C309.805 86.1562 310.109 86.6055 310.719 86.9492C311.328 87.2852 312.051 87.4531 312.887 87.4531C313.746 87.4531 314.473 87.2812 315.066 86.9375C315.668 86.5938 315.969 86.1484 315.969 85.6016C315.969 85.0547 315.668 84.6094 315.066 84.2656C314.465 83.9219 313.738 83.75 312.887 83.75C312.066 83.75 311.348 83.9219 310.73 84.2656C310.113 84.6094 309.805 85.0547 309.805 85.6016ZM307.625 91.8711V91.0859H310.156V88.6367H311.047V91.0859H314.715V88.6367H315.605V91.0859H318.078V91.8711H307.625ZM319.977 92V90.6055H321.453V92H319.977ZM18.582 109V100.223H23.9023V101.02H19.5195V104.184H23.457V104.969H19.5195V109H18.582ZM25.2852 109V100.223H30.7695V101.02H26.2227V104.066H30.3242V104.852H26.2227V108.203H30.8633V109H25.2852ZM32.5508 109V100.223H38.0352V101.02H33.4883V104.066H37.5898V104.852H33.4883V108.203H38.1289V109H32.5508ZM39.8164 109V100.223H40.7539V108.203H44.9258V109H39.8164ZM46.2383 109V100.223H51.5586V101.02H47.1758V104.184H51.1133V104.969H47.1758V109H46.2383ZM53.8789 104.406H56.2461C56.832 104.406 57.2812 104.25 57.5938 103.938C57.9141 103.625 58.0742 103.211 58.0742 102.695C58.0742 102.195 57.9062 101.793 57.5703 101.488C57.2422 101.176 56.7695 101.02 56.1523 101.02H53.8789V104.406ZM52.9414 109V100.223H56.3633C57.2227 100.223 57.8828 100.457 58.3438 100.926C58.8047 101.387 59.0352 101.957 59.0352 102.637C59.0352 103.254 58.8789 103.754 58.5664 104.137C58.2539 104.52 57.9102 104.762 57.5352 104.863C57.8633 105.035 58.1016 105.246 58.25 105.496C58.3984 105.746 58.5195 106.094 58.6133 106.539C58.7148 106.977 58.7852 107.277 58.8242 107.441C58.8711 107.598 58.9492 107.824 59.0586 108.121C59.1758 108.418 59.3164 108.711 59.4805 109H58.4258C58.293 108.75 58.1719 108.484 58.0625 108.203C57.9609 107.914 57.8867 107.68 57.8398 107.5C57.793 107.312 57.7227 107.016 57.6289 106.609C57.5273 106.172 57.3711 105.828 57.1602 105.578C56.957 105.328 56.6289 105.203 56.1758 105.203H53.8789V109H52.9414ZM60.8633 109V100.223H66.3477V101.02H61.8008V104.066H65.9023V104.852H61.8008V108.203H66.4414V109H60.8633ZM68.1289 109V100.223H73.6133V101.02H69.0664V104.066H73.168V104.852H69.0664V108.203H73.707V109H68.1289ZM74.9141 107.934C76.25 107.059 77.3125 106.016 78.1016 104.805C78.8984 103.594 79.3047 102.406 79.3203 101.242H75.4414V100.41H80.2695C80.2695 103.645 78.6953 106.348 75.5469 108.52L74.9141 107.934ZM82.5195 110.055V99.3672H83.4219V104.008H85.2383V104.863H83.4219V110.055H82.5195ZM89.0703 107.77C89.3203 107.559 89.5586 107.332 89.7852 107.09C90.0117 106.848 90.2734 106.52 90.5703 106.105C90.875 105.684 91.1172 105.195 91.2969 104.641C91.4844 104.086 91.5781 103.508 91.5781 102.906V101.254H89.5977V100.445H94.4492V101.254H92.4922V102.824C92.4922 103.34 92.5664 103.844 92.7148 104.336C92.8711 104.828 93.0742 105.27 93.3242 105.66C93.5742 106.051 93.8164 106.383 94.0508 106.656C94.293 106.93 94.543 107.176 94.8008 107.395L94.1797 107.957C93.7734 107.613 93.3555 107.152 92.9258 106.574C92.5039 105.988 92.2148 105.465 92.0586 105.004C91.918 105.496 91.6094 106.078 91.1328 106.75C90.6641 107.422 90.2031 107.949 89.75 108.332L89.0703 107.77ZM97.8242 110.055V99.3672H98.6914V110.055H97.8242ZM93.8281 104.254V103.434H95.5625V99.6719H96.3945V109.574H95.5625V104.254H93.8281ZM101.586 103.188V102.461H103.379V100.352H101.832V99.6133H110.035V100.352H108.488V102.461H110.281V103.188H101.586ZM104.246 102.461H107.609V100.352H104.246V102.461ZM100.684 105.074V104.324H111.125V105.074H106.355V106.68H105.477V105.074H100.684ZM102.289 109.867V106.469H109.566V109.867H102.289ZM103.191 109.105H108.664V107.23H103.191V109.105ZM113.457 101.066C113.457 100.785 113.562 100.539 113.773 100.328C113.992 100.117 114.289 99.9492 114.664 99.8242C115.039 99.6992 115.461 99.6094 115.93 99.5547C116.398 99.4922 116.91 99.4609 117.465 99.4609C118.605 99.4609 119.559 99.5938 120.324 99.8594C121.09 100.125 121.473 100.527 121.473 101.066C121.473 101.441 121.277 101.754 120.887 102.004C120.496 102.246 120.012 102.418 119.434 102.52C118.855 102.621 118.199 102.672 117.465 102.672C116.699 102.672 116.023 102.621 115.438 102.52C114.859 102.41 114.383 102.234 114.008 101.992C113.641 101.742 113.457 101.434 113.457 101.066ZM114.453 101.066C114.453 101.387 114.75 101.617 115.344 101.758C115.938 101.891 116.645 101.957 117.465 101.957C118.301 101.957 119.008 101.887 119.586 101.746C120.172 101.598 120.465 101.371 120.465 101.066C120.465 100.762 120.172 100.539 119.586 100.398C119.008 100.258 118.301 100.188 117.465 100.188C116.676 100.188 115.977 100.258 115.367 100.398C114.758 100.531 114.453 100.754 114.453 101.066ZM112.215 104.383V103.633H122.656V104.383H112.215ZM113.797 109.855V107.266H120.254V106.176H113.715V105.426H121.156V107.957H114.699V109.105H121.461V109.855H113.797ZM126.688 105.344C127.07 105.133 127.43 104.895 127.766 104.629C128.102 104.363 128.438 104.047 128.773 103.68C129.109 103.312 129.375 102.887 129.57 102.402C129.766 101.91 129.863 101.398 129.863 100.867V99.7188H130.754V100.855C130.754 101.348 130.848 101.824 131.035 102.285C131.223 102.746 131.465 103.152 131.762 103.504C132.066 103.855 132.379 104.16 132.699 104.418C133.02 104.676 133.344 104.895 133.672 105.074L133.121 105.684C132.629 105.441 132.094 105.035 131.516 104.465C130.945 103.895 130.547 103.34 130.32 102.801C130.086 103.379 129.672 103.961 129.078 104.547C128.492 105.133 127.891 105.605 127.273 105.965L126.688 105.344ZM132.805 102.812V102.016H135.266V99.3672H136.168V107.242H135.266V102.812H132.805ZM129.078 109.727V106.422H129.98V108.918H136.578V109.727H129.078ZM139.039 104.406V99.625H139.93V101.219H143.328V99.625H144.219V104.406H139.039ZM139.93 103.656H143.328V101.957H139.93V103.656ZM143.855 103.656V102.906H146.844V101.582H143.855V100.832H146.844V99.3672H147.746V104.898H146.844V103.656H143.855ZM140.328 109.867V107.254H146.844V106.141H140.246V105.379H147.746V107.957H141.23V109.117H148.051V109.867H140.328ZM151.215 100.891V100.047H154.473V100.891H151.215ZM150.008 103.023V102.203H155.375V103.023H150.008ZM150.383 106.211C150.383 105.578 150.609 105.059 151.062 104.652C151.516 104.238 152.098 104.031 152.809 104.031C153.52 104.031 154.102 104.238 154.555 104.652C155.008 105.066 155.234 105.59 155.234 106.223C155.234 106.848 155.008 107.371 154.555 107.793C154.102 108.207 153.52 108.414 152.809 108.414C152.098 108.414 151.516 108.203 151.062 107.781C150.609 107.359 150.383 106.836 150.383 106.211ZM151.285 106.211C151.285 106.602 151.43 106.934 151.719 107.207C152.008 107.473 152.371 107.605 152.809 107.605C153.23 107.605 153.59 107.473 153.887 107.207C154.184 106.934 154.332 106.602 154.332 106.211C154.332 105.812 154.188 105.484 153.898 105.227C153.609 104.961 153.246 104.828 152.809 104.828C152.363 104.828 151.996 104.961 151.707 105.227C151.426 105.492 151.285 105.82 151.285 106.211ZM156.23 109.574V99.6719H157.039V104.09H158.504V99.3672H159.359V110.055H158.504V104.945H157.039V109.574H156.23ZM161.188 107.898C163.281 106.273 164.328 104.215 164.328 101.723V99.9414H165.207V101.688C165.207 102.367 165.297 103.027 165.477 103.668C165.656 104.301 165.895 104.863 166.191 105.355C166.488 105.84 166.797 106.262 167.117 106.621C167.438 106.98 167.766 107.289 168.102 107.547L167.457 108.133C166.98 107.797 166.461 107.238 165.898 106.457C165.344 105.668 164.973 104.93 164.785 104.242C164.598 104.961 164.223 105.711 163.66 106.492C163.098 107.273 162.508 107.934 161.891 108.473L161.188 107.898ZM166.977 104.102V103.258H169.73V99.3672H170.633V110.055H169.73V104.102H166.977ZM177.312 105.719V100H178.215V102.016H183.734V100H184.637V105.719H177.312ZM178.215 104.922H183.734V102.801H178.215V104.922ZM175.719 108.801V108.016H180.5V105.191H181.426V108.016H186.172V108.801H175.719ZM188.258 107.594V100.293H189.148V106.773H189.348C190.191 106.773 191.301 106.668 192.676 106.457V107.23C192.012 107.348 191.254 107.438 190.402 107.5C189.559 107.562 188.953 107.594 188.586 107.594H188.258ZM193.215 109.574V99.6719H194.023V103.773H195.852V99.3672H196.719V110.055H195.852V104.617H194.023V109.574H193.215ZM200.41 105.227V100.293H207.781V101.09H201.312V104.43H207.828V105.227H200.41ZM198.781 108.707V107.922H209.234V108.707H198.781ZM211.227 104.289V101.641H215.949V100.457H211.168V99.7539H216.852V102.332H212.117V103.574H212.844C214.375 103.574 216.184 103.469 218.27 103.258V103.938C217.348 104.039 216.262 104.125 215.012 104.195C213.762 104.258 212.828 104.289 212.211 104.289H211.227ZM218.961 104.828V99.3672H219.863V104.828H218.961ZM212.457 109.938V107.277H218.961V106.141H212.375V105.367H219.863V107.98H213.359V109.176H220.168V109.938H212.457ZM225.559 107.77V100.457H227.727V101.242H226.379V106.984H226.52C226.863 106.984 227.32 106.938 227.891 106.844V107.582C227.023 107.707 226.344 107.77 225.852 107.77H225.559ZM228.207 107.77V100.457H230.574V101.242H229.051V106.984H229.168C229.754 106.984 230.332 106.934 230.902 106.832V107.57C230.129 107.703 229.305 107.77 228.43 107.77H228.207ZM231.336 109.574V99.6719H232.133V103.832H233.645V99.3672H234.477V110.055H233.645V104.676H232.133V109.574H231.336ZM236.387 111.039L237.348 107.605H238.648L237.125 111.039H236.387ZM245.105 100.305V99.5898H248.973V100.305H245.105ZM243.406 105.215C244.203 104.926 244.91 104.547 245.527 104.078C246.152 103.609 246.48 103.117 246.512 102.602V102.191H243.805V101.453H250.109V102.191H247.543V102.566C247.559 102.816 247.66 103.07 247.848 103.328C248.043 103.578 248.289 103.812 248.586 104.031C248.883 104.242 249.172 104.426 249.453 104.582C249.742 104.738 250.035 104.883 250.332 105.016L249.84 105.625C249.348 105.414 248.824 105.125 248.27 104.758C247.715 104.391 247.309 104.031 247.051 103.68C246.785 104.07 246.348 104.473 245.738 104.887C245.137 105.301 244.527 105.617 243.91 105.836L243.406 105.215ZM251.445 105.883V99.3672H252.348V102.496H253.812V103.305H252.348V105.883H251.445ZM245.352 109.938V106.445H252.348V109.938H245.352ZM246.254 109.164H251.445V107.219H246.254V109.164ZM256.344 101.184V100.375H263.996C263.996 102.383 263.77 104.348 263.316 106.27H262.414C262.633 105.395 262.801 104.484 262.918 103.539C263.035 102.594 263.094 101.809 263.094 101.184H256.344ZM254.891 108.637V107.852H258.934V103.844H259.836V107.852H265.344V108.637H254.891ZM268.004 100.176V99.4492H271.93V100.176H268.004ZM266.422 101.699V100.984H273.137V101.699H266.422ZM266.926 103.668C266.926 103.215 267.215 102.875 267.793 102.648C268.379 102.414 269.102 102.297 269.961 102.297C270.805 102.297 271.52 102.414 272.105 102.648C272.691 102.875 272.984 103.219 272.984 103.68C272.984 104.133 272.691 104.48 272.105 104.723C271.527 104.957 270.812 105.074 269.961 105.074C269.109 105.074 268.391 104.957 267.805 104.723C267.219 104.48 266.926 104.129 266.926 103.668ZM267.887 103.668C267.887 103.91 268.082 104.094 268.473 104.219C268.863 104.344 269.359 104.406 269.961 104.406C270.539 104.406 271.027 104.348 271.426 104.23C271.824 104.105 272.023 103.918 272.023 103.668C272.023 103.191 271.336 102.953 269.961 102.953C269.352 102.953 268.852 103.012 268.461 103.129C268.078 103.246 267.887 103.426 267.887 103.668ZM274.602 105.438V99.3672H275.504V102.074H276.945V102.883H275.504V105.438H274.602ZM268.203 109.984V107.617H274.602V106.645H268.121V105.953H275.504V108.25H269.105V109.281H275.867V109.984H268.203ZM278.316 107.887C279.457 106.957 280.316 105.902 280.895 104.723C281.48 103.535 281.777 102.387 281.785 101.277H278.727V100.469H282.746C282.746 103.656 281.496 106.312 278.996 108.438L278.316 107.887ZM286.672 110.055V99.3672H287.539V110.055H286.672ZM282.43 104.711V103.855H284.352V99.6719H285.184V109.574H284.352V104.711H282.43ZM290.668 102.602C290.668 101.797 291.055 101.16 291.828 100.691C292.609 100.223 293.582 99.9883 294.746 99.9883C295.48 99.9883 296.152 100.09 296.762 100.293C297.379 100.488 297.875 100.789 298.25 101.195C298.633 101.594 298.824 102.062 298.824 102.602C298.824 103.406 298.434 104.043 297.652 104.512C296.871 104.98 295.902 105.215 294.746 105.215C293.566 105.215 292.59 104.98 291.816 104.512C291.051 104.035 290.668 103.398 290.668 102.602ZM291.664 102.602C291.664 103.156 291.969 103.605 292.578 103.949C293.188 104.285 293.91 104.453 294.746 104.453C295.605 104.453 296.332 104.281 296.926 103.938C297.527 103.594 297.828 103.148 297.828 102.602C297.828 102.055 297.527 101.609 296.926 101.266C296.324 100.922 295.598 100.75 294.746 100.75C293.926 100.75 293.207 100.922 292.59 101.266C291.973 101.609 291.664 102.055 291.664 102.602ZM289.484 108.871V108.086H292.016V105.637H292.906V108.086H296.574V105.637H297.465V108.086H299.938V108.871H289.484ZM301.836 109V107.605H303.312V109H301.836Z" fill="black"/>
<path d="M160.823 4.42641L161 4.60441L161.177 4.42641C162.028 3.57101 163.261 3.08337 164.562 3.08337C166.834 3.08337 168.667 4.68936 168.667 6.64421C168.667 7.93268 168.043 9.10989 166.735 10.513C165.45 11.8909 163.539 13.4503 161 15.5161C158.46 13.4504 156.55 11.8909 155.264 10.5229C153.955 9.12883 153.333 7.97331 153.333 6.72921C153.333 4.76091 155.086 3.08337 157.342 3.08337C158.741 3.08337 159.973 3.57261 160.823 4.42641ZM153.791 11.9056C155.323 13.0495 157.055 14.7464 159.345 17C157.055 19.2536 155.323 20.9509 153.802 22.095C152.246 23.265 150.941 23.8334 149.521 23.8334C147.249 23.8334 145.417 22.2274 145.417 20.2725C145.417 19.0465 145.951 17.9563 146.906 17.1956L147.151 17L146.906 16.8045C145.949 16.042 145.417 14.9508 145.417 13.8125C145.417 11.8442 147.169 10.1667 149.426 10.1667C150.895 10.1667 152.225 10.7365 153.791 11.9056ZM168.211 22.0946C166.681 20.9507 164.952 19.2537 162.67 17C164.952 14.7464 166.681 13.0491 168.2 11.905C169.753 10.7351 171.059 10.1667 172.479 10.1667C174.75 10.1667 176.583 11.7727 176.583 13.7275C176.583 14.9536 176.049 16.0437 175.094 16.8045L174.849 17L175.094 17.1956C176.051 17.9581 176.583 19.0493 176.583 20.1875C176.583 22.1558 174.83 23.8334 172.574 23.8334C171.105 23.8334 169.775 23.2636 168.211 22.0946ZM161.177 29.5737L161 29.3957L160.823 29.5737C159.971 30.4291 158.739 30.9167 157.437 30.9167C155.166 30.9167 153.333 29.3107 153.333 27.3559C153.333 26.0674 153.957 24.8902 155.265 23.4871C156.55 22.1091 158.46 20.5498 161 18.484C163.539 20.5497 165.45 22.1092 166.735 23.4772C168.045 24.8713 168.667 26.0268 168.667 27.2709C168.667 29.2392 166.914 30.9167 164.657 30.9167C163.259 30.9167 162.027 30.4275 161.177 29.5737Z" fill="#FFFBA6" stroke="black" stroke-width="0.5"/>
</svg>
