<svg width="73" height="72" viewBox="0 0 73 72" fill="none" xmlns="http://www.w3.org/2000/svg">
<path d="M36.198 9.20473L36.3827 9.41053L36.5689 9.20612C38.244 7.36723 40.6501 6.33607 43.1726 6.34549C47.5643 6.3619 51.1945 9.80561 51.1784 14.1083C51.1679 16.9173 49.9193 19.4459 47.4032 22.3941C44.9111 25.314 41.2045 28.6132 36.2946 32.977C31.4177 28.5767 27.7353 25.2499 25.2648 22.3329C22.7695 19.3868 21.5415 16.8939 21.5516 14.1757C21.5677 9.85875 25.0579 6.27783 29.4351 6.29418C32.141 6.30429 34.5383 7.35525 36.198 9.20473ZM9.33497 35.8333L9.54988 35.6462L9.33638 35.4575C7.46929 33.8071 6.42386 31.4385 6.43313 28.9574C6.44926 24.6404 9.93938 21.0595 14.3166 21.0759C17.172 21.0865 19.7409 22.3184 22.7338 24.7971C25.6973 27.2514 29.0456 30.9013 33.4738 35.7356C29.0097 40.5365 25.6342 44.1617 22.6743 46.5942C19.684 49.0516 17.1517 50.2627 14.3884 50.2524C9.99669 50.236 6.36651 46.7923 6.38258 42.4896C6.39253 39.8277 7.45757 37.468 9.33497 35.8333ZM63.2336 35.6588L63.0187 35.8459L63.2322 36.0346C65.0993 37.6851 66.1447 40.0536 66.1355 42.5347C66.1193 46.8517 62.6292 50.4326 58.252 50.4163C55.3966 50.4056 52.8277 49.1737 49.8387 46.6952C46.8789 44.2409 43.538 40.591 39.1244 35.7567C43.5739 30.9556 46.9421 27.3303 49.8982 24.8978C52.8846 22.4405 55.4169 21.2294 58.1802 21.2397C62.5719 21.2561 66.2021 24.6998 66.186 29.0025C66.1761 31.6644 65.111 34.0241 63.2336 35.6588ZM36.3706 62.2874L36.1859 62.0816L35.9997 62.286C34.3246 64.1249 31.9185 65.156 29.396 65.1466C25.0043 65.1302 21.3741 61.6865 21.3902 57.3838C21.4007 54.5748 22.6493 52.0462 25.1654 49.098C27.6575 46.1781 31.3641 42.8789 36.2739 38.5151C41.1509 42.9154 44.8332 46.2422 47.3038 49.1592C49.7991 52.1053 51.0271 54.5982 51.017 57.3164C51.0009 61.6334 47.5107 65.2143 43.1335 65.1979C40.4276 65.1878 38.0303 64.1369 36.3706 62.2874Z" fill="#A7FAF0" stroke="black" stroke-width="0.5"/>
</svg>
