<svg width="67" height="47" viewBox="0 0 67 47" fill="none" xmlns="http://www.w3.org/2000/svg">
<rect x="0.5" y="0.5" width="66" height="46" rx="9.5" fill="white" stroke="black"/>
<rect x="0.5" y="0.5" width="66" height="46" rx="9.5" fill="white" stroke="black"/>
<path d="M13.3457 23.9424V22.9902H15.1328V17.7754H13.624V16.8379H21.373V17.7754H19.8203V22.9023C20.2988 22.9023 20.9336 22.8633 21.7246 22.7852V23.6787C19.9766 23.8545 18.0576 23.9424 15.9678 23.9424H13.3457ZM16.2021 22.9902H16.7881C17.1104 22.9902 17.7695 22.9756 18.7656 22.9463V17.7754H16.2021V22.9902ZM21.3877 22.3311V21.3936H23.7607V19.1816H21.3877V18.2441H23.7607V15.959H24.8887V25.9346H23.7607V22.3311H21.3877ZM15.9971 28.8936V24.8652H17.125V27.8828H25.3281V28.8936H15.9971ZM29.5029 21.7012V16.5596H38.6436V17.5264H30.6309V20.7344H38.7168V21.7012H29.5029ZM27.4229 24.9678V23.9717H40.4893V24.9678H34.5566V29.3477H33.4287V24.9678H27.4229ZM43.8291 21.6572V16.3545H53.1455V17.248H45.001V18.5957H53.043V19.4014H45.001V20.7783H53.248V21.6572H43.8291ZM41.8516 24.0742V23.1953H47.8721V21.335H49V23.1953H54.9033V24.0742H41.8516ZM43.4775 27.209C43.4775 26.5352 43.917 26.0225 44.7959 25.6709C45.6748 25.3193 46.876 25.1436 48.3994 25.1436C49.9229 25.1436 51.1338 25.3193 52.0322 25.6709C52.9404 26.0127 53.3945 26.5254 53.3945 27.209C53.3945 27.873 52.9404 28.3809 52.0322 28.7324C51.1338 29.084 49.9229 29.2598 48.3994 29.2598C46.8564 29.2598 45.6504 29.084 44.7812 28.7324C43.9121 28.3906 43.4775 27.8828 43.4775 27.209ZM44.7373 27.209C44.7373 27.9707 45.9629 28.3516 48.4141 28.3516C49.5176 28.3516 50.416 28.2539 51.1094 28.0586C51.8027 27.873 52.1494 27.5898 52.1494 27.209C52.1494 26.4375 50.9043 26.0518 48.4141 26.0518C47.2812 26.0518 46.3828 26.1494 45.7188 26.3447C45.0645 26.5303 44.7373 26.8184 44.7373 27.209Z" fill="black"/>
</svg>
