<svg width="71" height="63" viewBox="0 0 71 63" fill="none" xmlns="http://www.w3.org/2000/svg">
<path d="M70.5 31.5C70.5 48.5663 54.8878 62.5 35.5 62.5C16.1122 62.5 0.5 48.5663 0.5 31.5C0.5 14.4337 16.1122 0.5 35.5 0.5C54.8878 0.5 70.5 14.4337 70.5 31.5Z" fill="white" stroke="black"/>
<ellipse cx="40.3332" cy="38.9167" rx="2.66667" ry="2.83333" stroke="#33363F" stroke-width="2"/>
<ellipse cx="31.0002" cy="38.9167" rx="2.66667" ry="2.83333" stroke="#33363F" stroke-width="2"/>
<path d="M25.6668 31.8333H33.6668V21.9167M33.6668 21.9167V24.75H24.3335V36.9167C24.3335 38.0212 25.2289 38.9167 26.3335 38.9167H28.3335M33.6668 21.9167H39.0002L45.3145 27.2838C45.538 27.4738 45.6668 27.7524 45.6668 28.0458V30.4167M41.6668 24.75H40.3335V30.4167H45.6668M45.6668 30.4167V36.9167C45.6668 38.0212 44.7714 38.9167 43.6668 38.9167H43.0002M37.6668 38.9167H33.6668" stroke="#33363F" stroke-width="2" stroke-linecap="round" stroke-linejoin="round"/>
</svg>
