<svg width="116" height="48" viewBox="0 0 116 48" fill="none" xmlns="http://www.w3.org/2000/svg">
<rect x="0.5" y="1" width="115" height="46" rx="9.5" fill="white" stroke="black"/>
<path d="M23.6547 27.5645C24.1625 27.1836 24.641 26.749 25.0903 26.2607C25.5395 25.7627 25.9692 25.1963 26.3793 24.5615C26.7895 23.917 27.1117 23.1895 27.3461 22.3789C27.5903 21.5586 27.7123 20.7139 27.7123 19.8447V17.6914H28.8256V19.8154C28.8256 20.5186 28.9184 21.2119 29.1039 21.8955C29.2895 22.5693 29.5141 23.165 29.7778 23.6826C30.0512 24.1904 30.3686 24.6836 30.7299 25.1621C31.101 25.6309 31.433 26.0117 31.726 26.3047C32.0287 26.5977 32.3315 26.8613 32.6342 27.0957L31.8285 27.8574C31.2524 27.4082 30.6029 26.71 29.8803 25.7627C29.1576 24.8154 28.6352 23.8682 28.3129 22.9209C28.059 23.8682 27.5561 24.8447 26.8041 25.8506C26.0619 26.8564 25.31 27.6719 24.5483 28.2969L23.6547 27.5645ZM34.0551 30.3184V16.959H35.1977V30.3184H34.0551ZM39.7973 23.5361V22.5254H48.1469C48.2543 21.3633 48.308 20.2939 48.308 19.3174H40.0463V18.3066H49.4506C49.4506 21.7832 49.1332 24.9766 48.4985 27.8867H47.3412C47.644 26.5977 47.8783 25.1475 48.0444 23.5361H39.7973ZM38.0834 28.4727V27.4912H51.1498V28.4727H38.0834ZM53.7279 25.1182V20.8701H59.4994V18.5557H53.6547V17.6328H60.5981V21.7637H54.8266V24.1953H55.0463C55.6518 24.1953 56.7162 24.1562 58.2397 24.0781C59.7729 23.9902 61.1059 23.8779 62.2387 23.7412V24.6055C61.0473 24.7617 59.6117 24.8887 57.932 24.9863C56.2621 25.0742 55.017 25.1182 54.1967 25.1182H53.7279ZM63.2494 26.5977V16.959H64.3774V26.5977H63.2494ZM54.5922 29.3809C55.7153 29.0977 56.7797 28.6436 57.7856 28.0186C58.7914 27.3936 59.2944 26.7539 59.2944 26.0996V25.6895H60.4223V26.0703C60.4223 26.5293 60.6908 26.998 61.2279 27.4766C61.7748 27.9453 62.3949 28.3408 63.0883 28.6631C63.7914 28.9854 64.4799 29.2246 65.1537 29.3809L64.5971 30.2744C63.6987 30.0498 62.7856 29.6738 61.8578 29.1465C60.9301 28.6191 60.2709 28.0674 59.8803 27.4912C59.4799 28.0674 58.8207 28.6143 57.9028 29.1318C56.9945 29.6592 56.0717 30.0449 55.1342 30.2891L54.5922 29.3809ZM68.2738 27.3154V18.3213H73.4008V19.3027H69.4164V26.334H69.6362C70.8666 26.334 72.3461 26.2314 74.0746 26.0264V26.9639C72.102 27.1982 70.2953 27.3154 68.6547 27.3154H68.2738ZM77.766 30.3184V16.959H78.85V30.3184H77.766ZM72.0092 23.1699V22.1006H74.8656V17.3398H75.891V29.7178H74.8656V23.1699H72.0092ZM82.3217 22.8477C82.3217 21.3242 82.6147 20.084 83.2006 19.127C83.7963 18.1699 84.6166 17.6914 85.6615 17.6914C86.6869 17.6914 87.5024 18.1699 88.1078 19.127C88.7133 20.084 89.016 21.3242 89.016 22.8477C89.016 24.3613 88.7182 25.6016 88.1225 26.5684C87.5268 27.5254 86.7065 28.0039 85.6615 28.0039C84.6069 28.0039 83.7865 27.5254 83.2006 26.5684C82.6147 25.6113 82.3217 24.3711 82.3217 22.8477ZM83.4789 22.8477C83.4789 24.0391 83.6645 25.0254 84.0356 25.8066C84.4067 26.5879 84.9487 26.9785 85.6615 26.9785C86.3744 26.9785 86.9164 26.583 87.2875 25.792C87.6586 24.9912 87.8442 24.0098 87.8442 22.8477C87.8442 21.666 87.6586 20.6846 87.2875 19.9033C86.9262 19.1123 86.3842 18.7168 85.6615 18.7168C84.9389 18.7168 84.392 19.1172 84.0209 19.918C83.6596 20.709 83.4789 21.6855 83.4789 22.8477ZM91.9311 30.3184V16.959H93.0737V30.3184H91.9311Z" fill="black"/>
</svg>
