<svg width="116" height="47" viewBox="0 0 116 47" fill="none" xmlns="http://www.w3.org/2000/svg">
<rect x="0.5" y="0.5" width="115" height="46" rx="9.5" fill="white" stroke="black"/>
<path d="M39.6615 17.5117V16.5742H44.4369V17.5117H39.6615ZM37.7572 19.6797V18.7422H45.8725V19.6797H37.7572ZM38.3725 22.6094C38.3725 21.9746 38.724 21.4766 39.4272 21.1152C40.1303 20.7539 40.9994 20.5732 42.0346 20.5732C43.06 20.5732 43.9242 20.7539 44.6274 21.1152C45.3305 21.4668 45.682 21.9648 45.682 22.6094C45.682 23.2441 45.3305 23.7471 44.6274 24.1182C43.934 24.4893 43.0697 24.6748 42.0346 24.6748C40.9994 24.6748 40.1303 24.4893 39.4272 24.1182C38.724 23.7471 38.3725 23.2441 38.3725 22.6094ZM39.559 22.6094C39.559 22.9707 39.7983 23.2588 40.2768 23.4736C40.7553 23.6787 41.3412 23.7812 42.0346 23.7812C42.7084 23.7812 43.2846 23.6787 43.7631 23.4736C44.2514 23.2686 44.4955 22.9805 44.4955 22.6094C44.4955 22.2285 44.2612 21.9404 43.7924 21.7451C43.3237 21.5498 42.7377 21.4521 42.0346 21.4521C41.3217 21.4521 40.7309 21.5547 40.2621 21.7598C39.7934 21.9648 39.559 22.248 39.559 22.6094ZM37.391 27.3848V26.4326H38.8998C42.1615 26.4326 44.8129 26.3203 46.8539 26.0957V27.0332C44.6469 27.2676 41.9906 27.3848 38.8852 27.3848H37.391ZM41.4633 26.8135V24.3232H42.5912V26.8135H41.4633ZM47.352 29.3184V15.959H48.4799V22.5068H50.6039V23.4883H48.4799V29.3184H47.352ZM52.4936 21.8477C52.4936 20.3242 52.7865 19.084 53.3725 18.127C53.9682 17.1699 54.7885 16.6914 55.8334 16.6914C56.8588 16.6914 57.6742 17.1699 58.2797 18.127C58.8852 19.084 59.1879 20.3242 59.1879 21.8477C59.1879 23.3613 58.8901 24.6016 58.2944 25.5684C57.6987 26.5254 56.8783 27.0039 55.8334 27.0039C54.7787 27.0039 53.9584 26.5254 53.3725 25.5684C52.7865 24.6113 52.4936 23.3711 52.4936 21.8477ZM53.6508 21.8477C53.6508 23.0391 53.8363 24.0254 54.2074 24.8066C54.5785 25.5879 55.1205 25.9785 55.8334 25.9785C56.5463 25.9785 57.0883 25.583 57.4594 24.792C57.8305 23.9912 58.016 23.0098 58.016 21.8477C58.016 20.666 57.8305 19.6846 57.4594 18.9033C57.0981 18.1123 56.5561 17.7168 55.8334 17.7168C55.1108 17.7168 54.5639 18.1172 54.1928 18.918C53.8315 19.709 53.6508 20.6855 53.6508 21.8477ZM62.1029 29.3184V15.959H63.2455V29.3184H62.1029ZM67.9184 24.3379V17.0723H77.308V18.0684H69.0903V20.2363H77.1762V21.1738H69.0903V23.3564H77.3959V24.3379H67.9184ZM65.9115 27.8242V26.8428H78.9779V27.8242H65.9115Z" fill="black"/>
</svg>
