<svg width="57" height="47" viewBox="0 0 57 47" fill="none" xmlns="http://www.w3.org/2000/svg">
<rect x="0.5" y="0.5" width="56" height="46" rx="9.5" fill="white" stroke="black"/>
<path d="M16.5469 17.7607V16.7646H26.0537C26.0537 18.835 25.8096 20.8711 25.3213 22.873H24.1934C24.418 21.9844 24.5938 21.0566 24.7207 20.0898C24.8574 19.123 24.9258 18.3467 24.9258 17.7607H16.5469ZM14.7158 23.6055V22.624H27.7822V23.6055H21.8057V29.3477H20.6777V23.6055H14.7158ZM31.1367 24.4258V16.9258H40.4531V17.9219H32.3086V20.1924H40.3359V21.1445H32.3086V23.4297H40.5557V24.4258H31.1367ZM29.1299 27.9561V26.9746H35.1797V24.0303H36.3369V26.9746H42.1963V27.9561H29.1299Z" fill="black"/>
</svg>
