<svg width="116" height="47" viewBox="0 0 116 47" fill="none" xmlns="http://www.w3.org/2000/svg">
<rect x="0.5" y="0.5" width="115" height="46" rx="9.5" fill="white" stroke="black"/>
<path d="M31.8432 27.2109V17.3672H32.9565V21.1172H36.9408V17.3672H38.0541V27.2109H31.8432ZM32.9565 26.1855H36.9408V22.1572H32.9565V26.1855ZM40.7787 29.8184V16.459H41.9067V22.1133H44.1625V23.1973H41.9067V29.8184H40.7787ZM46.9164 26.7275V17.7773H53.142V18.7588H48.0297V25.7461H48.5278C50.3442 25.7461 52.3412 25.5996 54.519 25.3066V26.2441C52.3315 26.5664 49.9877 26.7275 47.4877 26.7275H46.9164ZM55.6762 29.8184V16.459H56.8188V29.8184H55.6762ZM60.0561 27.1816V26.1562H62.0336V18.8174H60.3637V17.7773H68.7865V18.8174H67.0727V26.0537C67.8246 26.0146 68.5229 25.9658 69.1674 25.9072V26.8887C67.3315 27.084 65.1391 27.1816 62.5903 27.1816H60.0561ZM63.1469 26.1562L64.099 26.1416C64.226 26.1416 64.5434 26.1367 65.0512 26.127C65.5688 26.1172 65.8715 26.1123 65.9594 26.1123V18.8174H63.1469V26.1562ZM70.31 29.8184V16.459H71.4526V29.8184H70.31ZM76.1254 24.8379V17.5723H85.5151V18.5684H77.2973V20.7363H85.3832V21.6738H77.2973V23.8564H85.6029V24.8379H76.1254ZM74.1186 28.3242V27.3428H87.185V28.3242H74.1186Z" fill="black"/>
</svg>
