<svg width="101" height="47" viewBox="0 0 101 47" fill="none" xmlns="http://www.w3.org/2000/svg">
<rect x="0.5" y="0.5" width="100" height="46" rx="9.5" fill="white" stroke="black"/>
<rect x="0.5" y="0.5" width="100" height="46" rx="9.5" fill="white" stroke="black"/>
<path d="M22.7023 23.1973C23.2687 22.9629 23.8497 22.6602 24.4454 22.2891C25.0411 21.9082 25.6027 21.4785 26.13 21C26.6671 20.5215 27.1066 19.9941 27.4484 19.418C27.7902 18.8418 27.9611 18.2803 27.9611 17.7334V17.0449H29.089V17.7334C29.089 18.2803 29.2648 18.8467 29.6163 19.4326C29.9777 20.0088 30.4318 20.5361 30.9786 21.0146C31.5255 21.4932 32.087 21.918 32.6632 22.2891C33.2491 22.6602 33.8058 22.9531 34.3331 23.168L33.6886 24.0029C32.7413 23.6123 31.7452 23.002 30.7003 22.1719C29.6652 21.332 28.9425 20.4873 28.5323 19.6377C28.1417 20.4775 27.4386 21.3076 26.423 22.1279C25.4073 22.9482 24.382 23.583 23.3468 24.0322L22.7023 23.1973ZM21.9405 28.251V27.2695H27.9318V23.5635H29.089V27.2695H35.007V28.251H21.9405ZM38.9327 18.0117V17.0742H43.7081V18.0117H38.9327ZM37.0284 20.1797V19.2422H45.1437V20.1797H37.0284ZM37.6437 23.1094C37.6437 22.4746 37.9952 21.9766 38.6984 21.6152C39.4015 21.2539 40.2706 21.0732 41.3058 21.0732C42.3312 21.0732 43.1954 21.2539 43.8986 21.6152C44.6017 21.9668 44.9532 22.4648 44.9532 23.1094C44.9532 23.7441 44.6017 24.2471 43.8986 24.6182C43.2052 24.9893 42.3409 25.1748 41.3058 25.1748C40.2706 25.1748 39.4015 24.9893 38.6984 24.6182C37.9952 24.2471 37.6437 23.7441 37.6437 23.1094ZM38.8302 23.1094C38.8302 23.4707 39.0695 23.7588 39.548 23.9736C40.0265 24.1787 40.6124 24.2812 41.3058 24.2812C41.9796 24.2812 42.5558 24.1787 43.0343 23.9736C43.5226 23.7686 43.7667 23.4805 43.7667 23.1094C43.7667 22.7285 43.5323 22.4404 43.0636 22.2451C42.5948 22.0498 42.0089 21.9521 41.3058 21.9521C40.5929 21.9521 40.0021 22.0547 39.5333 22.2598C39.0646 22.4648 38.8302 22.748 38.8302 23.1094ZM36.6622 27.8848V26.9326H38.171C41.4327 26.9326 44.0841 26.8203 46.1251 26.5957V27.5332C43.9181 27.7676 41.2618 27.8848 38.1564 27.8848H36.6622ZM40.7345 27.3135V24.8232H41.8624V27.3135H40.7345ZM46.6232 29.8184V16.459H47.7511V23.0068H49.8751V23.9883H47.7511V29.8184H46.6232ZM52.7755 21.0439V16.5469H53.9034V17.8799H60.7736V16.5469H61.9015V21.0439H52.7755ZM53.9034 20.1211H60.7736V18.7441H53.9034V20.1211ZM50.7833 23.0947V22.2158H63.8351V23.0947H57.8732V24.8525H56.7745V23.0947H50.7833ZM52.7316 29.584V26.5664H60.8614V25.3359H52.629V24.4424H61.9894V27.3867H53.8595V28.6904H62.3702V29.584H52.7316ZM66.0323 23.9736V20.1064H71.8185V18.0557H65.9738V17.1475H72.9318V20.9707H67.1456V23.0654H67.3214C67.8585 23.0654 68.8741 23.0264 70.3683 22.9482C71.8722 22.8604 73.1905 22.748 74.3234 22.6113V23.4902C73.1613 23.6367 71.7501 23.7539 70.09 23.8418C68.4396 23.9297 67.2384 23.9736 66.4864 23.9736H66.0323ZM75.2902 25.0576V16.459H76.4181V18.7588H78.1466V19.6963H76.4181V22.1426H78.1466V23.0508H76.4181V25.0576H75.2902ZM67.2775 27.5186C67.2775 26.7764 67.7023 26.2051 68.5519 25.8047C69.4113 25.4043 70.5636 25.2041 72.0089 25.2041C73.464 25.2041 74.6212 25.4043 75.4806 25.8047C76.34 26.2051 76.7696 26.7764 76.7696 27.5186C76.7696 28.251 76.3351 28.8223 75.4659 29.2324C74.5968 29.6426 73.4445 29.8428 72.0089 29.833C70.5441 29.8232 69.3868 29.6182 68.5372 29.2178C67.6974 28.8174 67.2775 28.251 67.2775 27.5186ZM68.5079 27.5186C68.5079 27.958 68.8204 28.2949 69.4454 28.5293C70.0802 28.7637 70.9347 28.8809 72.0089 28.8809C73.0441 28.8809 73.8937 28.7588 74.5577 28.5146C75.2218 28.2803 75.5538 27.9482 75.5538 27.5186C75.5538 27.0693 75.2267 26.7275 74.5724 26.4932C73.9279 26.2588 73.0734 26.1416 72.0089 26.1416C70.9445 26.1416 70.0948 26.2588 69.4601 26.4932C68.8253 26.7275 68.5079 27.0693 68.5079 27.5186Z" fill="black"/>
</svg>
