<svg width="116" height="47" viewBox="0 0 116 47" fill="none" xmlns="http://www.w3.org/2000/svg">
<rect x="0.5" y="0.5" width="115" height="46" rx="9.5" fill="white" stroke="black"/>
<path d="M32.5024 19.6377C32.5024 18.7686 32.9711 18.0947 33.9086 17.6162C34.8559 17.1279 36.0375 16.8838 37.4535 16.8838C38.352 16.8838 39.1674 16.9863 39.8998 17.1914C40.642 17.3867 41.2475 17.6992 41.7162 18.1289C42.185 18.5488 42.4194 19.0518 42.4194 19.6377C42.4194 20.5068 41.9408 21.1807 40.9838 21.6592C40.0268 22.1377 38.85 22.377 37.4535 22.377C36.0082 22.377 34.8217 22.1377 33.894 21.6592C32.9662 21.1709 32.5024 20.4971 32.5024 19.6377ZM33.7475 19.6377C33.7475 20.2041 34.1137 20.6484 34.8461 20.9707C35.5883 21.293 36.4574 21.4541 37.4535 21.4541C38.4789 21.4541 39.3529 21.293 40.0756 20.9707C40.808 20.6387 41.1742 20.1943 41.1742 19.6377C41.1742 19.0811 40.808 18.6367 40.0756 18.3047C39.3432 17.9727 38.4692 17.8066 37.4535 17.8066C36.4867 17.8066 35.6274 17.9727 34.8754 18.3047C34.1235 18.6367 33.7475 19.0811 33.7475 19.6377ZM30.8764 25.3506V24.3545H43.9428V25.3506H40.4565V29.8477H39.3432V25.3506H35.5492V29.8477H34.436V25.3506H30.8764ZM45.8031 27.1816C47.5024 26.1074 48.8695 24.8135 49.9047 23.2998C50.9399 21.7861 51.4623 20.292 51.4721 18.8174H46.5063V17.7773H52.6733C52.6733 21.8398 50.6518 25.2236 46.6088 27.9287L45.8031 27.1816ZM55.6762 29.8184V16.459H56.8188V29.8184H55.6762ZM61.8139 20.4141V16.5762H62.9418V19.4912H71.1156V20.4141H61.8139ZM59.7192 23.5781V22.626H65.769V20.2529H66.8969V22.626H72.7709V23.5781H59.7192ZM61.3598 27.3428C61.3598 26.5908 61.7992 26.0098 62.6781 25.5996C63.557 25.1895 64.7485 24.9844 66.2524 24.9844C67.766 24.9844 68.9672 25.1895 69.8559 25.5996C70.7543 26 71.2035 26.5811 71.2035 27.3428C71.2035 28.0947 70.7494 28.6758 69.8412 29.0859C68.9428 29.5059 67.7465 29.7109 66.2524 29.7012C64.7289 29.6914 63.5326 29.4814 62.6635 29.0713C61.7944 28.6709 61.3598 28.0947 61.3598 27.3428ZM62.5903 27.3428C62.5903 27.792 62.9125 28.1387 63.557 28.3828C64.2016 28.6172 65.1 28.7344 66.2524 28.7344C67.3559 28.7344 68.2543 28.6123 68.9477 28.3682C69.641 28.124 69.9877 27.7822 69.9877 27.3428C69.9877 26.874 69.6459 26.5225 68.9623 26.2881C68.2885 26.0537 67.3852 25.9365 66.2524 25.9365C65.1195 25.9365 64.226 26.0586 63.5717 26.3027C62.9174 26.5371 62.5903 26.8838 62.5903 27.3428ZM76.1401 22.4209V16.708H77.268V18.5977H84.1088V16.708H85.2367V22.4209H76.1401ZM77.268 21.4688H84.1088V19.5059H77.268V21.4688ZM74.1332 25.1748V24.252H80.1244V21.835H81.2377V24.252H87.185V25.1748H74.1332ZM76.2719 29.3789V26.0537H77.3998V28.3975H85.6469V29.3789H76.2719Z" fill="black"/>
</svg>
