<svg width="116" height="47" viewBox="0 0 116 47" fill="none" xmlns="http://www.w3.org/2000/svg">
<rect x="0.5" y="0.5" width="66" height="46" rx="9.5" fill="white" stroke="black"/>
<rect x="0.5" y="0.5" width="115" height="46" rx="9.5" fill="white" stroke="black"/>
<path d="M31.8725 20.1797C32.9076 19.9844 33.9477 19.6621 34.9926 19.2129C36.0375 18.7637 36.6235 18.3193 36.7504 17.8799L36.7651 17.6602H32.6928V16.7373H42.2289V17.6602H38.1713V17.8799C38.3178 18.2998 38.8891 18.7344 39.8852 19.1836C40.8813 19.6328 41.9262 19.9697 43.0199 20.1943L42.5951 21C41.5697 20.8242 40.5639 20.5166 39.5776 20.0771C38.5912 19.6377 37.8832 19.1738 37.4535 18.6855C37.0727 19.1445 36.4037 19.5938 35.4467 20.0332C34.4897 20.4727 33.4545 20.8047 32.3412 21.0293L31.8725 20.1797ZM30.891 22.8311V21.9521H36.8822V20.3262H38.0102V21.9521H43.9428V22.8311H30.891ZM34.9047 24.6768V23.8418H40.017V24.6768H34.9047ZM32.268 26.376V25.5264H42.6391V26.376H32.268ZM33.2641 28.4707C33.2641 27.9727 33.6645 27.6064 34.4653 27.3721C35.266 27.1377 36.2621 27.0205 37.4535 27.0205C38.6547 27.0205 39.6557 27.1377 40.4565 27.3721C41.2572 27.5967 41.6576 27.958 41.6576 28.4561C41.6576 28.7197 41.5356 28.9492 41.2914 29.1445C41.057 29.3398 40.7348 29.4912 40.3246 29.5986C39.9145 29.7061 39.4701 29.7842 38.9916 29.833C38.5229 29.8818 38.0102 29.9062 37.4535 29.9062C36.2524 29.9062 35.2514 29.7939 34.4506 29.5693C33.6596 29.3447 33.2641 28.9785 33.2641 28.4707ZM34.4945 28.4707C34.5043 28.9199 35.4906 29.1445 37.4535 29.1445C39.4164 29.1445 40.4028 28.915 40.4125 28.4561C40.4223 28.2119 40.1537 28.0459 39.6069 27.958C39.06 27.8604 38.3422 27.8115 37.4535 27.8115C36.5746 27.8115 35.8569 27.8604 35.3002 27.958C34.7533 28.0557 34.4848 28.2266 34.4945 28.4707ZM46.9018 19.3154C46.9018 18.7686 47.1313 18.2998 47.5903 17.9092C48.059 17.5088 48.6596 17.2207 49.392 17.0449C50.1244 16.8594 50.9496 16.7666 51.8676 16.7666C53.2641 16.7666 54.436 16.9912 55.3832 17.4404C56.3403 17.8799 56.8188 18.5049 56.8188 19.3154C56.8188 19.8623 56.5844 20.3359 56.1156 20.7363C55.6469 21.127 55.0463 21.415 54.3139 21.6006C53.5815 21.7764 52.766 21.8643 51.8676 21.8643C50.4223 21.8643 49.2309 21.6445 48.2934 21.2051C47.3656 20.7559 46.9018 20.126 46.9018 19.3154ZM48.1469 19.3154C48.1469 19.833 48.518 20.2334 49.2602 20.5166C50.0024 20.7998 50.8715 20.9414 51.8676 20.9414C52.5219 20.9414 53.1225 20.8828 53.6694 20.7656C54.226 20.6484 54.6801 20.4629 55.0317 20.209C55.393 19.9551 55.5737 19.6572 55.5737 19.3154C55.5737 18.8076 55.2074 18.4121 54.475 18.1289C53.7524 17.8359 52.8832 17.6895 51.8676 17.6895C50.9008 17.6895 50.0365 17.8359 49.2748 18.1289C48.5229 18.4121 48.1469 18.8076 48.1469 19.3154ZM45.3051 24.5156V23.5781H58.3569V24.5156H45.3051ZM47.4438 29.3643V25.7754H48.5717V28.3828H56.8188V29.3643H47.4438ZM61.8285 23.3584V17.4404H62.9711V22.3623H71.1303V23.3584H61.8285ZM59.7045 28.1338V27.1523H72.7709V28.1338H59.7045ZM74.7338 22.875C75.6713 22.2207 76.433 21.4639 77.019 20.6045C77.6049 19.7354 77.9076 18.9443 77.9272 18.2314H75.2319V17.25H79.1137C79.1039 18.4805 78.7719 19.6328 78.1176 20.707C77.4731 21.7812 76.6137 22.7139 75.5395 23.5049L74.7338 22.875ZM78.9086 23.4609C79.7387 22.7188 80.4174 21.874 80.9447 20.9268C81.4819 19.9697 81.7553 19.0713 81.7651 18.2314H79.5824V17.25H82.9076C82.8979 19.8867 81.8529 22.1572 79.7729 24.0615L78.9086 23.4609ZM84.8705 24.0908V16.459H85.9985V24.0908H84.8705ZM76.9604 29.584V24.8379H86.0131V29.584H76.9604ZM78.0883 28.5879H84.8852V25.834H78.0883V28.5879Z" fill="black"/>
</svg>
