<svg width="116" height="48" viewBox="0 0 116 48" fill="none" xmlns="http://www.w3.org/2000/svg">
<rect x="0.5" y="1" width="115" height="46" rx="9.5" fill="white" stroke="black"/>
<path d="M33.0883 18.7314V17.6621H37.7465V18.7314H33.0883ZM31.2719 21.5146V20.46H39.0795V21.5146H31.2719ZM31.8871 25.6162C31.8871 24.7959 32.2094 24.1221 32.8539 23.5947C33.5082 23.0576 34.3529 22.7891 35.3881 22.7891C36.4135 22.7891 37.2533 23.0527 37.9076 23.5801C38.5619 24.1074 38.8891 24.7861 38.8891 25.6162C38.8891 26.4268 38.5619 27.1006 37.9076 27.6377C37.2533 28.1748 36.4135 28.4434 35.3881 28.4434C34.3529 28.4434 33.5082 28.1748 32.8539 27.6377C32.2094 27.1006 31.8871 26.4268 31.8871 25.6162ZM33.0444 25.6162C33.0444 26.1436 33.269 26.5781 33.7182 26.9199C34.1772 27.2617 34.7338 27.4326 35.3881 27.4326C36.0131 27.4326 36.56 27.2617 37.0287 26.9199C37.4975 26.5781 37.7319 26.1436 37.7319 25.6162C37.7319 25.0791 37.5024 24.6445 37.0434 24.3125C36.5942 23.9805 36.0424 23.8145 35.3881 23.8145C34.724 23.8145 34.1674 23.9805 33.7182 24.3125C33.269 24.6445 33.0444 25.0791 33.0444 25.6162ZM38.9916 24.4004V23.3311H41.6283V16.959H42.7563V30.3184H41.6283V24.4004H38.9916ZM47.2973 24.8984V17.8232H48.4252V20.3135H55.3246V17.8232H56.4672V24.8984H47.2973ZM48.4252 23.9023H55.3246V21.2949H48.4252V23.9023ZM45.2904 28.6338V27.6523H58.3569V28.6338H45.2904ZM61.0668 27.3154V18.3213H66.1938V19.3027H62.2094V26.334H62.4291C63.6596 26.334 65.1391 26.2314 66.8676 26.0264V26.9639C64.8949 27.1982 63.0883 27.3154 61.4477 27.3154H61.0668ZM70.559 30.3184V16.959H71.643V30.3184H70.559ZM64.8022 23.1699V22.1006H67.6586V17.3398H68.684V29.7178H67.6586V23.1699H64.8022ZM75.1147 22.8477C75.1147 21.3242 75.4076 20.084 75.9936 19.127C76.5893 18.1699 77.4096 17.6914 78.4545 17.6914C79.4799 17.6914 80.2953 18.1699 80.9008 19.127C81.5063 20.084 81.809 21.3242 81.809 22.8477C81.809 24.3613 81.5112 25.6016 80.9154 26.5684C80.3197 27.5254 79.4994 28.0039 78.4545 28.0039C77.3998 28.0039 76.5795 27.5254 75.9936 26.5684C75.4076 25.6113 75.1147 24.3711 75.1147 22.8477ZM76.2719 22.8477C76.2719 24.0391 76.4574 25.0254 76.8285 25.8066C77.1996 26.5879 77.7416 26.9785 78.4545 26.9785C79.1674 26.9785 79.7094 26.583 80.0805 25.792C80.4516 24.9912 80.6371 24.0098 80.6371 22.8477C80.6371 21.666 80.4516 20.6846 80.0805 19.9033C79.7192 19.1123 79.1772 18.7168 78.4545 18.7168C77.7319 18.7168 77.185 19.1172 76.8139 19.918C76.4526 20.709 76.2719 21.6855 76.2719 22.8477ZM84.724 30.3184V16.959H85.8666V30.3184H84.724Z" fill="black"/>
</svg>
