<svg width="71" height="63" viewBox="0 0 71 63" fill="none" xmlns="http://www.w3.org/2000/svg">
<path d="M70.5 31.5C70.5 48.5663 54.8878 62.5 35.5 62.5C16.1122 62.5 0.5 48.5663 0.5 31.5C0.5 14.4337 16.1122 0.5 35.5 0.5C54.8878 0.5 70.5 14.4337 70.5 31.5Z" fill="white" stroke="black"/>
<path d="M25.1665 41.8333H44.8332C45.6616 41.8333 46.3332 41.1617 46.3332 40.3333V26.5895C46.3332 26.4214 46.2908 26.2561 46.21 26.1087L44.0692 22.205C43.7181 21.5647 43.0459 21.1667 42.3156 21.1667H27.6841C26.9538 21.1667 26.2816 21.5647 25.9304 22.205L23.7897 26.1087C23.7089 26.2561 23.6665 26.4214 23.6665 26.5895V40.3333C23.6665 41.1617 24.3381 41.8333 25.1665 41.8333Z" stroke="#33363F" stroke-width="2" stroke-linecap="round"/>
<path d="M25.0835 26.3333H44.9168" stroke="#33363F" stroke-width="2" stroke-linecap="round" stroke-linejoin="round"/>
<path d="M32.1667 21.1667L30.75 26.3333V34.0833L35 31.5L39.25 34.0833V26.3333L37.8333 21.1667" stroke="#33363F" stroke-width="2" stroke-linecap="round" stroke-linejoin="round"/>
</svg>
