<svg width="67" height="47" viewBox="0 0 67 47" fill="none" xmlns="http://www.w3.org/2000/svg">
<rect x="0.5" y="0.5" width="66" height="46" rx="9.5" fill="white" stroke="black"/>
<path d="M13.917 20.1484C14.6982 19.9141 15.46 19.6113 16.2021 19.2402C16.9541 18.8691 17.6133 18.4199 18.1797 17.8926C18.7461 17.3652 19.0293 16.8477 19.0293 16.3398V15.9736H20.1572V16.3398C20.1572 16.7207 20.3281 17.1162 20.6699 17.5264C21.0117 17.9268 21.4463 18.293 21.9736 18.625C22.5107 18.957 23.0576 19.25 23.6143 19.5039C24.1807 19.7578 24.7275 19.9629 25.2549 20.1191L24.7129 20.9541C23.7754 20.6904 22.7988 20.2705 21.7832 19.6943C20.7676 19.1182 20.04 18.5127 19.6006 17.8779C19.1807 18.5127 18.4775 19.1133 17.4912 19.6797C16.5146 20.2363 15.5088 20.6758 14.4736 20.998L13.917 20.1484ZM13.0234 23.5469V22.624H19.0146V20.3242H20.1279V22.624H26.0752V23.5469H13.0234ZM14.7666 26.2568V25.3193H24.0098V29.4502H22.8818V26.2568H14.7666ZM28.2432 23.2832C28.9756 22.6387 29.6055 21.8672 30.1328 20.9688C30.6602 20.0703 30.9238 19.1328 30.9238 18.1562V16.7207H32.0371V17.9072C32.0371 18.8057 32.252 19.6846 32.6816 20.5439C33.1113 21.3936 33.5557 22.0527 34.0146 22.5215C34.4736 22.0625 34.9131 21.4033 35.333 20.5439C35.7627 19.6846 35.9775 18.8008 35.9775 17.8926V16.7207H37.0908V18.083C37.0908 19.0596 37.3594 20.0166 37.8965 20.9541C38.4434 21.8818 39.0635 22.6533 39.7568 23.2686L39.0098 23.9277C38.5117 23.5078 38.0137 22.9561 37.5156 22.2725C37.0273 21.5889 36.6953 20.9639 36.5195 20.3975C36.3047 21.0615 35.9434 21.7305 35.4355 22.4043C34.9375 23.0684 34.4639 23.5615 34.0146 23.8838C33.4971 23.4834 33.0039 22.9756 32.5352 22.3604C32.0762 21.7354 31.7295 21.0811 31.4951 20.3975C31.3096 20.9346 30.9727 21.5498 30.4844 22.2432C30.0059 22.9365 29.5176 23.5029 29.0195 23.9424L28.2432 23.2832ZM27.4229 27.6338V26.6523H40.4893V27.6338H27.4229ZM43.0674 23.2686V19.4746H48.8535V17.541H42.9941V16.6328H49.9668V20.3535H44.166V22.3604H45.001C47.0127 22.3604 49.2344 22.2285 51.666 21.9648V22.8145C50.4844 22.9512 49.127 23.0635 47.5938 23.1514C46.0703 23.2295 44.9229 23.2686 44.1514 23.2686H43.0674ZM52.5889 24.0303V15.959H53.7168V24.0303H52.5889ZM44.708 29.1719V24.8066H53.7168V29.1719H44.708ZM45.8359 28.2051H52.5889V25.7734H45.8359V28.2051Z" fill="black"/>
</svg>
