<svg width="116" height="48" viewBox="0 0 116 48" fill="none" xmlns="http://www.w3.org/2000/svg">
<rect x="0.5" y="1" width="66" height="46" rx="9.5" fill="white" stroke="black"/>
<rect x="0.5" y="1" width="115" height="46" rx="9.5" fill="white" stroke="black"/>
<path d="M31.7699 21.2363C32.5805 21.0215 33.3617 20.7383 34.1137 20.3867C34.8754 20.0352 35.5346 19.6055 36.0912 19.0977C36.6479 18.5801 36.9262 18.0723 36.9262 17.5742V17.0908H38.0541V17.5742C38.0541 17.9453 38.2153 18.3262 38.5375 18.7168C38.8695 19.1074 39.2944 19.4639 39.8119 19.7861C40.3295 20.0986 40.8813 20.3818 41.4672 20.6357C42.0531 20.8799 42.6244 21.0752 43.1811 21.2217L42.6391 22.0566C41.6332 21.8125 40.6322 21.4072 39.6362 20.8408C38.6498 20.2744 37.932 19.6787 37.4828 19.0537C37.0824 19.6689 36.3842 20.2646 35.3881 20.8408C34.392 21.4072 33.3666 21.8223 32.3119 22.0859L31.7699 21.2363ZM30.891 24.2686V23.3164H43.9428V24.2686H38.2299V27.4326H37.1166V24.2686H30.891ZM32.9565 29.9082V26.2314H34.0844V28.9121H42.3901V29.9082H32.9565ZM46.0668 22.291C46.9067 22.0273 47.7123 21.6807 48.4838 21.251C49.2553 20.8213 49.9194 20.2988 50.476 19.6836C51.0424 19.0684 51.3256 18.4531 51.3256 17.8379V17.1201H52.4535V17.8232C52.4535 18.2822 52.6195 18.751 52.9516 19.2295C53.2836 19.708 53.7084 20.1426 54.226 20.5332C54.7533 20.9141 55.3149 21.2607 55.9106 21.5732C56.5063 21.876 57.0971 22.1152 57.683 22.291L57.1117 23.126C56.0863 22.833 55.0658 22.3447 54.0502 21.6611C53.0346 20.9775 52.3119 20.2695 51.8822 19.5371C51.4916 20.2598 50.7885 20.958 49.7729 21.6318C48.767 22.3057 47.727 22.8086 46.6528 23.1406L46.0668 22.291ZM45.2904 25.7041V24.7227H58.3569V25.7041H52.4242V30.3477H51.2963V25.7041H45.2904ZM61.7553 18.4385V17.4863H66.5893V18.4385H61.7553ZM59.8363 20.6211V19.6689H68.0395V20.6211H59.8363ZM60.4662 23.5947C60.4662 22.9502 60.8178 22.4473 61.5209 22.0859C62.2338 21.7148 63.1127 21.5293 64.1576 21.5293C65.2026 21.5293 66.0766 21.71 66.7797 22.0713C67.4926 22.4326 67.849 22.9404 67.849 23.5947C67.849 24.2393 67.4926 24.7471 66.7797 25.1182C66.0766 25.4893 65.2026 25.6748 64.1576 25.6748C63.1127 25.6748 62.2338 25.4893 61.5209 25.1182C60.8178 24.7471 60.4662 24.2393 60.4662 23.5947ZM61.6528 23.5947C61.6528 23.9658 61.892 24.2588 62.3705 24.4736C62.8588 24.6885 63.4545 24.7959 64.1576 24.7959C64.8412 24.7959 65.4272 24.6885 65.9154 24.4736C66.4135 24.2588 66.6625 23.9658 66.6625 23.5947C66.6625 23.2041 66.4233 22.9111 65.9447 22.7158C65.4662 22.5107 64.8705 22.4082 64.1576 22.4082C63.4447 22.4082 62.849 22.5156 62.3705 22.7305C61.892 22.9355 61.6528 23.2236 61.6528 23.5947ZM69.7973 27.2568V16.959H70.9252V21.8076H72.8149V22.8184H70.9252V27.2568H69.7973ZM62.2826 30.04V26.6123H63.4106V29.0586H71.3793V30.04H62.2826ZM75.3637 24.5615V17.8818H81.5453V24.5615H75.3637ZM76.477 23.624H80.432V18.8193H76.477V23.624ZM81.0473 23.3896V22.4521H84.8705V19.9619H81.0473V19.0244H84.8705V16.959H85.9985V26.9346H84.8705V23.3896H81.0473ZM77.1069 29.8936V25.8652H78.2348V28.8828H86.4379V29.8936H77.1069Z" fill="black"/>
</svg>
